STARTFONT 2.1
FONT -Galmuri9-Regular-R-Regular--12-12-75-75-c-80-iso10646-1
SIZE 12 75 75
FONTBOUNDINGBOX 16 17 -1 -3
STARTPROPERTIES 10
FAMILY_NAME Galmuri9
WEIGHT_NAME Regular
FONT_VERSION 2.26.35
COPYRIGHT Copyright (c) 2019-2022 Minseo Lee (itoupluk427@gmail.com), with Reserved Font Name "Galmuri".
FOUNDRY Made with Bits'n'Picas by Kreative Software
FONT_ASCENT 11
FONT_DESCENT 1
CAP_HEIGHT 10
POINT_SIZE 10
X_HEIGHT 6
ENDPROPERTIES
CHARS 19870
STARTCHAR U+0020
ENCODING 32
SWIDTH 250 0
DWIDTH 4 0
BBX 0 0 0 0
BITMAP
ENDCHAR
STARTCHAR U+0021
ENCODING 33
SWIDTH 250 0
DWIDTH 4 0
BBX 1 9 1 0
BITMAP
80
80
80
80
80
80
00
80
80
ENDCHAR
STARTCHAR U+0022
ENCODING 34
SWIDTH 250 0
DWIDTH 4 0
BBX 3 2 0 7
BITMAP
A0
A0
ENDCHAR
STARTCHAR U+0023
ENCODING 35
SWIDTH 500 0
DWIDTH 8 0
BBX 7 9 0 0
BITMAP
14
14
7E
28
28
28
FC
50
50
ENDCHAR
STARTCHAR U+0024
ENCODING 36
SWIDTH 375 0
DWIDTH 6 0
BBX 5 9 0 0
BITMAP
20
70
A8
A0
70
28
A8
70
20
ENDCHAR
STARTCHAR U+0025
ENCODING 37
SWIDTH 500 0
DWIDTH 8 0
BBX 7 9 0 0
BITMAP
44
A4
A8
48
10
24
2A
4A
44
ENDCHAR
STARTCHAR U+0026
ENCODING 38
SWIDTH 437 0
DWIDTH 7 0
BBX 6 9 0 0
BITMAP
20
50
50
50
20
54
88
88
74
ENDCHAR
STARTCHAR U+0027
ENCODING 39
SWIDTH 125 0
DWIDTH 2 0
BBX 1 2 0 7
BITMAP
80
80
ENDCHAR
STARTCHAR U+0028
ENCODING 40
SWIDTH 250 0
DWIDTH 4 0
BBX 3 9 0 0
BITMAP
20
40
40
80
80
80
40
40
20
ENDCHAR
STARTCHAR U+0029
ENCODING 41
SWIDTH 250 0
DWIDTH 4 0
BBX 3 9 0 0
BITMAP
80
40
40
20
20
20
40
40
80
ENDCHAR
STARTCHAR U+002A
ENCODING 42
SWIDTH 375 0
DWIDTH 6 0
BBX 5 7 0 1
BITMAP
20
A8
70
20
70
A8
20
ENDCHAR
STARTCHAR U+002B
ENCODING 43
SWIDTH 375 0
DWIDTH 6 0
BBX 5 5 0 2
BITMAP
20
20
F8
20
20
ENDCHAR
STARTCHAR U+002C
ENCODING 44
SWIDTH 250 0
DWIDTH 4 0
BBX 2 2 0 -1
BITMAP
40
80
ENDCHAR
STARTCHAR U+002D
ENCODING 45
SWIDTH 312 0
DWIDTH 5 0
BBX 4 1 0 4
BITMAP
F0
ENDCHAR
STARTCHAR U+002E
ENCODING 46
SWIDTH 250 0
DWIDTH 4 0
BBX 1 1 1 0
BITMAP
80
ENDCHAR
STARTCHAR U+002F
ENCODING 47
SWIDTH 250 0
DWIDTH 4 0
BBX 3 9 0 0
BITMAP
20
20
20
40
40
40
80
80
80
ENDCHAR
STARTCHAR U+0030
ENCODING 48
SWIDTH 375 0
DWIDTH 6 0
BBX 5 9 0 0
BITMAP
70
88
88
88
88
88
88
88
70
ENDCHAR
STARTCHAR U+0031
ENCODING 49
SWIDTH 250 0
DWIDTH 4 0
BBX 2 9 0 0
BITMAP
C0
40
40
40
40
40
40
40
40
ENDCHAR
STARTCHAR U+0032
ENCODING 50
SWIDTH 375 0
DWIDTH 6 0
BBX 5 9 0 0
BITMAP
F0
08
08
08
70
80
80
80
F8
ENDCHAR
STARTCHAR U+0033
ENCODING 51
SWIDTH 375 0
DWIDTH 6 0
BBX 5 9 0 0
BITMAP
F0
08
08
08
70
08
08
08
F0
ENDCHAR
STARTCHAR U+0034
ENCODING 52
SWIDTH 437 0
DWIDTH 7 0
BBX 6 9 0 0
BITMAP
88
88
88
88
88
7C
08
08
08
ENDCHAR
STARTCHAR U+0035
ENCODING 53
SWIDTH 375 0
DWIDTH 6 0
BBX 5 9 0 0
BITMAP
F8
80
80
80
F0
08
08
08
F0
ENDCHAR
STARTCHAR U+0036
ENCODING 54
SWIDTH 375 0
DWIDTH 6 0
BBX 5 9 0 0
BITMAP
70
80
80
80
F0
88
88
88
70
ENDCHAR
STARTCHAR U+0037
ENCODING 55
SWIDTH 375 0
DWIDTH 6 0
BBX 5 9 0 0
BITMAP
F8
08
08
10
20
20
20
20
20
ENDCHAR
STARTCHAR U+0038
ENCODING 56
SWIDTH 375 0
DWIDTH 6 0
BBX 5 9 0 0
BITMAP
70
88
88
88
70
88
88
88
70
ENDCHAR
STARTCHAR U+0039
ENCODING 57
SWIDTH 375 0
DWIDTH 6 0
BBX 5 9 0 0
BITMAP
70
88
88
88
78
08
08
08
70
ENDCHAR
STARTCHAR U+003A
ENCODING 58
SWIDTH 250 0
DWIDTH 4 0
BBX 1 4 1 2
BITMAP
80
00
00
80
ENDCHAR
STARTCHAR U+003B
ENCODING 59
SWIDTH 250 0
DWIDTH 4 0
BBX 2 5 0 1
BITMAP
40
00
00
40
80
ENDCHAR
STARTCHAR U+003C
ENCODING 60
SWIDTH 250 0
DWIDTH 4 0
BBX 3 5 0 2
BITMAP
20
40
80
40
20
ENDCHAR
STARTCHAR U+003D
ENCODING 61
SWIDTH 312 0
DWIDTH 5 0
BBX 4 3 0 3
BITMAP
F0
00
F0
ENDCHAR
STARTCHAR U+003E
ENCODING 62
SWIDTH 250 0
DWIDTH 4 0
BBX 3 5 0 2
BITMAP
80
40
20
40
80
ENDCHAR
STARTCHAR U+003F
ENCODING 63
SWIDTH 312 0
DWIDTH 5 0
BBX 4 9 0 0
BITMAP
E0
10
10
20
40
40
00
40
40
ENDCHAR
STARTCHAR U+0040
ENCODING 64
SWIDTH 500 0
DWIDTH 8 0
BBX 7 9 0 0
BITMAP
38
44
9A
AA
AA
AA
9C
40
3C
ENDCHAR
STARTCHAR U+0041
ENCODING 65
SWIDTH 375 0
DWIDTH 6 0
BBX 5 9 0 0
BITMAP
20
20
50
50
50
F8
88
88
88
ENDCHAR
STARTCHAR U+0042
ENCODING 66
SWIDTH 375 0
DWIDTH 6 0
BBX 5 9 0 0
BITMAP
F0
88
88
88
F0
88
88
88
F0
ENDCHAR
STARTCHAR U+0043
ENCODING 67
SWIDTH 375 0
DWIDTH 6 0
BBX 5 9 0 0
BITMAP
78
80
80
80
80
80
80
80
78
ENDCHAR
STARTCHAR U+0044
ENCODING 68
SWIDTH 375 0
DWIDTH 6 0
BBX 5 9 0 0
BITMAP
F0
88
88
88
88
88
88
88
F0
ENDCHAR
STARTCHAR U+0045
ENCODING 69
SWIDTH 312 0
DWIDTH 5 0
BBX 4 9 0 0
BITMAP
F0
80
80
80
F0
80
80
80
F0
ENDCHAR
STARTCHAR U+0046
ENCODING 70
SWIDTH 312 0
DWIDTH 5 0
BBX 4 9 0 0
BITMAP
F0
80
80
80
F0
80
80
80
80
ENDCHAR
STARTCHAR U+0047
ENCODING 71
SWIDTH 375 0
DWIDTH 6 0
BBX 5 9 0 0
BITMAP
78
80
80
80
B8
88
88
88
70
ENDCHAR
STARTCHAR U+0048
ENCODING 72
SWIDTH 375 0
DWIDTH 6 0
BBX 5 9 0 0
BITMAP
88
88
88
88
F8
88
88
88
88
ENDCHAR
STARTCHAR U+0049
ENCODING 73
SWIDTH 125 0
DWIDTH 2 0
BBX 1 9 0 0
BITMAP
80
80
80
80
80
80
80
80
80
ENDCHAR
STARTCHAR U+004A
ENCODING 74
SWIDTH 312 0
DWIDTH 5 0
BBX 4 9 0 0
BITMAP
10
10
10
10
10
10
10
10
E0
ENDCHAR
STARTCHAR U+004B
ENCODING 75
SWIDTH 375 0
DWIDTH 6 0
BBX 5 9 0 0
BITMAP
88
90
90
A0
C0
A0
90
90
88
ENDCHAR
STARTCHAR U+004C
ENCODING 76
SWIDTH 312 0
DWIDTH 5 0
BBX 4 9 0 0
BITMAP
80
80
80
80
80
80
80
80
F0
ENDCHAR
STARTCHAR U+004D
ENCODING 77
SWIDTH 375 0
DWIDTH 6 0
BBX 5 9 0 0
BITMAP
88
88
D8
D8
A8
A8
88
88
88
ENDCHAR
STARTCHAR U+004E
ENCODING 78
SWIDTH 375 0
DWIDTH 6 0
BBX 5 9 0 0
BITMAP
88
C8
C8
A8
A8
98
98
88
88
ENDCHAR
STARTCHAR U+004F
ENCODING 79
SWIDTH 375 0
DWIDTH 6 0
BBX 5 9 0 0
BITMAP
70
88
88
88
88
88
88
88
70
ENDCHAR
STARTCHAR U+0050
ENCODING 80
SWIDTH 375 0
DWIDTH 6 0
BBX 5 9 0 0
BITMAP
F0
88
88
88
F0
80
80
80
80
ENDCHAR
STARTCHAR U+0051
ENCODING 81
SWIDTH 375 0
DWIDTH 6 0
BBX 5 10 0 -1
BITMAP
70
88
88
88
88
88
88
A8
70
18
ENDCHAR
STARTCHAR U+0052
ENCODING 82
SWIDTH 375 0
DWIDTH 6 0
BBX 5 9 0 0
BITMAP
F0
88
88
88
F0
90
90
88
88
ENDCHAR
STARTCHAR U+0053
ENCODING 83
SWIDTH 312 0
DWIDTH 5 0
BBX 4 9 0 0
BITMAP
70
80
80
80
60
10
10
10
E0
ENDCHAR
STARTCHAR U+0054
ENCODING 84
SWIDTH 375 0
DWIDTH 6 0
BBX 5 9 0 0
BITMAP
F8
20
20
20
20
20
20
20
20
ENDCHAR
STARTCHAR U+0055
ENCODING 85
SWIDTH 375 0
DWIDTH 6 0
BBX 5 9 0 0
BITMAP
88
88
88
88
88
88
88
88
70
ENDCHAR
STARTCHAR U+0056
ENCODING 86
SWIDTH 375 0
DWIDTH 6 0
BBX 5 9 0 0
BITMAP
88
88
88
50
50
50
50
20
20
ENDCHAR
STARTCHAR U+0057
ENCODING 87
SWIDTH 375 0
DWIDTH 6 0
BBX 5 9 0 0
BITMAP
88
88
A8
A8
A8
A8
50
50
50
ENDCHAR
STARTCHAR U+0058
ENCODING 88
SWIDTH 375 0
DWIDTH 6 0
BBX 5 9 0 0
BITMAP
88
88
50
50
20
50
50
88
88
ENDCHAR
STARTCHAR U+0059
ENCODING 89
SWIDTH 375 0
DWIDTH 6 0
BBX 5 9 0 0
BITMAP
88
88
50
50
20
20
20
20
20
ENDCHAR
STARTCHAR U+005A
ENCODING 90
SWIDTH 312 0
DWIDTH 5 0
BBX 4 9 0 0
BITMAP
F0
10
20
20
60
40
40
80
F0
ENDCHAR
STARTCHAR U+005B
ENCODING 91
SWIDTH 250 0
DWIDTH 4 0
BBX 3 9 0 0
BITMAP
E0
80
80
80
80
80
80
80
E0
ENDCHAR
STARTCHAR U+005C
ENCODING 92
SWIDTH 250 0
DWIDTH 4 0
BBX 3 9 0 0
BITMAP
80
80
80
40
40
40
20
20
20
ENDCHAR
STARTCHAR U+005D
ENCODING 93
SWIDTH 250 0
DWIDTH 4 0
BBX 3 9 0 0
BITMAP
E0
20
20
20
20
20
20
20
E0
ENDCHAR
STARTCHAR U+005E
ENCODING 94
SWIDTH 250 0
DWIDTH 4 0
BBX 3 2 0 7
BITMAP
40
A0
ENDCHAR
STARTCHAR U+005F
ENCODING 95
SWIDTH 312 0
DWIDTH 5 0
BBX 4 1 0 0
BITMAP
F0
ENDCHAR
STARTCHAR U+0060
ENCODING 96
SWIDTH 187 0
DWIDTH 3 0
BBX 2 2 0 7
BITMAP
80
40
ENDCHAR
STARTCHAR U+0061
ENCODING 97
SWIDTH 375 0
DWIDTH 6 0
BBX 5 6 0 0
BITMAP
F0
08
78
88
88
78
ENDCHAR
STARTCHAR U+0062
ENCODING 98
SWIDTH 375 0
DWIDTH 6 0
BBX 5 9 0 0
BITMAP
80
80
80
F0
88
88
88
88
F0
ENDCHAR
STARTCHAR U+0063
ENCODING 99
SWIDTH 375 0
DWIDTH 6 0
BBX 5 6 0 0
BITMAP
78
80
80
80
80
78
ENDCHAR
STARTCHAR U+0064
ENCODING 100
SWIDTH 375 0
DWIDTH 6 0
BBX 5 9 0 0
BITMAP
08
08
08
78
88
88
88
88
78
ENDCHAR
STARTCHAR U+0065
ENCODING 101
SWIDTH 375 0
DWIDTH 6 0
BBX 5 6 0 0
BITMAP
70
88
F8
80
80
78
ENDCHAR
STARTCHAR U+0066
ENCODING 102
SWIDTH 312 0
DWIDTH 5 0
BBX 4 9 0 0
BITMAP
30
40
40
F0
40
40
40
40
40
ENDCHAR
STARTCHAR U+0067
ENCODING 103
SWIDTH 375 0
DWIDTH 6 0
BBX 5 7 0 -1
BITMAP
78
88
88
88
78
08
F0
ENDCHAR
STARTCHAR U+0068
ENCODING 104
SWIDTH 375 0
DWIDTH 6 0
BBX 5 9 0 0
BITMAP
80
80
80
F0
88
88
88
88
88
ENDCHAR
STARTCHAR U+0069
ENCODING 105
SWIDTH 125 0
DWIDTH 2 0
BBX 1 8 0 0
BITMAP
80
00
80
80
80
80
80
80
ENDCHAR
STARTCHAR U+006A
ENCODING 106
SWIDTH 250 0
DWIDTH 4 0
BBX 3 9 0 -1
BITMAP
20
00
20
20
20
20
20
20
C0
ENDCHAR
STARTCHAR U+006B
ENCODING 107
SWIDTH 312 0
DWIDTH 5 0
BBX 4 9 0 0
BITMAP
80
80
80
90
A0
C0
A0
90
90
ENDCHAR
STARTCHAR U+006C
ENCODING 108
SWIDTH 187 0
DWIDTH 3 0
BBX 2 9 0 0
BITMAP
80
80
80
80
80
80
80
80
40
ENDCHAR
STARTCHAR U+006D
ENCODING 109
SWIDTH 500 0
DWIDTH 8 0
BBX 7 6 0 0
BITMAP
FC
92
92
92
92
92
ENDCHAR
STARTCHAR U+006E
ENCODING 110
SWIDTH 375 0
DWIDTH 6 0
BBX 5 6 0 0
BITMAP
F0
88
88
88
88
88
ENDCHAR
STARTCHAR U+006F
ENCODING 111
SWIDTH 375 0
DWIDTH 6 0
BBX 5 6 0 0
BITMAP
70
88
88
88
88
70
ENDCHAR
STARTCHAR U+0070
ENCODING 112
SWIDTH 375 0
DWIDTH 6 0
BBX 5 7 0 -1
BITMAP
F0
88
88
88
F0
80
80
ENDCHAR
STARTCHAR U+0071
ENCODING 113
SWIDTH 375 0
DWIDTH 6 0
BBX 5 7 0 -1
BITMAP
78
88
88
88
78
08
08
ENDCHAR
STARTCHAR U+0072
ENCODING 114
SWIDTH 312 0
DWIDTH 5 0
BBX 4 6 0 0
BITMAP
B0
C0
80
80
80
80
ENDCHAR
STARTCHAR U+0073
ENCODING 115
SWIDTH 312 0
DWIDTH 5 0
BBX 4 6 0 0
BITMAP
70
80
60
10
10
E0
ENDCHAR
STARTCHAR U+0074
ENCODING 116
SWIDTH 312 0
DWIDTH 5 0
BBX 4 8 0 0
BITMAP
40
40
F0
40
40
40
40
30
ENDCHAR
STARTCHAR U+0075
ENCODING 117
SWIDTH 375 0
DWIDTH 6 0
BBX 5 6 0 0
BITMAP
88
88
88
88
88
78
ENDCHAR
STARTCHAR U+0076
ENCODING 118
SWIDTH 375 0
DWIDTH 6 0
BBX 5 6 0 0
BITMAP
88
88
50
50
20
20
ENDCHAR
STARTCHAR U+0077
ENCODING 119
SWIDTH 375 0
DWIDTH 6 0
BBX 5 6 0 0
BITMAP
88
A8
A8
A8
50
50
ENDCHAR
STARTCHAR U+0078
ENCODING 120
SWIDTH 375 0
DWIDTH 6 0
BBX 5 6 0 0
BITMAP
88
50
20
20
50
88
ENDCHAR
STARTCHAR U+0079
ENCODING 121
SWIDTH 375 0
DWIDTH 6 0
BBX 5 7 0 -1
BITMAP
88
88
50
50
20
20
C0
ENDCHAR
STARTCHAR U+007A
ENCODING 122
SWIDTH 375 0
DWIDTH 6 0
BBX 5 6 0 0
BITMAP
F8
10
20
40
80
F8
ENDCHAR
STARTCHAR U+007B
ENCODING 123
SWIDTH 312 0
DWIDTH 5 0
BBX 4 9 0 0
BITMAP
30
40
40
40
80
40
40
40
30
ENDCHAR
STARTCHAR U+007C
ENCODING 124
SWIDTH 250 0
DWIDTH 4 0
BBX 1 9 1 0
BITMAP
80
80
80
80
80
80
80
80
80
ENDCHAR
STARTCHAR U+007D
ENCODING 125
SWIDTH 312 0
DWIDTH 5 0
BBX 4 9 0 0
BITMAP
C0
20
20
20
10
20
20
20
C0
ENDCHAR
STARTCHAR U+007E
ENCODING 126
SWIDTH 500 0
DWIDTH 8 0
BBX 7 3 0 3
BITMAP
60
92
0C
ENDCHAR
STARTCHAR U+00A0
ENCODING 160
SWIDTH 250 0
DWIDTH 4 0
BBX 0 0 0 0
BITMAP
ENDCHAR
STARTCHAR U+00A1
ENCODING 161
SWIDTH 250 0
DWIDTH 4 0
BBX 1 9 1 -3
BITMAP
80
80
00
80
80
80
80
80
80
ENDCHAR
STARTCHAR U+00A2
ENCODING 162
SWIDTH 437 0
DWIDTH 7 0
BBX 6 9 0 0
BITMAP
10
78
94
A0
A0
A0
C4
78
40
ENDCHAR
STARTCHAR U+00A3
ENCODING 163
SWIDTH 375 0
DWIDTH 6 0
BBX 5 9 0 0
BITMAP
30
48
40
20
F8
20
40
80
F8
ENDCHAR
STARTCHAR U+00A4
ENCODING 164
SWIDTH 500 0
DWIDTH 8 0
BBX 7 7 0 1
BITMAP
BA
44
82
82
82
44
BA
ENDCHAR
STARTCHAR U+00A5
ENCODING 165
SWIDTH 500 0
DWIDTH 8 0
BBX 7 9 0 0
BITMAP
82
44
28
10
FE
10
FE
10
10
ENDCHAR
STARTCHAR U+00A6
ENCODING 166
SWIDTH 250 0
DWIDTH 4 0
BBX 1 9 1 0
BITMAP
80
80
80
80
00
80
80
80
80
ENDCHAR
STARTCHAR U+00A7
ENCODING 167
SWIDTH 312 0
DWIDTH 5 0
BBX 4 9 0 0
BITMAP
70
80
80
E0
90
70
10
10
E0
ENDCHAR
STARTCHAR U+00A8
ENCODING 168
SWIDTH 250 0
DWIDTH 4 0
BBX 3 1 0 8
BITMAP
A0
ENDCHAR
STARTCHAR U+00A9
ENCODING 169
SWIDTH 625 0
DWIDTH 10 0
BBX 9 9 0 0
BITMAP
3E00
4100
9C80
A280
A080
A280
9C80
4100
3E00
ENDCHAR
STARTCHAR U+00AA
ENCODING 170
SWIDTH 312 0
DWIDTH 5 0
BBX 4 7 0 4
BITMAP
E0
10
70
90
70
00
F0
ENDCHAR
STARTCHAR U+00AB
ENCODING 171
SWIDTH 437 0
DWIDTH 7 0
BBX 6 5 0 2
BITMAP
24
48
90
48
24
ENDCHAR
STARTCHAR U+00AC
ENCODING 172
SWIDTH 562 0
DWIDTH 9 0
BBX 8 5 0 0
BITMAP
FF
01
01
01
01
ENDCHAR
STARTCHAR U+00AE
ENCODING 174
SWIDTH 625 0
DWIDTH 10 0
BBX 9 9 0 0
BITMAP
3E00
4100
BC80
A280
BC80
A480
A280
4100
3E00
ENDCHAR
STARTCHAR U+00AF
ENCODING 175
SWIDTH 312 0
DWIDTH 5 0
BBX 4 1 0 8
BITMAP
F0
ENDCHAR
STARTCHAR U+00B0
ENCODING 176
SWIDTH 250 0
DWIDTH 4 0
BBX 3 3 0 6
BITMAP
40
A0
40
ENDCHAR
STARTCHAR U+00B1
ENCODING 177
SWIDTH 375 0
DWIDTH 6 0
BBX 5 7 0 1
BITMAP
20
20
F8
20
20
00
F8
ENDCHAR
STARTCHAR U+00B2
ENCODING 178
SWIDTH 312 0
DWIDTH 5 0
BBX 4 5 0 6
BITMAP
E0
10
60
80
F0
ENDCHAR
STARTCHAR U+00B3
ENCODING 179
SWIDTH 312 0
DWIDTH 5 0
BBX 4 5 0 6
BITMAP
E0
10
60
10
E0
ENDCHAR
STARTCHAR U+00B4
ENCODING 180
SWIDTH 187 0
DWIDTH 3 0
BBX 2 2 0 7
BITMAP
40
80
ENDCHAR
STARTCHAR U+00B5
ENCODING 181
SWIDTH 437 0
DWIDTH 7 0
BBX 5 8 0 -2
BITMAP
88
88
88
88
88
F0
80
80
ENDCHAR
STARTCHAR U+00B6
ENCODING 182
SWIDTH 375 0
DWIDTH 6 0
BBX 5 8 0 0
BITMAP
78
E8
E8
68
28
28
28
28
ENDCHAR
STARTCHAR U+00B7
ENCODING 183
SWIDTH 250 0
DWIDTH 4 0
BBX 1 1 1 4
BITMAP
80
ENDCHAR
STARTCHAR U+00B8
ENCODING 184
SWIDTH 187 0
DWIDTH 3 0
BBX 2 3 0 -2
BITMAP
80
40
80
ENDCHAR
STARTCHAR U+00B9
ENCODING 185
SWIDTH 187 0
DWIDTH 3 0
BBX 2 5 0 6
BITMAP
C0
40
40
40
40
ENDCHAR
STARTCHAR U+00BA
ENCODING 186
SWIDTH 312 0
DWIDTH 5 0
BBX 4 6 0 5
BITMAP
60
90
90
60
00
F0
ENDCHAR
STARTCHAR U+00BB
ENCODING 187
SWIDTH 437 0
DWIDTH 7 0
BBX 6 5 0 2
BITMAP
90
48
24
48
90
ENDCHAR
STARTCHAR U+00BC
ENCODING 188
SWIDTH 625 0
DWIDTH 10 0
BBX 9 9 0 0
BITMAP
C080
4100
4200
4400
4900
1300
2500
4780
8100
ENDCHAR
STARTCHAR U+00BD
ENCODING 189
SWIDTH 625 0
DWIDTH 10 0
BBX 9 9 0 0
BITMAP
C080
4100
4200
4400
4B00
1480
2100
4200
8780
ENDCHAR
STARTCHAR U+00BE
ENCODING 190
SWIDTH 625 0
DWIDTH 10 0
BBX 9 9 0 0
BITMAP
E080
1100
6200
1400
E900
1300
2500
4780
8100
ENDCHAR
STARTCHAR U+00BF
ENCODING 191
SWIDTH 375 0
DWIDTH 6 0
BBX 4 9 0 -3
BITMAP
20
20
00
20
20
40
80
80
70
ENDCHAR
STARTCHAR U+00C0
ENCODING 192
SWIDTH 375 0
DWIDTH 6 0
BBX 5 12 0 0
BITMAP
20
10
00
20
20
50
50
50
F8
88
88
88
ENDCHAR
STARTCHAR U+00C1
ENCODING 193
SWIDTH 375 0
DWIDTH 6 0
BBX 5 12 0 0
BITMAP
20
40
00
20
20
50
50
50
F8
88
88
88
ENDCHAR
STARTCHAR U+00C2
ENCODING 194
SWIDTH 375 0
DWIDTH 6 0
BBX 5 12 0 0
BITMAP
20
50
00
20
20
50
50
50
F8
88
88
88
ENDCHAR
STARTCHAR U+00C3
ENCODING 195
SWIDTH 375 0
DWIDTH 6 0
BBX 5 12 0 0
BITMAP
28
50
00
20
20
50
50
50
F8
88
88
88
ENDCHAR
STARTCHAR U+00C4
ENCODING 196
SWIDTH 375 0
DWIDTH 6 0
BBX 5 11 0 0
BITMAP
50
00
20
20
50
50
50
F8
88
88
88
ENDCHAR
STARTCHAR U+00C5
ENCODING 197
SWIDTH 375 0
DWIDTH 6 0
BBX 5 12 0 0
BITMAP
20
50
20
20
20
50
50
50
F8
88
88
88
ENDCHAR
STARTCHAR U+00C6
ENCODING 198
SWIDTH 500 0
DWIDTH 8 0
BBX 7 9 0 0
BITMAP
3E
30
50
50
5C
F0
90
90
9E
ENDCHAR
STARTCHAR U+00C7
ENCODING 199
SWIDTH 375 0
DWIDTH 6 0
BBX 5 11 0 -2
BITMAP
78
80
80
80
80
80
80
80
78
10
20
ENDCHAR
STARTCHAR U+00C8
ENCODING 200
SWIDTH 312 0
DWIDTH 5 0
BBX 4 12 0 0
BITMAP
40
20
00
F0
80
80
80
F0
80
80
80
F0
ENDCHAR
STARTCHAR U+00C9
ENCODING 201
SWIDTH 312 0
DWIDTH 5 0
BBX 4 12 0 0
BITMAP
20
40
00
F0
80
80
80
F0
80
80
80
F0
ENDCHAR
STARTCHAR U+00CA
ENCODING 202
SWIDTH 312 0
DWIDTH 5 0
BBX 4 12 0 0
BITMAP
20
50
00
F0
80
80
80
F0
80
80
80
F0
ENDCHAR
STARTCHAR U+00CB
ENCODING 203
SWIDTH 312 0
DWIDTH 5 0
BBX 4 11 0 0
BITMAP
50
00
F0
80
80
80
F0
80
80
80
F0
ENDCHAR
STARTCHAR U+00CC
ENCODING 204
SWIDTH 250 0
DWIDTH 4 0
BBX 2 12 0 0
BITMAP
80
40
00
40
40
40
40
40
40
40
40
40
ENDCHAR
STARTCHAR U+00CD
ENCODING 205
SWIDTH 250 0
DWIDTH 4 0
BBX 2 12 1 0
BITMAP
40
80
00
80
80
80
80
80
80
80
80
80
ENDCHAR
STARTCHAR U+00CE
ENCODING 206
SWIDTH 250 0
DWIDTH 4 0
BBX 3 12 0 0
BITMAP
40
A0
00
40
40
40
40
40
40
40
40
40
ENDCHAR
STARTCHAR U+00CF
ENCODING 207
SWIDTH 250 0
DWIDTH 4 0
BBX 3 11 0 0
BITMAP
A0
00
40
40
40
40
40
40
40
40
40
ENDCHAR
STARTCHAR U+00D0
ENCODING 208
SWIDTH 437 0
DWIDTH 7 0
BBX 6 9 0 0
BITMAP
78
44
44
44
E4
44
44
44
78
ENDCHAR
STARTCHAR U+00D1
ENCODING 209
SWIDTH 375 0
DWIDTH 6 0
BBX 5 12 0 0
BITMAP
28
50
00
88
C8
C8
A8
A8
98
98
88
88
ENDCHAR
STARTCHAR U+00D2
ENCODING 210
SWIDTH 375 0
DWIDTH 6 0
BBX 5 12 0 0
BITMAP
40
20
00
70
88
88
88
88
88
88
88
70
ENDCHAR
STARTCHAR U+00D3
ENCODING 211
SWIDTH 375 0
DWIDTH 6 0
BBX 5 12 0 0
BITMAP
10
20
00
70
88
88
88
88
88
88
88
70
ENDCHAR
STARTCHAR U+00D4
ENCODING 212
SWIDTH 375 0
DWIDTH 6 0
BBX 5 12 0 0
BITMAP
20
50
00
70
88
88
88
88
88
88
88
70
ENDCHAR
STARTCHAR U+00D5
ENCODING 213
SWIDTH 375 0
DWIDTH 6 0
BBX 5 12 0 0
BITMAP
28
50
00
70
88
88
88
88
88
88
88
70
ENDCHAR
STARTCHAR U+00D6
ENCODING 214
SWIDTH 375 0
DWIDTH 6 0
BBX 5 11 0 0
BITMAP
50
00
70
88
88
88
88
88
88
88
70
ENDCHAR
STARTCHAR U+00D7
ENCODING 215
SWIDTH 375 0
DWIDTH 6 0
BBX 5 5 0 2
BITMAP
88
50
20
50
88
ENDCHAR
STARTCHAR U+00D8
ENCODING 216
SWIDTH 500 0
DWIDTH 8 0
BBX 7 9 0 0
BITMAP
38
44
46
4C
54
64
44
C4
38
ENDCHAR
STARTCHAR U+00D9
ENCODING 217
SWIDTH 375 0
DWIDTH 6 0
BBX 5 12 0 0
BITMAP
40
20
00
88
88
88
88
88
88
88
88
70
ENDCHAR
STARTCHAR U+00DA
ENCODING 218
SWIDTH 375 0
DWIDTH 6 0
BBX 5 12 0 0
BITMAP
10
20
00
88
88
88
88
88
88
88
88
70
ENDCHAR
STARTCHAR U+00DB
ENCODING 219
SWIDTH 375 0
DWIDTH 6 0
BBX 5 12 0 0
BITMAP
20
50
00
88
88
88
88
88
88
88
88
70
ENDCHAR
STARTCHAR U+00DC
ENCODING 220
SWIDTH 375 0
DWIDTH 6 0
BBX 5 11 0 0
BITMAP
50
00
88
88
88
88
88
88
88
88
70
ENDCHAR
STARTCHAR U+00DD
ENCODING 221
SWIDTH 375 0
DWIDTH 6 0
BBX 5 12 0 0
BITMAP
10
20
00
88
88
50
50
20
20
20
20
20
ENDCHAR
STARTCHAR U+00DE
ENCODING 222
SWIDTH 375 0
DWIDTH 6 0
BBX 5 9 0 0
BITMAP
80
80
F0
88
88
88
F0
80
80
ENDCHAR
STARTCHAR U+00DF
ENCODING 223
SWIDTH 375 0
DWIDTH 6 0
BBX 5 9 0 0
BITMAP
70
88
88
88
B0
88
88
88
B0
ENDCHAR
STARTCHAR U+00E0
ENCODING 224
SWIDTH 375 0
DWIDTH 6 0
BBX 5 9 0 0
BITMAP
20
10
00
F0
08
78
88
88
78
ENDCHAR
STARTCHAR U+00E1
ENCODING 225
SWIDTH 375 0
DWIDTH 6 0
BBX 5 9 0 0
BITMAP
10
20
00
F0
08
78
88
88
78
ENDCHAR
STARTCHAR U+00E2
ENCODING 226
SWIDTH 375 0
DWIDTH 6 0
BBX 5 9 0 0
BITMAP
20
50
00
F0
08
78
88
88
78
ENDCHAR
STARTCHAR U+00E3
ENCODING 227
SWIDTH 375 0
DWIDTH 6 0
BBX 5 9 0 0
BITMAP
28
50
00
F0
08
78
88
88
78
ENDCHAR
STARTCHAR U+00E4
ENCODING 228
SWIDTH 375 0
DWIDTH 6 0
BBX 5 8 0 0
BITMAP
50
00
F0
08
78
88
88
78
ENDCHAR
STARTCHAR U+00E5
ENCODING 229
SWIDTH 375 0
DWIDTH 6 0
BBX 5 10 0 0
BITMAP
20
50
20
00
F0
08
78
88
88
78
ENDCHAR
STARTCHAR U+00E6
ENCODING 230
SWIDTH 500 0
DWIDTH 8 0
BBX 7 6 0 0
BITMAP
EC
12
7E
90
90
7E
ENDCHAR
STARTCHAR U+00E7
ENCODING 231
SWIDTH 375 0
DWIDTH 6 0
BBX 5 8 0 -2
BITMAP
78
80
80
80
80
78
10
20
ENDCHAR
STARTCHAR U+00E8
ENCODING 232
SWIDTH 375 0
DWIDTH 6 0
BBX 5 9 0 0
BITMAP
40
20
00
70
88
F8
80
80
78
ENDCHAR
STARTCHAR U+00E9
ENCODING 233
SWIDTH 375 0
DWIDTH 6 0
BBX 5 9 0 0
BITMAP
10
20
00
70
88
F8
80
80
78
ENDCHAR
STARTCHAR U+00EA
ENCODING 234
SWIDTH 375 0
DWIDTH 6 0
BBX 5 9 0 0
BITMAP
20
50
00
70
88
F8
80
80
78
ENDCHAR
STARTCHAR U+00EB
ENCODING 235
SWIDTH 375 0
DWIDTH 6 0
BBX 5 8 0 0
BITMAP
50
00
70
88
F8
80
80
78
ENDCHAR
STARTCHAR U+00EC
ENCODING 236
SWIDTH 250 0
DWIDTH 4 0
BBX 2 9 0 0
BITMAP
80
40
00
40
40
40
40
40
40
ENDCHAR
STARTCHAR U+00ED
ENCODING 237
SWIDTH 250 0
DWIDTH 4 0
BBX 2 9 1 0
BITMAP
40
80
00
80
80
80
80
80
80
ENDCHAR
STARTCHAR U+00EE
ENCODING 238
SWIDTH 250 0
DWIDTH 4 0
BBX 3 9 0 0
BITMAP
40
A0
00
40
40
40
40
40
40
ENDCHAR
STARTCHAR U+00EF
ENCODING 239
SWIDTH 250 0
DWIDTH 4 0
BBX 3 8 0 0
BITMAP
A0
00
40
40
40
40
40
40
ENDCHAR
STARTCHAR U+00F0
ENCODING 240
SWIDTH 375 0
DWIDTH 6 0
BBX 5 9 0 0
BITMAP
50
20
50
10
78
88
88
88
70
ENDCHAR
STARTCHAR U+00F1
ENCODING 241
SWIDTH 375 0
DWIDTH 6 0
BBX 5 9 0 0
BITMAP
28
50
00
F0
88
88
88
88
88
ENDCHAR
STARTCHAR U+00F2
ENCODING 242
SWIDTH 375 0
DWIDTH 6 0
BBX 5 9 0 0
BITMAP
40
20
00
70
88
88
88
88
70
ENDCHAR
STARTCHAR U+00F3
ENCODING 243
SWIDTH 375 0
DWIDTH 6 0
BBX 5 9 0 0
BITMAP
10
20
00
70
88
88
88
88
70
ENDCHAR
STARTCHAR U+00F4
ENCODING 244
SWIDTH 375 0
DWIDTH 6 0
BBX 5 9 0 0
BITMAP
20
50
00
70
88
88
88
88
70
ENDCHAR
STARTCHAR U+00F5
ENCODING 245
SWIDTH 375 0
DWIDTH 6 0
BBX 5 9 0 0
BITMAP
28
50
00
70
88
88
88
88
70
ENDCHAR
STARTCHAR U+00F6
ENCODING 246
SWIDTH 375 0
DWIDTH 6 0
BBX 5 8 0 0
BITMAP
50
00
70
88
88
88
88
70
ENDCHAR
STARTCHAR U+00F7
ENCODING 247
SWIDTH 375 0
DWIDTH 6 0
BBX 5 5 0 2
BITMAP
20
00
F8
00
20
ENDCHAR
STARTCHAR U+00F8
ENCODING 248
SWIDTH 500 0
DWIDTH 8 0
BBX 7 6 0 0
BITMAP
3A
4C
54
64
44
B8
ENDCHAR
STARTCHAR U+00F9
ENCODING 249
SWIDTH 375 0
DWIDTH 6 0
BBX 5 8 0 0
BITMAP
40
20
88
88
88
88
88
78
ENDCHAR
STARTCHAR U+00FA
ENCODING 250
SWIDTH 375 0
DWIDTH 6 0
BBX 5 8 0 0
BITMAP
10
20
88
88
88
88
88
78
ENDCHAR
STARTCHAR U+00FB
ENCODING 251
SWIDTH 375 0
DWIDTH 6 0
BBX 5 9 0 0
BITMAP
20
50
00
88
88
88
88
88
78
ENDCHAR
STARTCHAR U+00FC
ENCODING 252
SWIDTH 375 0
DWIDTH 6 0
BBX 5 8 0 0
BITMAP
50
00
88
88
88
88
88
78
ENDCHAR
STARTCHAR U+00FD
ENCODING 253
SWIDTH 375 0
DWIDTH 6 0
BBX 5 10 0 -1
BITMAP
10
20
00
88
88
50
50
20
20
C0
ENDCHAR
STARTCHAR U+00FE
ENCODING 254
SWIDTH 375 0
DWIDTH 6 0
BBX 5 10 0 -1
BITMAP
80
80
80
F0
88
88
F0
80
80
80
ENDCHAR
STARTCHAR U+00FF
ENCODING 255
SWIDTH 375 0
DWIDTH 6 0
BBX 5 9 0 -1
BITMAP
50
00
88
88
50
50
20
20
C0
ENDCHAR
STARTCHAR U+0100
ENCODING 256
SWIDTH 375 0
DWIDTH 6 0
BBX 5 11 0 0
BITMAP
70
00
20
20
50
50
50
F8
88
88
88
ENDCHAR
STARTCHAR U+0101
ENCODING 257
SWIDTH 375 0
DWIDTH 6 0
BBX 5 8 0 0
BITMAP
70
00
F0
08
78
88
88
78
ENDCHAR
STARTCHAR U+0102
ENCODING 258
SWIDTH 375 0
DWIDTH 6 0
BBX 5 12 0 0
BITMAP
48
30
00
20
20
50
50
50
F8
88
88
88
ENDCHAR
STARTCHAR U+0103
ENCODING 259
SWIDTH 375 0
DWIDTH 6 0
BBX 5 9 0 0
BITMAP
48
30
00
F0
08
78
88
88
78
ENDCHAR
STARTCHAR U+0104
ENCODING 260
SWIDTH 375 0
DWIDTH 6 0
BBX 5 11 0 -2
BITMAP
20
20
50
50
50
F8
88
88
88
10
08
ENDCHAR
STARTCHAR U+0105
ENCODING 261
SWIDTH 375 0
DWIDTH 6 0
BBX 5 8 0 -2
BITMAP
F0
08
78
88
88
78
10
08
ENDCHAR
STARTCHAR U+0106
ENCODING 262
SWIDTH 375 0
DWIDTH 6 0
BBX 5 12 0 0
BITMAP
10
20
00
78
80
80
80
80
80
80
80
78
ENDCHAR
STARTCHAR U+0107
ENCODING 263
SWIDTH 375 0
DWIDTH 6 0
BBX 5 9 0 0
BITMAP
10
20
00
78
80
80
80
80
78
ENDCHAR
STARTCHAR U+0108
ENCODING 264
SWIDTH 375 0
DWIDTH 6 0
BBX 5 12 0 0
BITMAP
20
50
00
78
80
80
80
80
80
80
80
78
ENDCHAR
STARTCHAR U+0109
ENCODING 265
SWIDTH 375 0
DWIDTH 6 0
BBX 5 9 0 0
BITMAP
20
50
00
78
80
80
80
80
78
ENDCHAR
STARTCHAR U+010A
ENCODING 266
SWIDTH 375 0
DWIDTH 6 0
BBX 5 11 0 0
BITMAP
20
00
78
80
80
80
80
80
80
80
78
ENDCHAR
STARTCHAR U+010B
ENCODING 267
SWIDTH 375 0
DWIDTH 6 0
BBX 5 8 0 0
BITMAP
20
00
78
80
80
80
80
78
ENDCHAR
STARTCHAR U+010C
ENCODING 268
SWIDTH 375 0
DWIDTH 6 0
BBX 5 12 0 0
BITMAP
50
20
00
78
80
80
80
80
80
80
80
78
ENDCHAR
STARTCHAR U+010D
ENCODING 269
SWIDTH 375 0
DWIDTH 6 0
BBX 5 9 0 0
BITMAP
50
20
00
78
80
80
80
80
78
ENDCHAR
STARTCHAR U+010E
ENCODING 270
SWIDTH 375 0
DWIDTH 6 0
BBX 5 12 0 0
BITMAP
50
20
00
F0
88
88
88
88
88
88
88
F0
ENDCHAR
STARTCHAR U+010F
ENCODING 271
SWIDTH 375 0
DWIDTH 6 0
BBX 6 12 0 0
BITMAP
14
08
00
08
08
08
78
88
88
88
88
78
ENDCHAR
STARTCHAR U+0110
ENCODING 272
SWIDTH 437 0
DWIDTH 7 0
BBX 6 9 0 0
BITMAP
78
44
44
44
E4
44
44
44
78
ENDCHAR
STARTCHAR U+0111
ENCODING 273
SWIDTH 375 0
DWIDTH 6 0
BBX 6 9 0 0
BITMAP
08
3C
08
78
88
88
88
88
78
ENDCHAR
STARTCHAR U+0112
ENCODING 274
SWIDTH 312 0
DWIDTH 5 0
BBX 4 11 0 0
BITMAP
70
00
F0
80
80
80
F0
80
80
80
F0
ENDCHAR
STARTCHAR U+0113
ENCODING 275
SWIDTH 375 0
DWIDTH 6 0
BBX 5 8 0 0
BITMAP
70
00
70
88
F8
80
80
78
ENDCHAR
STARTCHAR U+0114
ENCODING 276
SWIDTH 312 0
DWIDTH 5 0
BBX 4 12 0 0
BITMAP
90
60
00
F0
80
80
80
F0
80
80
80
F0
ENDCHAR
STARTCHAR U+0115
ENCODING 277
SWIDTH 375 0
DWIDTH 6 0
BBX 5 9 0 0
BITMAP
48
30
00
70
88
F8
80
80
78
ENDCHAR
STARTCHAR U+0116
ENCODING 278
SWIDTH 312 0
DWIDTH 5 0
BBX 4 11 0 0
BITMAP
20
00
F0
80
80
80
F0
80
80
80
F0
ENDCHAR
STARTCHAR U+0117
ENCODING 279
SWIDTH 375 0
DWIDTH 6 0
BBX 5 8 0 0
BITMAP
20
00
70
88
F8
80
80
78
ENDCHAR
STARTCHAR U+0118
ENCODING 280
SWIDTH 312 0
DWIDTH 5 0
BBX 4 11 0 -2
BITMAP
F0
80
80
80
F0
80
80
80
F0
40
20
ENDCHAR
STARTCHAR U+0119
ENCODING 281
SWIDTH 375 0
DWIDTH 6 0
BBX 5 8 0 -2
BITMAP
70
88
F8
80
80
78
20
10
ENDCHAR
STARTCHAR U+011A
ENCODING 282
SWIDTH 312 0
DWIDTH 5 0
BBX 4 12 0 0
BITMAP
50
20
00
F0
80
80
80
F0
80
80
80
F0
ENDCHAR
STARTCHAR U+011B
ENCODING 283
SWIDTH 375 0
DWIDTH 6 0
BBX 5 9 0 0
BITMAP
50
20
00
70
88
F8
80
80
78
ENDCHAR
STARTCHAR U+011C
ENCODING 284
SWIDTH 375 0
DWIDTH 6 0
BBX 5 12 0 0
BITMAP
20
50
00
78
80
80
80
B8
88
88
88
70
ENDCHAR
STARTCHAR U+011D
ENCODING 285
SWIDTH 375 0
DWIDTH 6 0
BBX 5 10 0 -1
BITMAP
20
50
00
78
88
88
88
78
08
F0
ENDCHAR
STARTCHAR U+011E
ENCODING 286
SWIDTH 375 0
DWIDTH 6 0
BBX 5 12 0 0
BITMAP
48
30
00
78
80
80
80
B8
88
88
88
70
ENDCHAR
STARTCHAR U+011F
ENCODING 287
SWIDTH 375 0
DWIDTH 6 0
BBX 5 10 0 -1
BITMAP
48
30
00
78
88
88
88
78
08
F0
ENDCHAR
STARTCHAR U+0120
ENCODING 288
SWIDTH 375 0
DWIDTH 6 0
BBX 5 11 0 0
BITMAP
20
00
78
80
80
80
B8
88
88
88
70
ENDCHAR
STARTCHAR U+0121
ENCODING 289
SWIDTH 375 0
DWIDTH 6 0
BBX 5 9 0 -1
BITMAP
20
00
78
88
88
88
78
08
F0
ENDCHAR
STARTCHAR U+0122
ENCODING 290
SWIDTH 375 0
DWIDTH 6 0
BBX 5 11 0 -2
BITMAP
78
80
80
80
B8
88
88
88
70
20
40
ENDCHAR
STARTCHAR U+0123
ENCODING 291
SWIDTH 375 0
DWIDTH 6 0
BBX 5 10 0 -1
BITMAP
10
20
00
78
88
88
88
78
08
F0
ENDCHAR
STARTCHAR U+0124
ENCODING 292
SWIDTH 375 0
DWIDTH 6 0
BBX 5 12 0 0
BITMAP
20
50
00
88
88
88
88
F8
88
88
88
88
ENDCHAR
STARTCHAR U+0125
ENCODING 293
SWIDTH 375 0
DWIDTH 6 0
BBX 6 12 -1 0
BITMAP
40
A0
00
40
40
40
78
44
44
44
44
44
ENDCHAR
STARTCHAR U+0126
ENCODING 294
SWIDTH 500 0
DWIDTH 8 0
BBX 7 9 0 0
BITMAP
44
FE
44
44
7C
44
44
44
44
ENDCHAR
STARTCHAR U+0127
ENCODING 295
SWIDTH 437 0
DWIDTH 7 0
BBX 6 9 0 0
BITMAP
40
F0
40
78
44
44
44
44
44
ENDCHAR
STARTCHAR U+0128
ENCODING 296
SWIDTH 250 0
DWIDTH 4 0
BBX 4 12 0 0
BITMAP
50
A0
00
40
40
40
40
40
40
40
40
40
ENDCHAR
STARTCHAR U+0129
ENCODING 297
SWIDTH 250 0
DWIDTH 4 0
BBX 4 9 0 0
BITMAP
50
A0
00
40
40
40
40
40
40
ENDCHAR
STARTCHAR U+012A
ENCODING 298
SWIDTH 250 0
DWIDTH 4 0
BBX 3 11 0 0
BITMAP
E0
00
40
40
40
40
40
40
40
40
40
ENDCHAR
STARTCHAR U+012B
ENCODING 299
SWIDTH 250 0
DWIDTH 4 0
BBX 3 8 0 0
BITMAP
E0
00
40
40
40
40
40
40
ENDCHAR
STARTCHAR U+012C
ENCODING 300
SWIDTH 250 0
DWIDTH 4 0
BBX 4 12 0 0
BITMAP
90
60
00
40
40
40
40
40
40
40
40
40
ENDCHAR
STARTCHAR U+012D
ENCODING 301
SWIDTH 250 0
DWIDTH 4 0
BBX 4 9 0 0
BITMAP
90
60
00
40
40
40
40
40
40
ENDCHAR
STARTCHAR U+012E
ENCODING 302
SWIDTH 125 0
DWIDTH 2 0
BBX 2 11 -1 -2
BITMAP
40
40
40
40
40
40
40
40
40
80
40
ENDCHAR
STARTCHAR U+012F
ENCODING 303
SWIDTH 125 0
DWIDTH 2 0
BBX 2 10 -1 -2
BITMAP
40
00
40
40
40
40
40
40
80
40
ENDCHAR
STARTCHAR U+0130
ENCODING 304
SWIDTH 125 0
DWIDTH 2 0
BBX 1 11 0 0
BITMAP
80
00
80
80
80
80
80
80
80
80
80
ENDCHAR
STARTCHAR U+0131
ENCODING 305
SWIDTH 125 0
DWIDTH 2 0
BBX 1 6 0 0
BITMAP
80
80
80
80
80
80
ENDCHAR
STARTCHAR U+0132
ENCODING 306
SWIDTH 437 0
DWIDTH 7 0
BBX 6 9 0 0
BITMAP
84
84
84
84
84
84
84
84
B8
ENDCHAR
STARTCHAR U+0133
ENCODING 307
SWIDTH 375 0
DWIDTH 6 0
BBX 5 9 0 -1
BITMAP
88
00
88
88
88
88
88
88
30
ENDCHAR
STARTCHAR U+0134
ENCODING 308
SWIDTH 312 0
DWIDTH 5 0
BBX 5 12 0 0
BITMAP
10
28
00
10
10
10
10
10
10
10
10
E0
ENDCHAR
STARTCHAR U+0135
ENCODING 309
SWIDTH 250 0
DWIDTH 4 0
BBX 4 10 0 -1
BITMAP
20
50
00
20
20
20
20
20
20
C0
ENDCHAR
STARTCHAR U+0136
ENCODING 310
SWIDTH 375 0
DWIDTH 6 0
BBX 5 11 0 -2
BITMAP
88
90
90
A0
C0
A0
90
90
88
20
40
ENDCHAR
STARTCHAR U+0137
ENCODING 311
SWIDTH 312 0
DWIDTH 5 0
BBX 4 11 0 -2
BITMAP
80
80
80
90
A0
C0
A0
90
90
40
80
ENDCHAR
STARTCHAR U+0138
ENCODING 312
SWIDTH 312 0
DWIDTH 5 0
BBX 4 6 0 0
BITMAP
90
A0
C0
A0
90
90
ENDCHAR
STARTCHAR U+0139
ENCODING 313
SWIDTH 312 0
DWIDTH 5 0
BBX 4 12 0 0
BITMAP
40
80
00
80
80
80
80
80
80
80
80
F0
ENDCHAR
STARTCHAR U+013A
ENCODING 314
SWIDTH 187 0
DWIDTH 3 0
BBX 2 12 0 0
BITMAP
40
80
00
80
80
80
80
80
80
80
80
40
ENDCHAR
STARTCHAR U+013B
ENCODING 315
SWIDTH 312 0
DWIDTH 5 0
BBX 4 11 0 -2
BITMAP
80
80
80
80
80
80
80
80
F0
20
40
ENDCHAR
STARTCHAR U+013C
ENCODING 316
SWIDTH 187 0
DWIDTH 3 0
BBX 2 11 0 -2
BITMAP
80
80
80
80
80
80
80
80
40
40
80
ENDCHAR
STARTCHAR U+013D
ENCODING 317
SWIDTH 312 0
DWIDTH 5 0
BBX 5 12 -1 0
BITMAP
A0
40
00
40
40
40
40
40
40
40
40
78
ENDCHAR
STARTCHAR U+013E
ENCODING 318
SWIDTH 187 0
DWIDTH 3 0
BBX 3 12 -1 0
BITMAP
A0
40
00
40
40
40
40
40
40
40
40
20
ENDCHAR
STARTCHAR U+013F
ENCODING 319
SWIDTH 312 0
DWIDTH 5 0
BBX 4 9 0 0
BITMAP
80
80
80
A0
80
80
80
80
F0
ENDCHAR
STARTCHAR U+0140
ENCODING 320
SWIDTH 250 0
DWIDTH 4 0
BBX 3 9 0 0
BITMAP
80
80
80
80
A0
80
80
80
40
ENDCHAR
STARTCHAR U+0141
ENCODING 321
SWIDTH 375 0
DWIDTH 6 0
BBX 5 9 0 0
BITMAP
40
40
40
60
40
C0
40
40
78
ENDCHAR
STARTCHAR U+0142
ENCODING 322
SWIDTH 250 0
DWIDTH 4 0
BBX 3 9 0 0
BITMAP
40
40
40
60
40
C0
40
40
20
ENDCHAR
STARTCHAR U+0143
ENCODING 323
SWIDTH 375 0
DWIDTH 6 0
BBX 5 12 0 0
BITMAP
10
20
00
88
C8
C8
A8
A8
98
98
88
88
ENDCHAR
STARTCHAR U+0144
ENCODING 324
SWIDTH 375 0
DWIDTH 6 0
BBX 5 9 0 0
BITMAP
10
20
00
F0
88
88
88
88
88
ENDCHAR
STARTCHAR U+0145
ENCODING 325
SWIDTH 375 0
DWIDTH 6 0
BBX 5 11 0 -2
BITMAP
88
C8
C8
A8
A8
98
98
88
88
20
40
ENDCHAR
STARTCHAR U+0146
ENCODING 326
SWIDTH 375 0
DWIDTH 6 0
BBX 5 8 0 -2
BITMAP
F0
88
88
88
88
88
20
40
ENDCHAR
STARTCHAR U+0147
ENCODING 327
SWIDTH 375 0
DWIDTH 6 0
BBX 5 12 0 0
BITMAP
50
20
00
88
C8
C8
A8
A8
98
98
88
88
ENDCHAR
STARTCHAR U+0148
ENCODING 328
SWIDTH 375 0
DWIDTH 6 0
BBX 5 9 0 0
BITMAP
50
20
00
F0
88
88
88
88
88
ENDCHAR
STARTCHAR U+0149
ENCODING 329
SWIDTH 375 0
DWIDTH 6 0
BBX 5 9 0 0
BITMAP
40
80
00
F0
88
88
88
88
88
ENDCHAR
STARTCHAR U+014A
ENCODING 330
SWIDTH 375 0
DWIDTH 6 0
BBX 5 10 0 -1
BITMAP
88
C8
C8
A8
A8
98
98
88
88
10
ENDCHAR
STARTCHAR U+014B
ENCODING 331
SWIDTH 375 0
DWIDTH 6 0
BBX 5 7 0 -1
BITMAP
F0
88
88
88
88
88
10
ENDCHAR
STARTCHAR U+014C
ENCODING 332
SWIDTH 375 0
DWIDTH 6 0
BBX 5 11 0 0
BITMAP
70
00
70
88
88
88
88
88
88
88
70
ENDCHAR
STARTCHAR U+014D
ENCODING 333
SWIDTH 375 0
DWIDTH 6 0
BBX 5 8 0 0
BITMAP
70
00
70
88
88
88
88
70
ENDCHAR
STARTCHAR U+014E
ENCODING 334
SWIDTH 375 0
DWIDTH 6 0
BBX 5 12 0 0
BITMAP
48
30
00
70
88
88
88
88
88
88
88
70
ENDCHAR
STARTCHAR U+014F
ENCODING 335
SWIDTH 375 0
DWIDTH 6 0
BBX 5 9 0 0
BITMAP
48
30
00
70
88
88
88
88
70
ENDCHAR
STARTCHAR U+0150
ENCODING 336
SWIDTH 375 0
DWIDTH 6 0
BBX 5 12 0 0
BITMAP
28
50
00
70
88
88
88
88
88
88
88
70
ENDCHAR
STARTCHAR U+0151
ENCODING 337
SWIDTH 375 0
DWIDTH 6 0
BBX 5 9 0 0
BITMAP
28
50
00
70
88
88
88
88
70
ENDCHAR
STARTCHAR U+0152
ENCODING 338
SWIDTH 500 0
DWIDTH 8 0
BBX 7 9 0 0
BITMAP
6E
90
90
90
9E
90
90
90
6E
ENDCHAR
STARTCHAR U+0153
ENCODING 339
SWIDTH 500 0
DWIDTH 8 0
BBX 7 6 0 0
BITMAP
6C
92
9E
90
90
6E
ENDCHAR
STARTCHAR U+0154
ENCODING 340
SWIDTH 375 0
DWIDTH 6 0
BBX 5 12 0 0
BITMAP
10
20
00
F0
88
88
88
F0
90
90
88
88
ENDCHAR
STARTCHAR U+0155
ENCODING 341
SWIDTH 312 0
DWIDTH 5 0
BBX 4 9 0 0
BITMAP
20
40
00
B0
C0
80
80
80
80
ENDCHAR
STARTCHAR U+0156
ENCODING 342
SWIDTH 375 0
DWIDTH 6 0
BBX 5 11 0 -2
BITMAP
F0
88
88
88
F0
90
90
88
88
20
40
ENDCHAR
STARTCHAR U+0157
ENCODING 343
SWIDTH 312 0
DWIDTH 5 0
BBX 4 8 0 -2
BITMAP
B0
C0
80
80
80
80
20
40
ENDCHAR
STARTCHAR U+0158
ENCODING 344
SWIDTH 375 0
DWIDTH 6 0
BBX 5 12 0 0
BITMAP
50
20
00
F0
88
88
88
F0
90
90
88
88
ENDCHAR
STARTCHAR U+0159
ENCODING 345
SWIDTH 312 0
DWIDTH 5 0
BBX 4 9 0 0
BITMAP
50
20
00
B0
C0
80
80
80
80
ENDCHAR
STARTCHAR U+015A
ENCODING 346
SWIDTH 312 0
DWIDTH 5 0
BBX 4 12 0 0
BITMAP
20
40
00
70
80
80
80
60
10
10
10
E0
ENDCHAR
STARTCHAR U+015B
ENCODING 347
SWIDTH 312 0
DWIDTH 5 0
BBX 4 9 0 0
BITMAP
20
40
00
70
80
60
10
10
E0
ENDCHAR
STARTCHAR U+015C
ENCODING 348
SWIDTH 312 0
DWIDTH 5 0
BBX 4 12 0 0
BITMAP
20
50
00
70
80
80
80
60
10
10
10
E0
ENDCHAR
STARTCHAR U+015D
ENCODING 349
SWIDTH 312 0
DWIDTH 5 0
BBX 4 9 0 0
BITMAP
20
50
00
70
80
60
10
10
E0
ENDCHAR
STARTCHAR U+015E
ENCODING 350
SWIDTH 312 0
DWIDTH 5 0
BBX 4 11 0 -2
BITMAP
70
80
80
80
60
10
10
10
E0
20
40
ENDCHAR
STARTCHAR U+015F
ENCODING 351
SWIDTH 312 0
DWIDTH 5 0
BBX 4 8 0 -2
BITMAP
70
80
60
10
10
E0
20
40
ENDCHAR
STARTCHAR U+0160
ENCODING 352
SWIDTH 312 0
DWIDTH 5 0
BBX 4 12 0 0
BITMAP
50
20
00
70
80
80
80
60
10
10
10
E0
ENDCHAR
STARTCHAR U+0161
ENCODING 353
SWIDTH 312 0
DWIDTH 5 0
BBX 4 9 0 0
BITMAP
50
20
00
70
80
60
10
10
E0
ENDCHAR
STARTCHAR U+0162
ENCODING 354
SWIDTH 375 0
DWIDTH 6 0
BBX 5 11 0 -2
BITMAP
F8
20
20
20
20
20
20
20
20
10
20
ENDCHAR
STARTCHAR U+0163
ENCODING 355
SWIDTH 312 0
DWIDTH 5 0
BBX 4 10 0 -2
BITMAP
40
40
F0
40
40
40
40
30
20
40
ENDCHAR
STARTCHAR U+0164
ENCODING 356
SWIDTH 375 0
DWIDTH 6 0
BBX 5 12 0 0
BITMAP
50
20
00
F8
20
20
20
20
20
20
20
20
ENDCHAR
STARTCHAR U+0165
ENCODING 357
SWIDTH 312 0
DWIDTH 5 0
BBX 4 11 0 0
BITMAP
A0
40
00
40
40
F0
40
40
40
40
30
ENDCHAR
STARTCHAR U+0166
ENCODING 358
SWIDTH 375 0
DWIDTH 6 0
BBX 5 9 0 0
BITMAP
F8
20
20
70
20
20
20
20
20
ENDCHAR
STARTCHAR U+0167
ENCODING 359
SWIDTH 312 0
DWIDTH 5 0
BBX 4 8 0 0
BITMAP
40
F0
40
F0
40
40
40
30
ENDCHAR
STARTCHAR U+0168
ENCODING 360
SWIDTH 375 0
DWIDTH 6 0
BBX 5 12 0 0
BITMAP
68
90
00
88
88
88
88
88
88
88
88
70
ENDCHAR
STARTCHAR U+0169
ENCODING 361
SWIDTH 375 0
DWIDTH 6 0
BBX 5 9 0 0
BITMAP
68
90
00
88
88
88
88
88
78
ENDCHAR
STARTCHAR U+016A
ENCODING 362
SWIDTH 375 0
DWIDTH 6 0
BBX 5 11 0 0
BITMAP
70
00
88
88
88
88
88
88
88
88
70
ENDCHAR
STARTCHAR U+016B
ENCODING 363
SWIDTH 375 0
DWIDTH 6 0
BBX 5 8 0 0
BITMAP
70
00
88
88
88
88
88
78
ENDCHAR
STARTCHAR U+016C
ENCODING 364
SWIDTH 375 0
DWIDTH 6 0
BBX 5 12 0 0
BITMAP
48
30
00
88
88
88
88
88
88
88
88
70
ENDCHAR
STARTCHAR U+016D
ENCODING 365
SWIDTH 375 0
DWIDTH 6 0
BBX 5 9 0 0
BITMAP
48
30
00
88
88
88
88
88
78
ENDCHAR
STARTCHAR U+016E
ENCODING 366
SWIDTH 375 0
DWIDTH 6 0
BBX 5 12 0 0
BITMAP
20
50
20
88
88
88
88
88
88
88
88
70
ENDCHAR
STARTCHAR U+016F
ENCODING 367
SWIDTH 375 0
DWIDTH 6 0
BBX 5 9 0 0
BITMAP
20
50
20
88
88
88
88
88
78
ENDCHAR
STARTCHAR U+0170
ENCODING 368
SWIDTH 375 0
DWIDTH 6 0
BBX 5 12 0 0
BITMAP
28
50
00
88
88
88
88
88
88
88
88
70
ENDCHAR
STARTCHAR U+0171
ENCODING 369
SWIDTH 375 0
DWIDTH 6 0
BBX 5 9 0 0
BITMAP
28
50
00
88
88
88
88
88
78
ENDCHAR
STARTCHAR U+0172
ENCODING 370
SWIDTH 375 0
DWIDTH 6 0
BBX 5 11 0 -2
BITMAP
88
88
88
88
88
88
88
88
70
20
10
ENDCHAR
STARTCHAR U+0173
ENCODING 371
SWIDTH 375 0
DWIDTH 6 0
BBX 5 8 0 -2
BITMAP
88
88
88
88
88
78
20
10
ENDCHAR
STARTCHAR U+0174
ENCODING 372
SWIDTH 375 0
DWIDTH 6 0
BBX 5 12 0 0
BITMAP
20
50
00
88
88
A8
A8
A8
A8
50
50
50
ENDCHAR
STARTCHAR U+0175
ENCODING 373
SWIDTH 375 0
DWIDTH 6 0
BBX 5 9 0 0
BITMAP
20
50
00
88
A8
A8
A8
50
50
ENDCHAR
STARTCHAR U+0176
ENCODING 374
SWIDTH 375 0
DWIDTH 6 0
BBX 5 12 0 0
BITMAP
20
50
00
88
88
50
50
20
20
20
20
20
ENDCHAR
STARTCHAR U+0177
ENCODING 375
SWIDTH 375 0
DWIDTH 6 0
BBX 5 10 0 -1
BITMAP
20
50
00
88
88
50
50
20
20
C0
ENDCHAR
STARTCHAR U+0178
ENCODING 376
SWIDTH 375 0
DWIDTH 6 0
BBX 5 11 0 0
BITMAP
50
00
88
88
50
50
20
20
20
20
20
ENDCHAR
STARTCHAR U+0179
ENCODING 377
SWIDTH 312 0
DWIDTH 5 0
BBX 4 12 0 0
BITMAP
20
40
00
F0
10
20
20
60
40
40
80
F0
ENDCHAR
STARTCHAR U+017A
ENCODING 378
SWIDTH 375 0
DWIDTH 6 0
BBX 5 9 0 0
BITMAP
10
20
00
F8
10
20
40
80
F8
ENDCHAR
STARTCHAR U+017B
ENCODING 379
SWIDTH 312 0
DWIDTH 5 0
BBX 4 11 0 0
BITMAP
20
00
F0
10
20
20
60
40
40
80
F0
ENDCHAR
STARTCHAR U+017C
ENCODING 380
SWIDTH 375 0
DWIDTH 6 0
BBX 5 8 0 0
BITMAP
20
00
F8
10
20
40
80
F8
ENDCHAR
STARTCHAR U+017D
ENCODING 381
SWIDTH 312 0
DWIDTH 5 0
BBX 4 12 0 0
BITMAP
50
20
00
F0
10
20
20
60
40
40
80
F0
ENDCHAR
STARTCHAR U+017E
ENCODING 382
SWIDTH 375 0
DWIDTH 6 0
BBX 5 9 0 0
BITMAP
50
20
00
F8
10
20
40
80
F8
ENDCHAR
STARTCHAR U+017F
ENCODING 383
SWIDTH 250 0
DWIDTH 4 0
BBX 3 9 0 0
BITMAP
60
80
80
80
80
80
80
80
80
ENDCHAR
STARTCHAR U+0192
ENCODING 402
SWIDTH 312 0
DWIDTH 5 0
BBX 4 10 0 -1
BITMAP
30
40
40
F0
40
40
40
40
40
80
ENDCHAR
STARTCHAR U+01CD
ENCODING 461
SWIDTH 375 0
DWIDTH 6 0
BBX 5 12 0 0
BITMAP
50
20
00
20
20
50
50
50
F8
88
88
88
ENDCHAR
STARTCHAR U+01CE
ENCODING 462
SWIDTH 375 0
DWIDTH 6 0
BBX 5 9 0 0
BITMAP
50
20
00
F0
08
78
88
88
78
ENDCHAR
STARTCHAR U+01CF
ENCODING 463
SWIDTH 125 0
DWIDTH 2 0
BBX 3 12 -1 0
BITMAP
A0
40
00
40
40
40
40
40
40
40
40
40
ENDCHAR
STARTCHAR U+01D0
ENCODING 464
SWIDTH 250 0
DWIDTH 4 0
BBX 3 9 0 0
BITMAP
A0
40
00
40
40
40
40
40
40
ENDCHAR
STARTCHAR U+01D1
ENCODING 465
SWIDTH 375 0
DWIDTH 6 0
BBX 5 12 0 0
BITMAP
50
20
00
70
88
88
88
88
88
88
88
70
ENDCHAR
STARTCHAR U+01D2
ENCODING 466
SWIDTH 375 0
DWIDTH 6 0
BBX 5 9 0 0
BITMAP
50
20
00
70
88
88
88
88
70
ENDCHAR
STARTCHAR U+01D3
ENCODING 467
SWIDTH 375 0
DWIDTH 6 0
BBX 5 12 0 0
BITMAP
50
20
00
88
88
88
88
88
88
88
88
70
ENDCHAR
STARTCHAR U+01D4
ENCODING 468
SWIDTH 375 0
DWIDTH 6 0
BBX 5 9 0 0
BITMAP
50
20
00
88
88
88
88
88
78
ENDCHAR
STARTCHAR U+01D5
ENCODING 469
SWIDTH 375 0
DWIDTH 6 0
BBX 5 13 0 0
BITMAP
70
00
50
00
88
88
88
88
88
88
88
88
70
ENDCHAR
STARTCHAR U+01D6
ENCODING 470
SWIDTH 375 0
DWIDTH 6 0
BBX 5 10 0 0
BITMAP
70
00
50
00
88
88
88
88
88
78
ENDCHAR
STARTCHAR U+01D7
ENCODING 471
SWIDTH 375 0
DWIDTH 6 0
BBX 5 14 0 0
BITMAP
10
20
00
50
00
88
88
88
88
88
88
88
88
70
ENDCHAR
STARTCHAR U+01D8
ENCODING 472
SWIDTH 375 0
DWIDTH 6 0
BBX 5 11 0 0
BITMAP
10
20
00
50
00
88
88
88
88
88
78
ENDCHAR
STARTCHAR U+01D9
ENCODING 473
SWIDTH 375 0
DWIDTH 6 0
BBX 5 14 0 0
BITMAP
50
20
00
50
00
88
88
88
88
88
88
88
88
70
ENDCHAR
STARTCHAR U+01DA
ENCODING 474
SWIDTH 375 0
DWIDTH 6 0
BBX 5 11 0 0
BITMAP
50
20
00
50
00
88
88
88
88
88
78
ENDCHAR
STARTCHAR U+01DB
ENCODING 475
SWIDTH 375 0
DWIDTH 6 0
BBX 5 14 0 0
BITMAP
40
20
00
50
00
88
88
88
88
88
88
88
88
70
ENDCHAR
STARTCHAR U+01DC
ENCODING 476
SWIDTH 375 0
DWIDTH 6 0
BBX 5 11 0 0
BITMAP
40
20
00
50
00
88
88
88
88
88
78
ENDCHAR
STARTCHAR U+01FA
ENCODING 506
SWIDTH 375 0
DWIDTH 6 0
BBX 5 12 0 0
BITMAP
10
20
50
20
20
50
50
50
F8
88
88
88
ENDCHAR
STARTCHAR U+01FB
ENCODING 507
SWIDTH 375 0
DWIDTH 6 0
BBX 5 11 0 0
BITMAP
10
20
50
20
00
F0
08
78
88
88
78
ENDCHAR
STARTCHAR U+01FC
ENCODING 508
SWIDTH 500 0
DWIDTH 8 0
BBX 7 12 0 0
BITMAP
04
08
00
3E
30
50
50
5C
F0
90
90
9E
ENDCHAR
STARTCHAR U+01FD
ENCODING 509
SWIDTH 500 0
DWIDTH 8 0
BBX 7 9 0 0
BITMAP
08
10
00
EC
12
7E
90
90
7E
ENDCHAR
STARTCHAR U+01FE
ENCODING 510
SWIDTH 500 0
DWIDTH 8 0
BBX 7 12 0 0
BITMAP
08
10
00
38
44
46
4C
54
64
44
C4
38
ENDCHAR
STARTCHAR U+01FF
ENCODING 511
SWIDTH 500 0
DWIDTH 8 0
BBX 7 9 0 0
BITMAP
08
10
00
3A
4C
54
64
44
B8
ENDCHAR
STARTCHAR U+2010
ENCODING 8208
SWIDTH 312 0
DWIDTH 5 0
BBX 4 1 0 4
BITMAP
F0
ENDCHAR
STARTCHAR U+2011
ENCODING 8209
SWIDTH 312 0
DWIDTH 5 0
BBX 4 1 0 4
BITMAP
F0
ENDCHAR
STARTCHAR U+2012
ENCODING 8210
SWIDTH 437 0
DWIDTH 7 0
BBX 6 1 0 4
BITMAP
FC
ENDCHAR
STARTCHAR U+2013
ENCODING 8211
SWIDTH 375 0
DWIDTH 6 0
BBX 5 1 0 4
BITMAP
F8
ENDCHAR
STARTCHAR U+2014
ENCODING 8212
SWIDTH 625 0
DWIDTH 10 0
BBX 9 1 0 4
BITMAP
FF80
ENDCHAR
STARTCHAR U+2015
ENCODING 8213
SWIDTH 625 0
DWIDTH 10 0
BBX 9 1 0 4
BITMAP
FF80
ENDCHAR
STARTCHAR U+2016
ENCODING 8214
SWIDTH 250 0
DWIDTH 4 0
BBX 3 9 0 0
BITMAP
A0
A0
A0
A0
A0
A0
A0
A0
A0
ENDCHAR
STARTCHAR U+2017
ENCODING 8215
SWIDTH 375 0
DWIDTH 6 0
BBX 5 3 0 0
BITMAP
F8
00
F8
ENDCHAR
STARTCHAR U+2018
ENCODING 8216
SWIDTH 250 0
DWIDTH 4 0
BBX 2 3 1 6
BITMAP
40
80
80
ENDCHAR
STARTCHAR U+2019
ENCODING 8217
SWIDTH 250 0
DWIDTH 4 0
BBX 2 3 0 6
BITMAP
40
40
80
ENDCHAR
STARTCHAR U+201A
ENCODING 8218
SWIDTH 250 0
DWIDTH 4 0
BBX 2 3 0 -1
BITMAP
40
40
80
ENDCHAR
STARTCHAR U+201B
ENCODING 8219
SWIDTH 250 0
DWIDTH 4 0
BBX 2 3 1 6
BITMAP
80
80
40
ENDCHAR
STARTCHAR U+201C
ENCODING 8220
SWIDTH 375 0
DWIDTH 6 0
BBX 4 3 1 6
BITMAP
50
A0
A0
ENDCHAR
STARTCHAR U+201D
ENCODING 8221
SWIDTH 375 0
DWIDTH 6 0
BBX 4 3 0 6
BITMAP
50
50
A0
ENDCHAR
STARTCHAR U+201E
ENCODING 8222
SWIDTH 375 0
DWIDTH 6 0
BBX 4 3 0 -1
BITMAP
50
50
A0
ENDCHAR
STARTCHAR U+201F
ENCODING 8223
SWIDTH 375 0
DWIDTH 6 0
BBX 4 3 1 6
BITMAP
A0
A0
50
ENDCHAR
STARTCHAR U+2020
ENCODING 8224
SWIDTH 375 0
DWIDTH 6 0
BBX 5 9 0 0
BITMAP
20
20
F8
20
20
20
20
20
20
ENDCHAR
STARTCHAR U+2021
ENCODING 8225
SWIDTH 375 0
DWIDTH 6 0
BBX 5 9 0 0
BITMAP
20
20
F8
20
20
20
F8
20
20
ENDCHAR
STARTCHAR U+2022
ENCODING 8226
SWIDTH 312 0
DWIDTH 5 0
BBX 4 4 0 2
BITMAP
60
F0
F0
60
ENDCHAR
STARTCHAR U+2023
ENCODING 8227
SWIDTH 312 0
DWIDTH 5 0
BBX 3 5 1 2
BITMAP
80
C0
E0
C0
80
ENDCHAR
STARTCHAR U+2024
ENCODING 8228
SWIDTH 250 0
DWIDTH 4 0
BBX 1 1 1 0
BITMAP
80
ENDCHAR
STARTCHAR U+2025
ENCODING 8229
SWIDTH 625 0
DWIDTH 10 0
BBX 6 1 2 4
BITMAP
84
ENDCHAR
STARTCHAR U+2026
ENCODING 8230
SWIDTH 625 0
DWIDTH 10 0
BBX 7 1 1 4
BITMAP
92
ENDCHAR
STARTCHAR U+2027
ENCODING 8231
SWIDTH 250 0
DWIDTH 4 0
BBX 1 1 1 4
BITMAP
80
ENDCHAR
STARTCHAR U+2030
ENCODING 8240
SWIDTH 625 0
DWIDTH 10 0
BBX 9 9 0 0
BITMAP
4400
A400
A800
4800
1000
2500
2A80
4A80
4500
ENDCHAR
STARTCHAR U+2031
ENCODING 8241
SWIDTH 750 0
DWIDTH 12 0
BBX 11 9 0 0
BITMAP
4400
A400
A800
4800
1000
2540
2AA0
4AA0
4540
ENDCHAR
STARTCHAR U+2032
ENCODING 8242
SWIDTH 250 0
DWIDTH 4 0
BBX 2 3 0 6
BITMAP
40
40
80
ENDCHAR
STARTCHAR U+2033
ENCODING 8243
SWIDTH 375 0
DWIDTH 6 0
BBX 4 3 0 6
BITMAP
50
50
A0
ENDCHAR
STARTCHAR U+2034
ENCODING 8244
SWIDTH 500 0
DWIDTH 8 0
BBX 6 3 0 6
BITMAP
54
54
A8
ENDCHAR
STARTCHAR U+2035
ENCODING 8245
SWIDTH 250 0
DWIDTH 4 0
BBX 2 3 1 6
BITMAP
80
80
40
ENDCHAR
STARTCHAR U+2036
ENCODING 8246
SWIDTH 375 0
DWIDTH 6 0
BBX 4 3 1 6
BITMAP
A0
A0
50
ENDCHAR
STARTCHAR U+2037
ENCODING 8247
SWIDTH 500 0
DWIDTH 8 0
BBX 6 3 1 6
BITMAP
A8
A8
54
ENDCHAR
STARTCHAR U+2038
ENCODING 8248
SWIDTH 250 0
DWIDTH 4 0
BBX 3 2 0 0
BITMAP
40
A0
ENDCHAR
STARTCHAR U+2039
ENCODING 8249
SWIDTH 187 0
DWIDTH 3 0
BBX 2 3 0 2
BITMAP
40
80
40
ENDCHAR
STARTCHAR U+203A
ENCODING 8250
SWIDTH 187 0
DWIDTH 3 0
BBX 2 3 0 2
BITMAP
80
40
80
ENDCHAR
STARTCHAR U+203B
ENCODING 8251
SWIDTH 625 0
DWIDTH 10 0
BBX 9 9 0 0
BITMAP
8880
4900
2200
1400
C980
1400
2200
4900
8880
ENDCHAR
STARTCHAR U+203C
ENCODING 8252
SWIDTH 437 0
DWIDTH 7 0
BBX 4 9 1 0
BITMAP
90
90
90
90
90
90
00
90
90
ENDCHAR
STARTCHAR U+203D
ENCODING 8253
SWIDTH 375 0
DWIDTH 6 0
BBX 4 9 1 0
BITMAP
E0
10
50
60
40
40
00
40
40
ENDCHAR
STARTCHAR U+2043
ENCODING 8259
SWIDTH 312 0
DWIDTH 5 0
BBX 4 1 0 4
BITMAP
F0
ENDCHAR
STARTCHAR U+2044
ENCODING 8260
SWIDTH 250 0
DWIDTH 4 0
BBX 3 9 0 0
BITMAP
20
20
20
40
40
40
80
80
80
ENDCHAR
STARTCHAR U+2045
ENCODING 8261
SWIDTH 250 0
DWIDTH 4 0
BBX 3 9 0 0
BITMAP
E0
80
80
80
E0
80
80
80
E0
ENDCHAR
STARTCHAR U+2046
ENCODING 8262
SWIDTH 250 0
DWIDTH 4 0
BBX 3 9 0 0
BITMAP
E0
20
20
20
E0
20
20
20
E0
ENDCHAR
STARTCHAR U+2047
ENCODING 8263
SWIDTH 687 0
DWIDTH 11 0
BBX 9 9 1 0
BITMAP
E700
1080
1080
2100
4200
4200
0000
4200
4200
ENDCHAR
STARTCHAR U+2048
ENCODING 8264
SWIDTH 562 0
DWIDTH 9 0
BBX 6 9 1 0
BITMAP
E4
14
14
24
44
44
00
44
44
ENDCHAR
STARTCHAR U+2049
ENCODING 8265
SWIDTH 562 0
DWIDTH 9 0
BBX 7 9 1 0
BITMAP
9C
82
82
84
88
88
00
88
88
ENDCHAR
STARTCHAR U+204B
ENCODING 8267
SWIDTH 375 0
DWIDTH 6 0
BBX 5 9 0 0
BITMAP
F0
B8
B8
B0
A0
A0
A0
A0
A0
ENDCHAR
STARTCHAR U+2057
ENCODING 8279
SWIDTH 625 0
DWIDTH 10 0
BBX 8 3 0 6
BITMAP
55
55
AA
ENDCHAR
STARTCHAR U+20A1
ENCODING 8353
SWIDTH 437 0
DWIDTH 7 0
BBX 6 9 0 0
BITMAP
10
78
94
A0
A0
A0
C4
78
40
ENDCHAR
STARTCHAR U+20A4
ENCODING 8356
SWIDTH 375 0
DWIDTH 6 0
BBX 5 9 0 0
BITMAP
30
48
40
20
F8
20
40
80
F8
ENDCHAR
STARTCHAR U+20A9
ENCODING 8361
SWIDTH 500 0
DWIDTH 8 0
BBX 7 9 0 0
BITMAP
44
54
54
FE
54
FE
28
28
28
ENDCHAR
STARTCHAR U+20AC
ENCODING 8364
SWIDTH 437 0
DWIDTH 7 0
BBX 6 9 0 0
BITMAP
18
24
40
F0
40
F0
40
24
18
ENDCHAR
STARTCHAR U+20BD
ENCODING 8381
SWIDTH 437 0
DWIDTH 7 0
BBX 6 9 0 0
BITMAP
78
44
44
44
F8
40
F0
40
40
ENDCHAR
STARTCHAR U+2103
ENCODING 8451
SWIDTH 625 0
DWIDTH 10 0
BBX 9 9 0 0
BITMAP
4700
A880
5000
1000
1000
1000
1000
0880
0700
ENDCHAR
STARTCHAR U+2109
ENCODING 8457
SWIDTH 625 0
DWIDTH 10 0
BBX 9 9 0 0
BITMAP
4F80
A800
4800
0800
0F80
0800
0800
0800
0800
ENDCHAR
STARTCHAR U+2116
ENCODING 8470
SWIDTH 625 0
DWIDTH 10 0
BBX 9 9 0 0
BITMAP
9000
9000
D200
D500
B500
B500
9500
9500
9280
ENDCHAR
STARTCHAR U+2121
ENCODING 8481
SWIDTH 625 0
DWIDTH 10 0
BBX 9 9 0 0
BITMAP
ED00
4900
4900
4900
4D00
4900
4900
4900
4D80
ENDCHAR
STARTCHAR U+2122
ENCODING 8482
SWIDTH 625 0
DWIDTH 10 0
BBX 9 4 0 5
BITMAP
E880
4D80
4A80
4880
ENDCHAR
STARTCHAR U+2160
ENCODING 8544
SWIDTH 125 0
DWIDTH 2 0
BBX 1 9 0 0
BITMAP
80
80
80
80
80
80
80
80
80
ENDCHAR
STARTCHAR U+2161
ENCODING 8545
SWIDTH 250 0
DWIDTH 4 0
BBX 3 9 0 0
BITMAP
A0
A0
A0
A0
A0
A0
A0
A0
A0
ENDCHAR
STARTCHAR U+2162
ENCODING 8546
SWIDTH 375 0
DWIDTH 6 0
BBX 5 9 0 0
BITMAP
A8
A8
A8
A8
A8
A8
A8
A8
A8
ENDCHAR
STARTCHAR U+2163
ENCODING 8547
SWIDTH 500 0
DWIDTH 8 0
BBX 7 9 0 0
BITMAP
A2
A2
A2
94
94
94
94
88
88
ENDCHAR
STARTCHAR U+2164
ENCODING 8548
SWIDTH 375 0
DWIDTH 6 0
BBX 5 9 0 0
BITMAP
88
88
88
50
50
50
50
20
20
ENDCHAR
STARTCHAR U+2165
ENCODING 8549
SWIDTH 500 0
DWIDTH 8 0
BBX 7 9 0 0
BITMAP
8A
8A
8A
52
52
52
52
22
22
ENDCHAR
STARTCHAR U+2166
ENCODING 8550
SWIDTH 625 0
DWIDTH 10 0
BBX 9 9 0 0
BITMAP
8A80
8A80
8A80
5280
5280
5280
5280
2280
2280
ENDCHAR
STARTCHAR U+2167
ENCODING 8551
SWIDTH 750 0
DWIDTH 12 0
BBX 11 9 0 0
BITMAP
8AA0
8AA0
8AA0
52A0
52A0
52A0
52A0
22A0
22A0
ENDCHAR
STARTCHAR U+2168
ENCODING 8552
SWIDTH 500 0
DWIDTH 8 0
BBX 7 9 0 0
BITMAP
A2
A2
94
94
88
94
94
A2
A2
ENDCHAR
STARTCHAR U+2169
ENCODING 8553
SWIDTH 375 0
DWIDTH 6 0
BBX 5 9 0 0
BITMAP
88
88
50
50
20
50
50
88
88
ENDCHAR
STARTCHAR U+216A
ENCODING 8554
SWIDTH 500 0
DWIDTH 8 0
BBX 7 9 0 0
BITMAP
8A
8A
52
52
22
52
52
8A
8A
ENDCHAR
STARTCHAR U+216B
ENCODING 8555
SWIDTH 625 0
DWIDTH 10 0
BBX 9 9 0 0
BITMAP
8A80
8A80
5280
5280
2280
5280
5280
8A80
8A80
ENDCHAR
STARTCHAR U+216C
ENCODING 8556
SWIDTH 312 0
DWIDTH 5 0
BBX 4 9 0 0
BITMAP
80
80
80
80
80
80
80
80
F0
ENDCHAR
STARTCHAR U+216D
ENCODING 8557
SWIDTH 375 0
DWIDTH 6 0
BBX 5 9 0 0
BITMAP
78
80
80
80
80
80
80
80
78
ENDCHAR
STARTCHAR U+216E
ENCODING 8558
SWIDTH 375 0
DWIDTH 6 0
BBX 5 9 0 0
BITMAP
F0
88
88
88
88
88
88
88
F0
ENDCHAR
STARTCHAR U+216F
ENCODING 8559
SWIDTH 375 0
DWIDTH 6 0
BBX 5 9 0 0
BITMAP
88
88
D8
D8
A8
A8
88
88
88
ENDCHAR
STARTCHAR U+2170
ENCODING 8560
SWIDTH 125 0
DWIDTH 2 0
BBX 1 8 0 0
BITMAP
80
00
80
80
80
80
80
80
ENDCHAR
STARTCHAR U+2171
ENCODING 8561
SWIDTH 250 0
DWIDTH 4 0
BBX 3 8 0 0
BITMAP
A0
00
A0
A0
A0
A0
A0
A0
ENDCHAR
STARTCHAR U+2172
ENCODING 8562
SWIDTH 375 0
DWIDTH 6 0
BBX 5 8 0 0
BITMAP
A8
00
A8
A8
A8
A8
A8
A8
ENDCHAR
STARTCHAR U+2173
ENCODING 8563
SWIDTH 500 0
DWIDTH 8 0
BBX 7 8 0 0
BITMAP
80
00
A2
A2
94
94
88
88
ENDCHAR
STARTCHAR U+2174
ENCODING 8564
SWIDTH 375 0
DWIDTH 6 0
BBX 5 6 0 0
BITMAP
88
88
50
50
20
20
ENDCHAR
STARTCHAR U+2175
ENCODING 8565
SWIDTH 500 0
DWIDTH 8 0
BBX 7 8 0 0
BITMAP
02
00
8A
8A
52
52
22
22
ENDCHAR
STARTCHAR U+2176
ENCODING 8566
SWIDTH 625 0
DWIDTH 10 0
BBX 9 8 0 0
BITMAP
0280
0000
8A80
8A80
5280
5280
2280
2280
ENDCHAR
STARTCHAR U+2177
ENCODING 8567
SWIDTH 750 0
DWIDTH 12 0
BBX 11 8 0 0
BITMAP
02A0
0000
8AA0
8AA0
52A0
52A0
22A0
22A0
ENDCHAR
STARTCHAR U+2178
ENCODING 8568
SWIDTH 500 0
DWIDTH 8 0
BBX 7 8 0 0
BITMAP
80
00
A2
94
88
88
94
A2
ENDCHAR
STARTCHAR U+2179
ENCODING 8569
SWIDTH 375 0
DWIDTH 6 0
BBX 5 6 0 0
BITMAP
88
50
20
20
50
88
ENDCHAR
STARTCHAR U+217A
ENCODING 8570
SWIDTH 500 0
DWIDTH 8 0
BBX 7 8 0 0
BITMAP
02
00
8A
52
22
22
52
8A
ENDCHAR
STARTCHAR U+217B
ENCODING 8571
SWIDTH 625 0
DWIDTH 10 0
BBX 9 8 0 0
BITMAP
0280
0000
8A80
5280
2280
2280
5280
8A80
ENDCHAR
STARTCHAR U+217C
ENCODING 8572
SWIDTH 187 0
DWIDTH 3 0
BBX 2 9 0 0
BITMAP
80
80
80
80
80
80
80
80
40
ENDCHAR
STARTCHAR U+217D
ENCODING 8573
SWIDTH 375 0
DWIDTH 6 0
BBX 5 6 0 0
BITMAP
78
80
80
80
80
78
ENDCHAR
STARTCHAR U+217E
ENCODING 8574
SWIDTH 375 0
DWIDTH 6 0
BBX 5 9 0 0
BITMAP
08
08
08
78
88
88
88
88
78
ENDCHAR
STARTCHAR U+217F
ENCODING 8575
SWIDTH 500 0
DWIDTH 8 0
BBX 7 6 0 0
BITMAP
FC
92
92
92
92
92
ENDCHAR
STARTCHAR U+2190
ENCODING 8592
SWIDTH 625 0
DWIDTH 10 0
BBX 9 7 0 1
BITMAP
1000
2000
4000
FF80
4000
2000
1000
ENDCHAR
STARTCHAR U+2191
ENCODING 8593
SWIDTH 625 0
DWIDTH 10 0
BBX 7 9 1 0
BITMAP
10
38
54
92
10
10
10
10
10
ENDCHAR
STARTCHAR U+2192
ENCODING 8594
SWIDTH 625 0
DWIDTH 10 0
BBX 9 7 0 1
BITMAP
0400
0200
0100
FF80
0100
0200
0400
ENDCHAR
STARTCHAR U+2193
ENCODING 8595
SWIDTH 625 0
DWIDTH 10 0
BBX 7 9 1 0
BITMAP
10
10
10
10
10
92
54
38
10
ENDCHAR
STARTCHAR U+2194
ENCODING 8596
SWIDTH 625 0
DWIDTH 10 0
BBX 9 5 0 2
BITMAP
2200
4100
FF80
4100
2200
ENDCHAR
STARTCHAR U+2195
ENCODING 8597
SWIDTH 625 0
DWIDTH 10 0
BBX 5 9 2 0
BITMAP
20
70
A8
20
20
20
A8
70
20
ENDCHAR
STARTCHAR U+2196
ENCODING 8598
SWIDTH 625 0
DWIDTH 10 0
BBX 7 7 1 1
BITMAP
F8
C0
A0
90
88
04
02
ENDCHAR
STARTCHAR U+2197
ENCODING 8599
SWIDTH 625 0
DWIDTH 10 0
BBX 7 7 1 1
BITMAP
3E
06
0A
12
22
40
80
ENDCHAR
STARTCHAR U+2198
ENCODING 8600
SWIDTH 625 0
DWIDTH 10 0
BBX 7 7 1 1
BITMAP
80
40
22
12
0A
06
3E
ENDCHAR
STARTCHAR U+2199
ENCODING 8601
SWIDTH 625 0
DWIDTH 10 0
BBX 7 7 1 1
BITMAP
02
04
88
90
A0
C0
F8
ENDCHAR
STARTCHAR U+219A
ENCODING 8602
SWIDTH 625 0
DWIDTH 10 0
BBX 9 5 0 2
BITMAP
2000
4200
FF80
4400
2000
ENDCHAR
STARTCHAR U+219B
ENCODING 8603
SWIDTH 625 0
DWIDTH 10 0
BBX 9 5 0 2
BITMAP
0200
1100
FF80
2100
0200
ENDCHAR
STARTCHAR U+219E
ENCODING 8606
SWIDTH 625 0
DWIDTH 10 0
BBX 9 5 0 2
BITMAP
2800
5000
FF80
5000
2800
ENDCHAR
STARTCHAR U+219F
ENCODING 8607
SWIDTH 625 0
DWIDTH 10 0
BBX 5 9 2 0
BITMAP
20
70
A8
70
A8
20
20
20
20
ENDCHAR
STARTCHAR U+21A0
ENCODING 8608
SWIDTH 625 0
DWIDTH 10 0
BBX 9 5 0 2
BITMAP
0A00
0500
FF80
0500
0A00
ENDCHAR
STARTCHAR U+21A1
ENCODING 8609
SWIDTH 625 0
DWIDTH 10 0
BBX 5 9 2 0
BITMAP
20
20
20
20
A8
70
A8
70
20
ENDCHAR
STARTCHAR U+21A2
ENCODING 8610
SWIDTH 625 0
DWIDTH 10 0
BBX 9 5 0 2
BITMAP
2080
4100
FE00
4100
2080
ENDCHAR
STARTCHAR U+21A3
ENCODING 8611
SWIDTH 625 0
DWIDTH 10 0
BBX 9 5 0 2
BITMAP
8200
4100
3F80
4100
8200
ENDCHAR
STARTCHAR U+21A4
ENCODING 8612
SWIDTH 625 0
DWIDTH 10 0
BBX 9 5 0 2
BITMAP
2080
4080
FF80
4080
2080
ENDCHAR
STARTCHAR U+21A5
ENCODING 8613
SWIDTH 625 0
DWIDTH 10 0
BBX 5 9 2 0
BITMAP
20
70
A8
20
20
20
20
20
F8
ENDCHAR
STARTCHAR U+21A6
ENCODING 8614
SWIDTH 625 0
DWIDTH 10 0
BBX 9 5 0 2
BITMAP
8200
8100
FF80
8100
8200
ENDCHAR
STARTCHAR U+21A7
ENCODING 8615
SWIDTH 625 0
DWIDTH 10 0
BBX 5 9 2 0
BITMAP
F8
20
20
20
20
20
A8
70
20
ENDCHAR
STARTCHAR U+21A8
ENCODING 8616
SWIDTH 625 0
DWIDTH 10 0
BBX 5 9 2 0
BITMAP
20
70
A8
20
20
A8
70
20
F8
ENDCHAR
STARTCHAR U+21A9
ENCODING 8617
SWIDTH 625 0
DWIDTH 10 0
BBX 9 6 0 2
BITMAP
0100
2080
4080
FF00
4000
2000
ENDCHAR
STARTCHAR U+21AA
ENCODING 8618
SWIDTH 625 0
DWIDTH 10 0
BBX 9 6 0 2
BITMAP
4000
8200
8100
7F80
0100
0200
ENDCHAR
STARTCHAR U+21AB
ENCODING 8619
SWIDTH 625 0
DWIDTH 10 0
BBX 9 7 0 1
BITMAP
0300
2480
4480
FF00
4400
2400
0400
ENDCHAR
STARTCHAR U+21AC
ENCODING 8620
SWIDTH 625 0
DWIDTH 10 0
BBX 9 7 0 1
BITMAP
6000
9200
9100
7F80
1100
1200
1000
ENDCHAR
STARTCHAR U+21AF
ENCODING 8623
SWIDTH 625 0
DWIDTH 10 0
BBX 8 9 1 0
BITMAP
80
80
84
9C
E4
84
15
0E
04
ENDCHAR
STARTCHAR U+21B0
ENCODING 8624
SWIDTH 625 0
DWIDTH 10 0
BBX 9 9 0 0
BITMAP
1000
2000
4000
FF80
4080
2080
1080
0080
0080
ENDCHAR
STARTCHAR U+21B1
ENCODING 8625
SWIDTH 625 0
DWIDTH 10 0
BBX 9 9 0 0
BITMAP
0400
0200
0100
FF80
8100
8200
8400
8000
8000
ENDCHAR
STARTCHAR U+21B2
ENCODING 8626
SWIDTH 625 0
DWIDTH 10 0
BBX 9 9 0 0
BITMAP
0080
0080
1080
2080
4080
FF80
4000
2000
1000
ENDCHAR
STARTCHAR U+21B3
ENCODING 8627
SWIDTH 625 0
DWIDTH 10 0
BBX 9 9 0 0
BITMAP
8000
8000
8400
8200
8100
FF80
0100
0200
0400
ENDCHAR
STARTCHAR U+21B4
ENCODING 8628
SWIDTH 625 0
DWIDTH 10 0
BBX 9 9 0 0
BITMAP
FC00
0400
0400
0400
0400
2480
1500
0E00
0400
ENDCHAR
STARTCHAR U+21B5
ENCODING 8629
SWIDTH 625 0
DWIDTH 10 0
BBX 9 9 0 0
BITMAP
0080
0080
1080
2080
4080
FF80
4000
2000
1000
ENDCHAR
STARTCHAR U+21B6
ENCODING 8630
SWIDTH 625 0
DWIDTH 10 0
BBX 9 7 0 1
BITMAP
0E00
1100
2080
2080
A800
7000
2000
ENDCHAR
STARTCHAR U+21B7
ENCODING 8631
SWIDTH 625 0
DWIDTH 10 0
BBX 9 7 0 1
BITMAP
3800
4400
8200
8200
0A80
0700
0200
ENDCHAR
STARTCHAR U+21B8
ENCODING 8632
SWIDTH 625 0
DWIDTH 10 0
BBX 9 9 0 0
BITMAP
FF80
0000
F000
C000
A000
9000
0800
0400
0200
ENDCHAR
STARTCHAR U+21B9
ENCODING 8633
SWIDTH 625 0
DWIDTH 10 0
BBX 9 9 0 0
BITMAP
9000
A000
FF80
A000
9480
0280
FF80
0280
0480
ENDCHAR
STARTCHAR U+21BA
ENCODING 8634
SWIDTH 625 0
DWIDTH 10 0
BBX 7 8 1 1
BITMAP
1C
18
54
82
82
82
44
38
ENDCHAR
STARTCHAR U+21BB
ENCODING 8635
SWIDTH 625 0
DWIDTH 10 0
BBX 7 8 1 1
BITMAP
70
30
54
82
82
82
44
38
ENDCHAR
STARTCHAR U+21BC
ENCODING 8636
SWIDTH 625 0
DWIDTH 10 0
BBX 9 4 0 4
BITMAP
1000
2000
4000
FF80
ENDCHAR
STARTCHAR U+21BD
ENCODING 8637
SWIDTH 625 0
DWIDTH 10 0
BBX 9 4 0 1
BITMAP
FF80
4000
2000
1000
ENDCHAR
STARTCHAR U+21BE
ENCODING 8638
SWIDTH 625 0
DWIDTH 10 0
BBX 4 9 4 0
BITMAP
80
C0
A0
90
80
80
80
80
80
ENDCHAR
STARTCHAR U+21BF
ENCODING 8639
SWIDTH 625 0
DWIDTH 10 0
BBX 4 9 1 0
BITMAP
10
30
50
90
10
10
10
10
10
ENDCHAR
STARTCHAR U+21C0
ENCODING 8640
SWIDTH 625 0
DWIDTH 10 0
BBX 9 4 0 4
BITMAP
0400
0200
0100
FF80
ENDCHAR
STARTCHAR U+21C1
ENCODING 8641
SWIDTH 625 0
DWIDTH 10 0
BBX 9 4 0 1
BITMAP
FF80
0100
0200
0400
ENDCHAR
STARTCHAR U+21C2
ENCODING 8642
SWIDTH 625 0
DWIDTH 10 0
BBX 4 9 4 0
BITMAP
80
80
80
80
80
90
A0
C0
80
ENDCHAR
STARTCHAR U+21C3
ENCODING 8643
SWIDTH 625 0
DWIDTH 10 0
BBX 4 9 1 0
BITMAP
10
10
10
10
10
90
50
30
10
ENDCHAR
STARTCHAR U+21C4
ENCODING 8644
SWIDTH 625 0
DWIDTH 10 0
BBX 9 9 0 0
BITMAP
0200
0100
FF80
0100
2200
4000
FF80
4000
2000
ENDCHAR
STARTCHAR U+21C5
ENCODING 8645
SWIDTH 625 0
DWIDTH 10 0
BBX 9 9 0 0
BITMAP
2200
7200
AA00
2200
2200
2200
2A80
2700
2200
ENDCHAR
STARTCHAR U+21C6
ENCODING 8646
SWIDTH 625 0
DWIDTH 10 0
BBX 9 9 0 0
BITMAP
2000
4000
FF80
4000
2200
0100
FF80
0100
0200
ENDCHAR
STARTCHAR U+21C7
ENCODING 8647
SWIDTH 625 0
DWIDTH 10 0
BBX 9 9 0 0
BITMAP
2000
4000
FF80
4000
2000
4000
FF80
4000
2000
ENDCHAR
STARTCHAR U+21C8
ENCODING 8648
SWIDTH 625 0
DWIDTH 10 0
BBX 9 9 0 0
BITMAP
2200
7700
AA80
2200
2200
2200
2200
2200
2200
ENDCHAR
STARTCHAR U+21C9
ENCODING 8649
SWIDTH 625 0
DWIDTH 10 0
BBX 9 9 0 0
BITMAP
0200
0100
FF80
0100
0200
0100
FF80
0100
0200
ENDCHAR
STARTCHAR U+21CA
ENCODING 8650
SWIDTH 625 0
DWIDTH 10 0
BBX 9 9 0 0
BITMAP
2200
2200
2200
2200
2200
2200
AA80
7700
2200
ENDCHAR
STARTCHAR U+21CB
ENCODING 8651
SWIDTH 625 0
DWIDTH 10 0
BBX 9 9 0 0
BITMAP
2000
4000
FF80
0000
0000
0000
FF80
0100
0200
ENDCHAR
STARTCHAR U+21CC
ENCODING 8652
SWIDTH 625 0
DWIDTH 10 0
BBX 9 9 0 0
BITMAP
0200
0100
FF80
0000
0000
0000
FF80
4000
2000
ENDCHAR
STARTCHAR U+21CD
ENCODING 8653
SWIDTH 625 0
DWIDTH 10 0
BBX 9 7 0 1
BITMAP
1000
2100
7F80
8200
7F80
2400
1000
ENDCHAR
STARTCHAR U+21CF
ENCODING 8655
SWIDTH 625 0
DWIDTH 10 0
BBX 9 7 0 1
BITMAP
0400
1200
FF00
2080
FF00
4200
0400
ENDCHAR
STARTCHAR U+21D0
ENCODING 8656
SWIDTH 625 0
DWIDTH 10 0
BBX 9 7 0 1
BITMAP
1000
2000
7F80
8000
7F80
2000
1000
ENDCHAR
STARTCHAR U+21D1
ENCODING 8657
SWIDTH 625 0
DWIDTH 10 0
BBX 7 9 1 0
BITMAP
10
28
6C
AA
28
28
28
28
28
ENDCHAR
STARTCHAR U+21D2
ENCODING 8658
SWIDTH 625 0
DWIDTH 10 0
BBX 9 7 0 1
BITMAP
0400
0200
FF00
0080
FF00
0200
0400
ENDCHAR
STARTCHAR U+21D3
ENCODING 8659
SWIDTH 625 0
DWIDTH 10 0
BBX 7 9 1 0
BITMAP
28
28
28
28
28
AA
6C
28
10
ENDCHAR
STARTCHAR U+21D4
ENCODING 8660
SWIDTH 625 0
DWIDTH 10 0
BBX 9 7 0 1
BITMAP
1400
2200
7F00
8080
7F00
2200
1400
ENDCHAR
STARTCHAR U+21D5
ENCODING 8661
SWIDTH 625 0
DWIDTH 10 0
BBX 7 9 1 0
BITMAP
10
28
6C
AA
28
AA
6C
28
10
ENDCHAR
STARTCHAR U+21D6
ENCODING 8662
SWIDTH 625 0
DWIDTH 10 0
BBX 7 7 1 1
BITMAP
F8
A0
D0
A8
94
0A
04
ENDCHAR
STARTCHAR U+21D7
ENCODING 8663
SWIDTH 625 0
DWIDTH 10 0
BBX 7 7 1 1
BITMAP
3E
0A
16
2A
52
A0
40
ENDCHAR
STARTCHAR U+21D8
ENCODING 8664
SWIDTH 625 0
DWIDTH 10 0
BBX 7 7 1 1
BITMAP
40
A0
52
2A
16
0A
3E
ENDCHAR
STARTCHAR U+21D9
ENCODING 8665
SWIDTH 625 0
DWIDTH 10 0
BBX 7 7 1 1
BITMAP
04
0A
94
A8
D0
A0
F8
ENDCHAR
STARTCHAR U+21DA
ENCODING 8666
SWIDTH 625 0
DWIDTH 10 0
BBX 9 7 0 1
BITMAP
1000
3F80
4000
FF80
4000
3F80
1000
ENDCHAR
STARTCHAR U+21DB
ENCODING 8667
SWIDTH 625 0
DWIDTH 10 0
BBX 9 7 0 1
BITMAP
0400
FE00
0100
FF80
0100
FE00
0400
ENDCHAR
STARTCHAR U+21DE
ENCODING 8670
SWIDTH 625 0
DWIDTH 10 0
BBX 5 9 2 0
BITMAP
20
70
A8
20
F8
20
F8
20
20
ENDCHAR
STARTCHAR U+21DF
ENCODING 8671
SWIDTH 625 0
DWIDTH 10 0
BBX 5 9 2 0
BITMAP
20
20
F8
20
F8
20
A8
70
20
ENDCHAR
STARTCHAR U+21E0
ENCODING 8672
SWIDTH 625 0
DWIDTH 10 0
BBX 9 7 0 1
BITMAP
1000
2000
4000
EA80
4000
2000
1000
ENDCHAR
STARTCHAR U+21E1
ENCODING 8673
SWIDTH 625 0
DWIDTH 10 0
BBX 7 9 1 0
BITMAP
10
38
54
82
10
00
10
00
10
ENDCHAR
STARTCHAR U+21E2
ENCODING 8674
SWIDTH 625 0
DWIDTH 10 0
BBX 9 7 0 1
BITMAP
0400
0200
0100
AB80
0100
0200
0400
ENDCHAR
STARTCHAR U+21E3
ENCODING 8675
SWIDTH 625 0
DWIDTH 10 0
BBX 7 9 1 0
BITMAP
10
00
10
00
10
82
54
38
10
ENDCHAR
STARTCHAR U+21E4
ENCODING 8676
SWIDTH 625 0
DWIDTH 10 0
BBX 9 5 0 2
BITMAP
9000
A000
FF80
A000
9000
ENDCHAR
STARTCHAR U+21E5
ENCODING 8677
SWIDTH 625 0
DWIDTH 10 0
BBX 9 5 0 2
BITMAP
0480
0280
FF80
0280
0480
ENDCHAR
STARTCHAR U+21E6
ENCODING 8678
SWIDTH 625 0
DWIDTH 10 0
BBX 9 9 0 0
BITMAP
0800
1800
2F80
4080
8080
4080
2F80
1800
0800
ENDCHAR
STARTCHAR U+21E7
ENCODING 8679
SWIDTH 625 0
DWIDTH 10 0
BBX 9 9 0 0
BITMAP
0800
1400
2200
4100
E380
2200
2200
2200
3E00
ENDCHAR
STARTCHAR U+21E8
ENCODING 8680
SWIDTH 625 0
DWIDTH 10 0
BBX 9 9 0 0
BITMAP
0800
0C00
FA00
8100
8080
8100
FA00
0C00
0800
ENDCHAR
STARTCHAR U+21E9
ENCODING 8681
SWIDTH 625 0
DWIDTH 10 0
BBX 9 9 0 0
BITMAP
3E00
2200
2200
2200
E380
4100
2200
1400
0800
ENDCHAR
STARTCHAR U+21EA
ENCODING 8682
SWIDTH 625 0
DWIDTH 10 0
BBX 9 9 0 0
BITMAP
0800
1400
2200
4100
E380
2200
3E00
0000
3E00
ENDCHAR
STARTCHAR U+21EB
ENCODING 8683
SWIDTH 625 0
DWIDTH 10 0
BBX 9 9 0 0
BITMAP
0800
1400
2200
4100
E380
2200
2200
2200
FF80
ENDCHAR
STARTCHAR U+21EC
ENCODING 8684
SWIDTH 625 0
DWIDTH 10 0
BBX 9 9 0 0
BITMAP
0800
1400
3E00
4100
E380
2200
2200
2200
FF80
ENDCHAR
STARTCHAR U+21ED
ENCODING 8685
SWIDTH 625 0
DWIDTH 10 0
BBX 9 9 0 0
BITMAP
0800
1C00
2A00
4900
EB80
2A00
2A00
2A00
FF80
ENDCHAR
STARTCHAR U+21EE
ENCODING 8686
SWIDTH 625 0
DWIDTH 10 0
BBX 9 9 0 0
BITMAP
0800
1400
2A00
5500
A280
4100
E380
2200
3E00
ENDCHAR
STARTCHAR U+21EF
ENCODING 8687
SWIDTH 625 0
DWIDTH 10 0
BBX 9 9 0 0
BITMAP
0800
1400
2A00
5500
A280
4100
E380
2200
FF80
ENDCHAR
STARTCHAR U+21F0
ENCODING 8688
SWIDTH 625 0
DWIDTH 10 0
BBX 9 9 0 0
BITMAP
8800
8C00
FA00
8100
8080
8100
FA00
8C00
8800
ENDCHAR
STARTCHAR U+21F1
ENCODING 8689
SWIDTH 625 0
DWIDTH 10 0
BBX 8 8 0 1
BITMAP
FF
80
BC
B0
A8
A4
82
81
ENDCHAR
STARTCHAR U+21F2
ENCODING 8690
SWIDTH 625 0
DWIDTH 10 0
BBX 8 8 1 0
BITMAP
81
41
25
15
0D
3D
01
FF
ENDCHAR
STARTCHAR U+21F5
ENCODING 8693
SWIDTH 625 0
DWIDTH 10 0
BBX 9 9 0 0
BITMAP
2200
2700
2A80
2200
2200
2200
AA00
7200
2200
ENDCHAR
STARTCHAR U+21F7
ENCODING 8695
SWIDTH 625 0
DWIDTH 10 0
BBX 9 5 0 2
BITMAP
2400
4400
FF80
4400
2400
ENDCHAR
STARTCHAR U+21F8
ENCODING 8696
SWIDTH 625 0
DWIDTH 10 0
BBX 9 5 0 2
BITMAP
1200
1100
FF80
1100
1200
ENDCHAR
STARTCHAR U+21F9
ENCODING 8697
SWIDTH 625 0
DWIDTH 10 0
BBX 9 5 0 2
BITMAP
2A00
4900
FF80
4900
2A00
ENDCHAR
STARTCHAR U+21FA
ENCODING 8698
SWIDTH 625 0
DWIDTH 10 0
BBX 9 5 0 2
BITMAP
2A00
4A00
FF80
4A00
2A00
ENDCHAR
STARTCHAR U+21FB
ENCODING 8699
SWIDTH 625 0
DWIDTH 10 0
BBX 9 5 0 2
BITMAP
2A00
2900
FF80
2900
2A00
ENDCHAR
STARTCHAR U+21FD
ENCODING 8701
SWIDTH 625 0
DWIDTH 10 0
BBX 9 7 0 1
BITMAP
1000
3000
5000
9F80
5000
3000
1000
ENDCHAR
STARTCHAR U+21FE
ENCODING 8702
SWIDTH 625 0
DWIDTH 10 0
BBX 9 7 0 1
BITMAP
0400
0600
0500
FC80
0500
0600
0400
ENDCHAR
STARTCHAR U+21FF
ENCODING 8703
SWIDTH 625 0
DWIDTH 10 0
BBX 9 5 0 2
BITMAP
2200
6300
BE80
6300
2200
ENDCHAR
STARTCHAR U+2200
ENCODING 8704
SWIDTH 625 0
DWIDTH 10 0
BBX 9 9 0 0
BITMAP
8080
8080
4100
7F00
2200
2200
1400
1400
0800
ENDCHAR
STARTCHAR U+2202
ENCODING 8706
SWIDTH 625 0
DWIDTH 10 0
BBX 6 9 1 0
BITMAP
38
44
04
34
4C
88
88
90
60
ENDCHAR
STARTCHAR U+2203
ENCODING 8707
SWIDTH 625 0
DWIDTH 10 0
BBX 8 9 0 0
BITMAP
FF
01
01
01
FF
01
01
01
FF
ENDCHAR
STARTCHAR U+2205
ENCODING 8709
SWIDTH 625 0
DWIDTH 10 0
BBX 7 7 1 1
BITMAP
3A
44
8A
92
A2
44
B8
ENDCHAR
STARTCHAR U+2206
ENCODING 8710
SWIDTH 625 0
DWIDTH 10 0
BBX 9 9 0 0
BITMAP
0800
1400
1400
2200
2200
4100
4100
8080
FF80
ENDCHAR
STARTCHAR U+2207
ENCODING 8711
SWIDTH 625 0
DWIDTH 10 0
BBX 9 9 0 0
BITMAP
FF80
8080
4100
4100
2200
2200
1400
1400
0800
ENDCHAR
STARTCHAR U+2208
ENCODING 8712
SWIDTH 625 0
DWIDTH 10 0
BBX 8 7 0 1
BITMAP
3F
40
80
FF
80
40
3F
ENDCHAR
STARTCHAR U+220B
ENCODING 8715
SWIDTH 625 0
DWIDTH 10 0
BBX 8 7 1 1
BITMAP
FC
02
01
FF
01
02
FC
ENDCHAR
STARTCHAR U+220F
ENCODING 8719
SWIDTH 625 0
DWIDTH 10 0
BBX 7 9 1 0
BITMAP
FE
44
44
44
44
44
44
44
44
ENDCHAR
STARTCHAR U+2210
ENCODING 8720
SWIDTH 625 0
DWIDTH 10 0
BBX 7 9 1 0
BITMAP
44
44
44
44
44
44
44
44
FE
ENDCHAR
STARTCHAR U+2211
ENCODING 8721
SWIDTH 625 0
DWIDTH 10 0
BBX 7 9 1 0
BITMAP
FE
40
20
10
08
10
20
40
FE
ENDCHAR
STARTCHAR U+221A
ENCODING 8730
SWIDTH 625 0
DWIDTH 10 0
BBX 9 9 0 0
BITMAP
0F80
0800
1000
1000
1000
2000
A000
6000
2000
ENDCHAR
STARTCHAR U+221D
ENCODING 8733
SWIDTH 625 0
DWIDTH 10 0
BBX 9 5 0 2
BITMAP
6380
9400
8800
9400
6380
ENDCHAR
STARTCHAR U+221E
ENCODING 8734
SWIDTH 625 0
DWIDTH 10 0
BBX 9 5 0 2
BITMAP
6300
9480
8880
9480
6300
ENDCHAR
STARTCHAR U+221F
ENCODING 8735
SWIDTH 625 0
DWIDTH 10 0
BBX 7 8 1 1
BITMAP
80
80
80
80
80
80
80
FE
ENDCHAR
STARTCHAR U+2220
ENCODING 8736
SWIDTH 625 0
DWIDTH 10 0
BBX 9 8 0 1
BITMAP
0100
0200
0400
0800
1000
2000
4000
FF80
ENDCHAR
STARTCHAR U+2223
ENCODING 8739
SWIDTH 625 0
DWIDTH 10 0
BBX 1 9 4 0
BITMAP
80
80
80
80
80
80
80
80
80
ENDCHAR
STARTCHAR U+2224
ENCODING 8740
SWIDTH 625 0
DWIDTH 10 0
BBX 5 9 2 0
BITMAP
20
20
28
30
20
60
A0
20
20
ENDCHAR
STARTCHAR U+2225
ENCODING 8741
SWIDTH 625 0
DWIDTH 10 0
BBX 3 9 3 0
BITMAP
A0
A0
A0
A0
A0
A0
A0
A0
A0
ENDCHAR
STARTCHAR U+2226
ENCODING 8742
SWIDTH 625 0
DWIDTH 10 0
BBX 5 9 2 0
BITMAP
50
50
50
58
70
D0
50
50
50
ENDCHAR
STARTCHAR U+2227
ENCODING 8743
SWIDTH 625 0
DWIDTH 10 0
BBX 9 9 0 0
BITMAP
0800
0800
1400
1400
2200
2200
4100
4100
8080
ENDCHAR
STARTCHAR U+2228
ENCODING 8744
SWIDTH 625 0
DWIDTH 10 0
BBX 9 9 0 0
BITMAP
8080
4100
4100
2200
2200
1400
1400
0800
0800
ENDCHAR
STARTCHAR U+2229
ENCODING 8745
SWIDTH 625 0
DWIDTH 10 0
BBX 7 8 1 1
BITMAP
38
44
82
82
82
82
82
82
ENDCHAR
STARTCHAR U+222A
ENCODING 8746
SWIDTH 625 0
DWIDTH 10 0
BBX 7 8 1 0
BITMAP
82
82
82
82
82
82
44
38
ENDCHAR
STARTCHAR U+222B
ENCODING 8747
SWIDTH 625 0
DWIDTH 10 0
BBX 5 9 2 0
BITMAP
10
28
20
20
20
20
20
A0
40
ENDCHAR
STARTCHAR U+222C
ENCODING 8748
SWIDTH 625 0
DWIDTH 10 0
BBX 8 9 0 0
BITMAP
12
2D
24
24
24
24
24
B4
48
ENDCHAR
STARTCHAR U+222D
ENCODING 8749
SWIDTH 625 0
DWIDTH 10 0
BBX 9 9 0 0
BITMAP
1500
2A80
2A00
2A00
2A00
2A00
2A00
AA00
5400
ENDCHAR
STARTCHAR U+222E
ENCODING 8750
SWIDTH 625 0
DWIDTH 10 0
BBX 5 9 2 0
BITMAP
10
28
20
70
A8
70
20
A0
40
ENDCHAR
STARTCHAR U+222F
ENCODING 8751
SWIDTH 625 0
DWIDTH 10 0
BBX 8 9 0 0
BITMAP
12
2D
24
7E
A5
7E
24
B4
48
ENDCHAR
STARTCHAR U+2230
ENCODING 8752
SWIDTH 625 0
DWIDTH 10 0
BBX 9 9 0 0
BITMAP
1500
2A80
2A00
7F00
AA80
7F00
2A00
AA00
5400
ENDCHAR
STARTCHAR U+2234
ENCODING 8756
SWIDTH 625 0
DWIDTH 10 0
BBX 8 8 0 1
BITMAP
18
18
00
00
00
00
C3
C3
ENDCHAR
STARTCHAR U+2235
ENCODING 8757
SWIDTH 625 0
DWIDTH 10 0
BBX 8 8 0 0
BITMAP
C3
C3
00
00
00
00
18
18
ENDCHAR
STARTCHAR U+2236
ENCODING 8758
SWIDTH 625 0
DWIDTH 10 0
BBX 2 7 3 1
BITMAP
C0
C0
00
00
00
C0
C0
ENDCHAR
STARTCHAR U+2237
ENCODING 8759
SWIDTH 625 0
DWIDTH 10 0
BBX 7 7 1 1
BITMAP
C6
C6
00
00
00
C6
C6
ENDCHAR
STARTCHAR U+223D
ENCODING 8765
SWIDTH 625 0
DWIDTH 10 0
BBX 9 5 0 2
BITMAP
6300
8480
8880
9080
6300
ENDCHAR
STARTCHAR U+2252
ENCODING 8786
SWIDTH 625 0
DWIDTH 10 0
BBX 9 8 0 1
BITMAP
6000
0000
FF80
0000
0000
FF80
0000
0300
ENDCHAR
STARTCHAR U+2260
ENCODING 8800
SWIDTH 625 0
DWIDTH 10 0
BBX 7 7 1 1
BITMAP
08
08
FE
10
FE
20
20
ENDCHAR
STARTCHAR U+2261
ENCODING 8801
SWIDTH 625 0
DWIDTH 10 0
BBX 9 7 0 1
BITMAP
FF80
0000
0000
FF80
0000
0000
FF80
ENDCHAR
STARTCHAR U+2264
ENCODING 8804
SWIDTH 625 0
DWIDTH 10 0
BBX 9 9 0 0
BITMAP
0180
0E00
3000
C000
3000
0E00
0180
0000
FF80
ENDCHAR
STARTCHAR U+2265
ENCODING 8805
SWIDTH 625 0
DWIDTH 10 0
BBX 9 9 0 0
BITMAP
C000
3800
0600
0180
0600
3800
C000
0000
FF80
ENDCHAR
STARTCHAR U+2266
ENCODING 8806
SWIDTH 625 0
DWIDTH 10 0
BBX 9 9 0 0
BITMAP
0180
0E00
3000
E000
1E00
0180
FF80
0000
FF80
ENDCHAR
STARTCHAR U+2267
ENCODING 8807
SWIDTH 625 0
DWIDTH 10 0
BBX 9 9 0 0
BITMAP
C000
3800
0600
0380
3C00
C000
FF80
0000
FF80
ENDCHAR
STARTCHAR U+226A
ENCODING 8810
SWIDTH 625 0
DWIDTH 10 0
BBX 8 9 0 0
BITMAP
09
12
24
48
90
48
24
12
09
ENDCHAR
STARTCHAR U+226B
ENCODING 8811
SWIDTH 625 0
DWIDTH 10 0
BBX 8 9 1 0
BITMAP
90
48
24
12
09
12
24
48
90
ENDCHAR
STARTCHAR U+2282
ENCODING 8834
SWIDTH 625 0
DWIDTH 10 0
BBX 8 7 0 1
BITMAP
3F
40
80
80
80
40
3F
ENDCHAR
STARTCHAR U+2283
ENCODING 8835
SWIDTH 625 0
DWIDTH 10 0
BBX 8 7 1 1
BITMAP
FC
02
01
01
01
02
FC
ENDCHAR
STARTCHAR U+2286
ENCODING 8838
SWIDTH 625 0
DWIDTH 10 0
BBX 8 8 0 1
BITMAP
3F
40
80
80
40
3F
00
FF
ENDCHAR
STARTCHAR U+2287
ENCODING 8839
SWIDTH 625 0
DWIDTH 10 0
BBX 8 8 1 1
BITMAP
FC
02
01
01
02
FC
00
FF
ENDCHAR
STARTCHAR U+22A4
ENCODING 8868
SWIDTH 625 0
DWIDTH 10 0
BBX 9 8 0 0
BITMAP
FF80
0800
0800
0800
0800
0800
0800
0800
ENDCHAR
STARTCHAR U+22A5
ENCODING 8869
SWIDTH 625 0
DWIDTH 10 0
BBX 9 8 0 1
BITMAP
0800
0800
0800
0800
0800
0800
0800
FF80
ENDCHAR
STARTCHAR U+22BF
ENCODING 8895
SWIDTH 625 0
DWIDTH 10 0
BBX 8 8 0 1
BITMAP
01
03
05
09
11
21
41
FF
ENDCHAR
STARTCHAR U+2460
ENCODING 9312
SWIDTH 625 0
DWIDTH 10 0
BBX 9 9 0 0
BITMAP
3E00
4100
9880
8880
8880
8880
8880
4100
3E00
ENDCHAR
STARTCHAR U+2461
ENCODING 9313
SWIDTH 625 0
DWIDTH 10 0
BBX 9 9 0 0
BITMAP
3E00
4100
9880
8480
8880
9080
9C80
4100
3E00
ENDCHAR
STARTCHAR U+2462
ENCODING 9314
SWIDTH 625 0
DWIDTH 10 0
BBX 9 9 0 0
BITMAP
3E00
4100
9880
8480
9880
8480
9880
4100
3E00
ENDCHAR
STARTCHAR U+2463
ENCODING 9315
SWIDTH 625 0
DWIDTH 10 0
BBX 9 9 0 0
BITMAP
3E00
4100
8C80
9480
9480
9C80
8480
4100
3E00
ENDCHAR
STARTCHAR U+2464
ENCODING 9316
SWIDTH 625 0
DWIDTH 10 0
BBX 9 9 0 0
BITMAP
3E00
4100
8C80
9080
9C80
8480
9880
4100
3E00
ENDCHAR
STARTCHAR U+2465
ENCODING 9317
SWIDTH 625 0
DWIDTH 10 0
BBX 9 9 0 0
BITMAP
3E00
4100
8C80
9080
9C80
9480
9880
4100
3E00
ENDCHAR
STARTCHAR U+2466
ENCODING 9318
SWIDTH 625 0
DWIDTH 10 0
BBX 9 9 0 0
BITMAP
3E00
4100
9C80
8480
8880
8880
8880
4100
3E00
ENDCHAR
STARTCHAR U+2467
ENCODING 9319
SWIDTH 625 0
DWIDTH 10 0
BBX 9 9 0 0
BITMAP
3E00
4100
8C80
9480
9C80
9480
9880
4100
3E00
ENDCHAR
STARTCHAR U+2468
ENCODING 9320
SWIDTH 625 0
DWIDTH 10 0
BBX 9 9 0 0
BITMAP
3E00
4100
8C80
9480
9C80
8480
9880
4100
3E00
ENDCHAR
STARTCHAR U+2469
ENCODING 9321
SWIDTH 625 0
DWIDTH 10 0
BBX 9 9 0 0
BITMAP
3E00
4100
A680
AA80
AA80
AA80
AC80
4100
3E00
ENDCHAR
STARTCHAR U+246A
ENCODING 9322
SWIDTH 625 0
DWIDTH 10 0
BBX 9 9 0 0
BITMAP
3E00
4100
9480
9480
9480
9480
9480
4100
3E00
ENDCHAR
STARTCHAR U+246B
ENCODING 9323
SWIDTH 625 0
DWIDTH 10 0
BBX 9 9 0 0
BITMAP
3E00
4100
AC80
A280
A480
A880
AE80
4100
3E00
ENDCHAR
STARTCHAR U+246C
ENCODING 9324
SWIDTH 625 0
DWIDTH 10 0
BBX 9 9 0 0
BITMAP
3E00
4100
AC80
A280
AC80
A280
AC80
4100
3E00
ENDCHAR
STARTCHAR U+246D
ENCODING 9325
SWIDTH 625 0
DWIDTH 10 0
BBX 9 9 0 0
BITMAP
3E00
4100
A680
AA80
AA80
AE80
A280
4100
3E00
ENDCHAR
STARTCHAR U+246E
ENCODING 9326
SWIDTH 625 0
DWIDTH 10 0
BBX 9 9 0 0
BITMAP
3E00
4100
AE80
A880
AE80
A280
AC80
4100
3E00
ENDCHAR
STARTCHAR U+246F
ENCODING 9327
SWIDTH 625 0
DWIDTH 10 0
BBX 9 9 0 0
BITMAP
3E00
4100
A680
A880
AE80
AA80
AC80
4100
3E00
ENDCHAR
STARTCHAR U+2470
ENCODING 9328
SWIDTH 625 0
DWIDTH 10 0
BBX 9 9 0 0
BITMAP
3E00
4100
AE80
A280
A480
A480
A480
4100
3E00
ENDCHAR
STARTCHAR U+2471
ENCODING 9329
SWIDTH 625 0
DWIDTH 10 0
BBX 9 9 0 0
BITMAP
3E00
4100
A680
AA80
AE80
AA80
AC80
4100
3E00
ENDCHAR
STARTCHAR U+2472
ENCODING 9330
SWIDTH 625 0
DWIDTH 10 0
BBX 9 9 0 0
BITMAP
3E00
4100
A680
AA80
AE80
A280
AC80
4100
3E00
ENDCHAR
STARTCHAR U+2473
ENCODING 9331
SWIDTH 625 0
DWIDTH 10 0
BBX 9 9 0 0
BITMAP
3E00
4100
B680
8A80
9A80
AA80
BC80
4100
3E00
ENDCHAR
STARTCHAR U+24B6
ENCODING 9398
SWIDTH 625 0
DWIDTH 10 0
BBX 9 9 0 0
BITMAP
3E00
4100
8880
9480
9480
BE80
A280
4100
3E00
ENDCHAR
STARTCHAR U+24B7
ENCODING 9399
SWIDTH 625 0
DWIDTH 10 0
BBX 9 9 0 0
BITMAP
3E00
4100
BC80
A280
BC80
A280
BC80
4100
3E00
ENDCHAR
STARTCHAR U+24B8
ENCODING 9400
SWIDTH 625 0
DWIDTH 10 0
BBX 9 9 0 0
BITMAP
3E00
4100
9C80
A280
A080
A280
9C80
4100
3E00
ENDCHAR
STARTCHAR U+24B9
ENCODING 9401
SWIDTH 625 0
DWIDTH 10 0
BBX 9 9 0 0
BITMAP
3E00
4100
BC80
A280
A280
A280
BC80
4100
3E00
ENDCHAR
STARTCHAR U+24BA
ENCODING 9402
SWIDTH 625 0
DWIDTH 10 0
BBX 9 9 0 0
BITMAP
3E00
4100
BE80
A080
BC80
A080
BE80
4100
3E00
ENDCHAR
STARTCHAR U+24BB
ENCODING 9403
SWIDTH 625 0
DWIDTH 10 0
BBX 9 9 0 0
BITMAP
3E00
4100
BE80
A080
BC80
A080
A080
4100
3E00
ENDCHAR
STARTCHAR U+24BC
ENCODING 9404
SWIDTH 625 0
DWIDTH 10 0
BBX 9 9 0 0
BITMAP
3E00
4100
9E80
A080
AE80
A280
9C80
4100
3E00
ENDCHAR
STARTCHAR U+24BD
ENCODING 9405
SWIDTH 625 0
DWIDTH 10 0
BBX 9 9 0 0
BITMAP
3E00
4100
A280
A280
BE80
A280
A280
4100
3E00
ENDCHAR
STARTCHAR U+24BE
ENCODING 9406
SWIDTH 625 0
DWIDTH 10 0
BBX 9 9 0 0
BITMAP
3E00
4100
9C80
8880
8880
8880
9C80
4100
3E00
ENDCHAR
STARTCHAR U+24BF
ENCODING 9407
SWIDTH 625 0
DWIDTH 10 0
BBX 9 9 0 0
BITMAP
3E00
4100
8280
8280
8280
A280
9C80
4100
3E00
ENDCHAR
STARTCHAR U+24C0
ENCODING 9408
SWIDTH 625 0
DWIDTH 10 0
BBX 9 9 0 0
BITMAP
3E00
4100
A280
A480
B880
A480
A280
4100
3E00
ENDCHAR
STARTCHAR U+24C1
ENCODING 9409
SWIDTH 625 0
DWIDTH 10 0
BBX 9 9 0 0
BITMAP
3E00
4100
A080
A080
A080
A080
BE80
4100
3E00
ENDCHAR
STARTCHAR U+24C2
ENCODING 9410
SWIDTH 625 0
DWIDTH 10 0
BBX 9 9 0 0
BITMAP
3E00
4100
A280
B680
AA80
AA80
A280
4100
3E00
ENDCHAR
STARTCHAR U+24C3
ENCODING 9411
SWIDTH 625 0
DWIDTH 10 0
BBX 9 9 0 0
BITMAP
3E00
4100
A280
B280
AA80
A680
A280
4100
3E00
ENDCHAR
STARTCHAR U+24C4
ENCODING 9412
SWIDTH 625 0
DWIDTH 10 0
BBX 9 9 0 0
BITMAP
3E00
4100
9C80
A280
A280
A280
9C80
4100
3E00
ENDCHAR
STARTCHAR U+24C5
ENCODING 9413
SWIDTH 625 0
DWIDTH 10 0
BBX 9 9 0 0
BITMAP
3E00
4100
BC80
A280
BC80
A080
A080
4100
3E00
ENDCHAR
STARTCHAR U+24C6
ENCODING 9414
SWIDTH 625 0
DWIDTH 10 0
BBX 9 9 0 0
BITMAP
3E00
4100
9C80
A280
A280
AA80
9C80
4300
3E00
ENDCHAR
STARTCHAR U+24C7
ENCODING 9415
SWIDTH 625 0
DWIDTH 10 0
BBX 9 9 0 0
BITMAP
3E00
4100
BC80
A280
BC80
A480
A280
4100
3E00
ENDCHAR
STARTCHAR U+24C8
ENCODING 9416
SWIDTH 625 0
DWIDTH 10 0
BBX 9 9 0 0
BITMAP
3E00
4100
9E80
A080
9C80
8280
BC80
4100
3E00
ENDCHAR
STARTCHAR U+24C9
ENCODING 9417
SWIDTH 625 0
DWIDTH 10 0
BBX 9 9 0 0
BITMAP
3E00
4100
BE80
8880
8880
8880
8880
4100
3E00
ENDCHAR
STARTCHAR U+24CA
ENCODING 9418
SWIDTH 625 0
DWIDTH 10 0
BBX 9 9 0 0
BITMAP
3E00
4100
A280
A280
A280
A280
9C80
4100
3E00
ENDCHAR
STARTCHAR U+24CB
ENCODING 9419
SWIDTH 625 0
DWIDTH 10 0
BBX 9 9 0 0
BITMAP
3E00
4100
A280
A280
9480
9480
8880
4100
3E00
ENDCHAR
STARTCHAR U+24CC
ENCODING 9420
SWIDTH 625 0
DWIDTH 10 0
BBX 9 9 0 0
BITMAP
3E00
4100
A280
AA80
AA80
AA80
9480
4100
3E00
ENDCHAR
STARTCHAR U+24CD
ENCODING 9421
SWIDTH 625 0
DWIDTH 10 0
BBX 9 9 0 0
BITMAP
3E00
4100
A280
9480
8880
9480
A280
4100
3E00
ENDCHAR
STARTCHAR U+24CE
ENCODING 9422
SWIDTH 625 0
DWIDTH 10 0
BBX 9 9 0 0
BITMAP
3E00
4100
A280
9480
8880
8880
8880
4100
3E00
ENDCHAR
STARTCHAR U+24CF
ENCODING 9423
SWIDTH 625 0
DWIDTH 10 0
BBX 9 9 0 0
BITMAP
3E00
4100
BE80
8480
8880
9080
BE80
4100
3E00
ENDCHAR
STARTCHAR U+24EA
ENCODING 9450
SWIDTH 625 0
DWIDTH 10 0
BBX 9 9 0 0
BITMAP
3E00
4100
8C80
9480
9480
9480
9880
4100
3E00
ENDCHAR
STARTCHAR U+24EB
ENCODING 9451
SWIDTH 625 0
DWIDTH 10 0
BBX 9 9 0 0
BITMAP
3E00
7F00
EB80
EB80
EB80
EB80
EB80
7F00
3E00
ENDCHAR
STARTCHAR U+24EC
ENCODING 9452
SWIDTH 625 0
DWIDTH 10 0
BBX 9 9 0 0
BITMAP
3E00
7F00
D380
DD80
DB80
D780
D180
7F00
3E00
ENDCHAR
STARTCHAR U+24ED
ENCODING 9453
SWIDTH 625 0
DWIDTH 10 0
BBX 9 9 0 0
BITMAP
3E00
7F00
D380
DD80
D380
DD80
D380
7F00
3E00
ENDCHAR
STARTCHAR U+24EE
ENCODING 9454
SWIDTH 625 0
DWIDTH 10 0
BBX 9 9 0 0
BITMAP
3E00
7F00
D980
D580
D580
D180
DD80
7F00
3E00
ENDCHAR
STARTCHAR U+24EF
ENCODING 9455
SWIDTH 625 0
DWIDTH 10 0
BBX 9 9 0 0
BITMAP
3E00
7F00
D180
D780
D180
DD80
D380
7F00
3E00
ENDCHAR
STARTCHAR U+24F0
ENCODING 9456
SWIDTH 625 0
DWIDTH 10 0
BBX 9 9 0 0
BITMAP
3E00
7F00
D980
D780
D180
D580
D380
7F00
3E00
ENDCHAR
STARTCHAR U+24F1
ENCODING 9457
SWIDTH 625 0
DWIDTH 10 0
BBX 9 9 0 0
BITMAP
3E00
7F00
D180
DD80
DB80
DB80
DB80
7F00
3E00
ENDCHAR
STARTCHAR U+24F2
ENCODING 9458
SWIDTH 625 0
DWIDTH 10 0
BBX 9 9 0 0
BITMAP
3E00
7F00
D980
D580
D180
D580
D380
7F00
3E00
ENDCHAR
STARTCHAR U+24F3
ENCODING 9459
SWIDTH 625 0
DWIDTH 10 0
BBX 9 9 0 0
BITMAP
3E00
7F00
D980
D580
D180
DD80
D380
7F00
3E00
ENDCHAR
STARTCHAR U+24F4
ENCODING 9460
SWIDTH 625 0
DWIDTH 10 0
BBX 9 9 0 0
BITMAP
3E00
7F00
9C80
EA80
DA80
BA80
8980
7F00
3E00
ENDCHAR
STARTCHAR U+2500
ENCODING 9472
SWIDTH 625 0
DWIDTH 10 0
BBX 10 1 0 4
BITMAP
FFC0
ENDCHAR
STARTCHAR U+2501
ENCODING 9473
SWIDTH 625 0
DWIDTH 10 0
BBX 10 2 0 4
BITMAP
FFC0
FFC0
ENDCHAR
STARTCHAR U+2502
ENCODING 9474
SWIDTH 625 0
DWIDTH 10 0
BBX 1 10 4 0
BITMAP
80
80
80
80
80
80
80
80
80
80
ENDCHAR
STARTCHAR U+2503
ENCODING 9475
SWIDTH 625 0
DWIDTH 10 0
BBX 2 10 4 0
BITMAP
C0
C0
C0
C0
C0
C0
C0
C0
C0
C0
ENDCHAR
STARTCHAR U+2504
ENCODING 9476
SWIDTH 625 0
DWIDTH 10 0
BBX 9 1 0 4
BITMAP
DD80
ENDCHAR
STARTCHAR U+2505
ENCODING 9477
SWIDTH 625 0
DWIDTH 10 0
BBX 9 2 0 4
BITMAP
DD80
DD80
ENDCHAR
STARTCHAR U+2506
ENCODING 9478
SWIDTH 625 0
DWIDTH 10 0
BBX 1 9 4 0
BITMAP
80
80
00
80
80
80
00
80
80
ENDCHAR
STARTCHAR U+2507
ENCODING 9479
SWIDTH 625 0
DWIDTH 10 0
BBX 2 9 4 0
BITMAP
C0
C0
00
C0
C0
C0
00
C0
C0
ENDCHAR
STARTCHAR U+2508
ENCODING 9480
SWIDTH 625 0
DWIDTH 10 0
BBX 9 1 0 4
BITMAP
D680
ENDCHAR
STARTCHAR U+2509
ENCODING 9481
SWIDTH 625 0
DWIDTH 10 0
BBX 9 2 0 4
BITMAP
D680
D680
ENDCHAR
STARTCHAR U+250A
ENCODING 9482
SWIDTH 625 0
DWIDTH 10 0
BBX 1 9 4 0
BITMAP
80
80
00
80
00
80
80
00
80
ENDCHAR
STARTCHAR U+250B
ENCODING 9483
SWIDTH 625 0
DWIDTH 10 0
BBX 2 9 4 0
BITMAP
C0
C0
00
C0
00
C0
C0
00
C0
ENDCHAR
STARTCHAR U+250C
ENCODING 9484
SWIDTH 625 0
DWIDTH 10 0
BBX 6 5 4 0
BITMAP
FC
80
80
80
80
ENDCHAR
STARTCHAR U+250D
ENCODING 9485
SWIDTH 625 0
DWIDTH 10 0
BBX 6 6 4 0
BITMAP
FC
FC
80
80
80
80
ENDCHAR
STARTCHAR U+250E
ENCODING 9486
SWIDTH 625 0
DWIDTH 10 0
BBX 6 5 4 0
BITMAP
FC
C0
C0
C0
C0
ENDCHAR
STARTCHAR U+250F
ENCODING 9487
SWIDTH 625 0
DWIDTH 10 0
BBX 6 6 4 0
BITMAP
FC
FC
C0
C0
C0
C0
ENDCHAR
STARTCHAR U+2510
ENCODING 9488
SWIDTH 625 0
DWIDTH 10 0
BBX 5 5 0 0
BITMAP
F8
08
08
08
08
ENDCHAR
STARTCHAR U+2511
ENCODING 9489
SWIDTH 625 0
DWIDTH 10 0
BBX 5 6 0 0
BITMAP
F8
F8
08
08
08
08
ENDCHAR
STARTCHAR U+2512
ENCODING 9490
SWIDTH 625 0
DWIDTH 10 0
BBX 6 5 0 0
BITMAP
FC
0C
0C
0C
0C
ENDCHAR
STARTCHAR U+2513
ENCODING 9491
SWIDTH 625 0
DWIDTH 10 0
BBX 6 6 0 0
BITMAP
FC
FC
0C
0C
0C
0C
ENDCHAR
STARTCHAR U+2514
ENCODING 9492
SWIDTH 625 0
DWIDTH 10 0
BBX 6 6 4 4
BITMAP
80
80
80
80
80
FC
ENDCHAR
STARTCHAR U+2515
ENCODING 9493
SWIDTH 625 0
DWIDTH 10 0
BBX 6 6 4 4
BITMAP
80
80
80
80
FC
FC
ENDCHAR
STARTCHAR U+2516
ENCODING 9494
SWIDTH 625 0
DWIDTH 10 0
BBX 6 6 4 4
BITMAP
C0
C0
C0
C0
C0
FC
ENDCHAR
STARTCHAR U+2517
ENCODING 9495
SWIDTH 625 0
DWIDTH 10 0
BBX 6 6 4 4
BITMAP
C0
C0
C0
C0
FC
FC
ENDCHAR
STARTCHAR U+2518
ENCODING 9496
SWIDTH 625 0
DWIDTH 10 0
BBX 5 6 0 4
BITMAP
08
08
08
08
08
F8
ENDCHAR
STARTCHAR U+2519
ENCODING 9497
SWIDTH 625 0
DWIDTH 10 0
BBX 5 6 0 4
BITMAP
08
08
08
08
F8
F8
ENDCHAR
STARTCHAR U+251A
ENCODING 9498
SWIDTH 625 0
DWIDTH 10 0
BBX 6 6 0 4
BITMAP
0C
0C
0C
0C
0C
FC
ENDCHAR
STARTCHAR U+251B
ENCODING 9499
SWIDTH 625 0
DWIDTH 10 0
BBX 6 6 0 4
BITMAP
0C
0C
0C
0C
FC
FC
ENDCHAR
STARTCHAR U+251C
ENCODING 9500
SWIDTH 625 0
DWIDTH 10 0
BBX 6 10 4 0
BITMAP
80
80
80
80
80
FC
80
80
80
80
ENDCHAR
STARTCHAR U+251D
ENCODING 9501
SWIDTH 625 0
DWIDTH 10 0
BBX 6 10 4 0
BITMAP
80
80
80
80
FC
FC
80
80
80
80
ENDCHAR
STARTCHAR U+251E
ENCODING 9502
SWIDTH 625 0
DWIDTH 10 0
BBX 6 10 4 0
BITMAP
C0
C0
C0
C0
C0
FC
80
80
80
80
ENDCHAR
STARTCHAR U+251F
ENCODING 9503
SWIDTH 625 0
DWIDTH 10 0
BBX 6 10 4 0
BITMAP
80
80
80
80
80
FC
C0
C0
C0
C0
ENDCHAR
STARTCHAR U+2520
ENCODING 9504
SWIDTH 625 0
DWIDTH 10 0
BBX 6 10 4 0
BITMAP
C0
C0
C0
C0
C0
FC
C0
C0
C0
C0
ENDCHAR
STARTCHAR U+2521
ENCODING 9505
SWIDTH 625 0
DWIDTH 10 0
BBX 6 10 4 0
BITMAP
C0
C0
C0
C0
FC
FC
80
80
80
80
ENDCHAR
STARTCHAR U+2522
ENCODING 9506
SWIDTH 625 0
DWIDTH 10 0
BBX 6 10 4 0
BITMAP
80
80
80
80
FC
FC
C0
C0
C0
C0
ENDCHAR
STARTCHAR U+2523
ENCODING 9507
SWIDTH 625 0
DWIDTH 10 0
BBX 6 10 4 0
BITMAP
C0
C0
C0
C0
FC
FC
C0
C0
C0
C0
ENDCHAR
STARTCHAR U+2524
ENCODING 9508
SWIDTH 625 0
DWIDTH 10 0
BBX 5 10 0 0
BITMAP
08
08
08
08
08
F8
08
08
08
08
ENDCHAR
STARTCHAR U+2525
ENCODING 9509
SWIDTH 625 0
DWIDTH 10 0
BBX 5 10 0 0
BITMAP
08
08
08
08
F8
F8
08
08
08
08
ENDCHAR
STARTCHAR U+2526
ENCODING 9510
SWIDTH 625 0
DWIDTH 10 0
BBX 6 10 0 0
BITMAP
0C
0C
0C
0C
0C
FC
08
08
08
08
ENDCHAR
STARTCHAR U+2527
ENCODING 9511
SWIDTH 625 0
DWIDTH 10 0
BBX 6 10 0 0
BITMAP
08
08
08
08
08
FC
0C
0C
0C
0C
ENDCHAR
STARTCHAR U+2528
ENCODING 9512
SWIDTH 625 0
DWIDTH 10 0
BBX 6 10 0 0
BITMAP
0C
0C
0C
0C
0C
FC
0C
0C
0C
0C
ENDCHAR
STARTCHAR U+2529
ENCODING 9513
SWIDTH 625 0
DWIDTH 10 0
BBX 6 10 0 0
BITMAP
0C
0C
0C
0C
FC
FC
08
08
08
08
ENDCHAR
STARTCHAR U+252A
ENCODING 9514
SWIDTH 625 0
DWIDTH 10 0
BBX 6 10 0 0
BITMAP
08
08
08
08
FC
FC
0C
0C
0C
0C
ENDCHAR
STARTCHAR U+252B
ENCODING 9515
SWIDTH 625 0
DWIDTH 10 0
BBX 6 10 0 0
BITMAP
0C
0C
0C
0C
FC
FC
0C
0C
0C
0C
ENDCHAR
STARTCHAR U+252C
ENCODING 9516
SWIDTH 625 0
DWIDTH 10 0
BBX 10 5 0 0
BITMAP
FFC0
0800
0800
0800
0800
ENDCHAR
STARTCHAR U+252D
ENCODING 9517
SWIDTH 625 0
DWIDTH 10 0
BBX 10 6 0 0
BITMAP
F800
FFC0
0800
0800
0800
0800
ENDCHAR
STARTCHAR U+252E
ENCODING 9518
SWIDTH 625 0
DWIDTH 10 0
BBX 10 6 0 0
BITMAP
0FC0
FFC0
0800
0800
0800
0800
ENDCHAR
STARTCHAR U+252F
ENCODING 9519
SWIDTH 625 0
DWIDTH 10 0
BBX 10 6 0 0
BITMAP
FFC0
FFC0
0800
0800
0800
0800
ENDCHAR
STARTCHAR U+2530
ENCODING 9520
SWIDTH 625 0
DWIDTH 10 0
BBX 10 5 0 0
BITMAP
FFC0
0C00
0C00
0C00
0C00
ENDCHAR
STARTCHAR U+2531
ENCODING 9521
SWIDTH 625 0
DWIDTH 10 0
BBX 10 6 0 0
BITMAP
FC00
FFC0
0C00
0C00
0C00
0C00
ENDCHAR
STARTCHAR U+2532
ENCODING 9522
SWIDTH 625 0
DWIDTH 10 0
BBX 10 6 0 0
BITMAP
0FC0
FFC0
0C00
0C00
0C00
0C00
ENDCHAR
STARTCHAR U+2533
ENCODING 9523
SWIDTH 625 0
DWIDTH 10 0
BBX 10 6 0 0
BITMAP
FFC0
FFC0
0C00
0C00
0C00
0C00
ENDCHAR
STARTCHAR U+2534
ENCODING 9524
SWIDTH 625 0
DWIDTH 10 0
BBX 10 6 0 4
BITMAP
0800
0800
0800
0800
0800
FFC0
ENDCHAR
STARTCHAR U+2535
ENCODING 9525
SWIDTH 625 0
DWIDTH 10 0
BBX 10 6 0 4
BITMAP
0800
0800
0800
0800
F800
FFC0
ENDCHAR
STARTCHAR U+2536
ENCODING 9526
SWIDTH 625 0
DWIDTH 10 0
BBX 10 6 0 4
BITMAP
0800
0800
0800
0800
0FC0
FFC0
ENDCHAR
STARTCHAR U+2537
ENCODING 9527
SWIDTH 625 0
DWIDTH 10 0
BBX 10 6 0 4
BITMAP
0800
0800
0800
0800
FFC0
FFC0
ENDCHAR
STARTCHAR U+2538
ENCODING 9528
SWIDTH 625 0
DWIDTH 10 0
BBX 10 6 0 4
BITMAP
0C00
0C00
0C00
0C00
0C00
FFC0
ENDCHAR
STARTCHAR U+2539
ENCODING 9529
SWIDTH 625 0
DWIDTH 10 0
BBX 10 6 0 4
BITMAP
0C00
0C00
0C00
0C00
FC00
FFC0
ENDCHAR
STARTCHAR U+253A
ENCODING 9530
SWIDTH 625 0
DWIDTH 10 0
BBX 10 6 0 4
BITMAP
0C00
0C00
0C00
0C00
0FC0
FFC0
ENDCHAR
STARTCHAR U+253B
ENCODING 9531
SWIDTH 625 0
DWIDTH 10 0
BBX 10 6 0 4
BITMAP
0C00
0C00
0C00
0C00
FFC0
FFC0
ENDCHAR
STARTCHAR U+253C
ENCODING 9532
SWIDTH 625 0
DWIDTH 10 0
BBX 10 10 0 0
BITMAP
0800
0800
0800
0800
0800
FFC0
0800
0800
0800
0800
ENDCHAR
STARTCHAR U+253D
ENCODING 9533
SWIDTH 625 0
DWIDTH 10 0
BBX 10 10 0 0
BITMAP
0800
0800
0800
0800
F800
FFC0
0800
0800
0800
0800
ENDCHAR
STARTCHAR U+253E
ENCODING 9534
SWIDTH 625 0
DWIDTH 10 0
BBX 10 10 0 0
BITMAP
0800
0800
0800
0800
0FC0
FFC0
0800
0800
0800
0800
ENDCHAR
STARTCHAR U+253F
ENCODING 9535
SWIDTH 625 0
DWIDTH 10 0
BBX 10 10 0 0
BITMAP
0800
0800
0800
0800
FFC0
FFC0
0800
0800
0800
0800
ENDCHAR
STARTCHAR U+2540
ENCODING 9536
SWIDTH 625 0
DWIDTH 10 0
BBX 10 10 0 0
BITMAP
0C00
0C00
0C00
0C00
0C00
FFC0
0800
0800
0800
0800
ENDCHAR
STARTCHAR U+2541
ENCODING 9537
SWIDTH 625 0
DWIDTH 10 0
BBX 10 10 0 0
BITMAP
0800
0800
0800
0800
0800
FFC0
0C00
0C00
0C00
0C00
ENDCHAR
STARTCHAR U+2542
ENCODING 9538
SWIDTH 625 0
DWIDTH 10 0
BBX 10 10 0 0
BITMAP
0C00
0C00
0C00
0C00
0C00
FFC0
0C00
0C00
0C00
0C00
ENDCHAR
STARTCHAR U+2543
ENCODING 9539
SWIDTH 625 0
DWIDTH 10 0
BBX 10 10 0 0
BITMAP
0C00
0C00
0C00
0C00
FC00
FFC0
0800
0800
0800
0800
ENDCHAR
STARTCHAR U+2544
ENCODING 9540
SWIDTH 625 0
DWIDTH 10 0
BBX 10 10 0 0
BITMAP
0C00
0C00
0C00
0C00
0FC0
FFC0
0800
0800
0800
0800
ENDCHAR
STARTCHAR U+2545
ENCODING 9541
SWIDTH 625 0
DWIDTH 10 0
BBX 10 10 0 0
BITMAP
0800
0800
0800
0800
FC00
FFC0
0C00
0C00
0C00
0C00
ENDCHAR
STARTCHAR U+2546
ENCODING 9542
SWIDTH 625 0
DWIDTH 10 0
BBX 10 10 0 0
BITMAP
0800
0800
0800
0800
0FC0
FFC0
0C00
0C00
0C00
0C00
ENDCHAR
STARTCHAR U+2547
ENCODING 9543
SWIDTH 625 0
DWIDTH 10 0
BBX 10 10 0 0
BITMAP
0C00
0C00
0C00
0C00
FFC0
FFC0
0800
0800
0800
0800
ENDCHAR
STARTCHAR U+2548
ENCODING 9544
SWIDTH 625 0
DWIDTH 10 0
BBX 10 10 0 0
BITMAP
0800
0800
0800
0800
FFC0
FFC0
0C00
0C00
0C00
0C00
ENDCHAR
STARTCHAR U+2549
ENCODING 9545
SWIDTH 625 0
DWIDTH 10 0
BBX 10 10 0 0
BITMAP
0C00
0C00
0C00
0C00
FC00
FFC0
0C00
0C00
0C00
0C00
ENDCHAR
STARTCHAR U+254A
ENCODING 9546
SWIDTH 625 0
DWIDTH 10 0
BBX 10 10 0 0
BITMAP
0C00
0C00
0C00
0C00
0FC0
FFC0
0C00
0C00
0C00
0C00
ENDCHAR
STARTCHAR U+254B
ENCODING 9547
SWIDTH 625 0
DWIDTH 10 0
BBX 10 10 0 0
BITMAP
0C00
0C00
0C00
0C00
FFC0
FFC0
0C00
0C00
0C00
0C00
ENDCHAR
STARTCHAR U+254C
ENCODING 9548
SWIDTH 625 0
DWIDTH 10 0
BBX 9 1 0 4
BITMAP
F780
ENDCHAR
STARTCHAR U+254D
ENCODING 9549
SWIDTH 625 0
DWIDTH 10 0
BBX 9 2 0 4
BITMAP
F780
F780
ENDCHAR
STARTCHAR U+254E
ENCODING 9550
SWIDTH 625 0
DWIDTH 10 0
BBX 1 9 4 0
BITMAP
80
80
80
80
00
80
80
80
80
ENDCHAR
STARTCHAR U+254F
ENCODING 9551
SWIDTH 625 0
DWIDTH 10 0
BBX 2 9 4 0
BITMAP
C0
C0
C0
C0
00
C0
C0
C0
C0
ENDCHAR
STARTCHAR U+2550
ENCODING 9552
SWIDTH 625 0
DWIDTH 10 0
BBX 10 3 0 3
BITMAP
FFC0
0000
FFC0
ENDCHAR
STARTCHAR U+2551
ENCODING 9553
SWIDTH 625 0
DWIDTH 10 0
BBX 3 10 3 0
BITMAP
A0
A0
A0
A0
A0
A0
A0
A0
A0
A0
ENDCHAR
STARTCHAR U+2552
ENCODING 9554
SWIDTH 625 0
DWIDTH 10 0
BBX 6 6 4 0
BITMAP
FC
80
FC
80
80
80
ENDCHAR
STARTCHAR U+2553
ENCODING 9555
SWIDTH 625 0
DWIDTH 10 0
BBX 7 5 3 0
BITMAP
FE
A0
A0
A0
A0
ENDCHAR
STARTCHAR U+2554
ENCODING 9556
SWIDTH 625 0
DWIDTH 10 0
BBX 7 6 3 0
BITMAP
FE
80
BE
A0
A0
A0
ENDCHAR
STARTCHAR U+2555
ENCODING 9557
SWIDTH 625 0
DWIDTH 10 0
BBX 5 6 0 0
BITMAP
F8
08
F8
08
08
08
ENDCHAR
STARTCHAR U+2556
ENCODING 9558
SWIDTH 625 0
DWIDTH 10 0
BBX 6 5 0 0
BITMAP
FC
14
14
14
14
ENDCHAR
STARTCHAR U+2557
ENCODING 9559
SWIDTH 625 0
DWIDTH 10 0
BBX 6 6 0 0
BITMAP
FC
04
F4
14
14
14
ENDCHAR
STARTCHAR U+2558
ENCODING 9560
SWIDTH 625 0
DWIDTH 10 0
BBX 6 7 4 3
BITMAP
80
80
80
80
FC
80
FC
ENDCHAR
STARTCHAR U+2559
ENCODING 9561
SWIDTH 625 0
DWIDTH 10 0
BBX 7 6 3 4
BITMAP
A0
A0
A0
A0
A0
FE
ENDCHAR
STARTCHAR U+255A
ENCODING 9562
SWIDTH 625 0
DWIDTH 10 0
BBX 7 7 3 3
BITMAP
A0
A0
A0
A0
BE
80
FE
ENDCHAR
STARTCHAR U+255B
ENCODING 9563
SWIDTH 625 0
DWIDTH 10 0
BBX 5 7 0 3
BITMAP
08
08
08
08
F8
08
F8
ENDCHAR
STARTCHAR U+255C
ENCODING 9564
SWIDTH 625 0
DWIDTH 10 0
BBX 6 6 0 4
BITMAP
14
14
14
14
14
FC
ENDCHAR
STARTCHAR U+255D
ENCODING 9565
SWIDTH 625 0
DWIDTH 10 0
BBX 6 7 0 3
BITMAP
14
14
14
14
F4
04
FC
ENDCHAR
STARTCHAR U+255E
ENCODING 9566
SWIDTH 625 0
DWIDTH 10 0
BBX 6 10 4 0
BITMAP
80
80
80
80
FC
80
FC
80
80
80
ENDCHAR
STARTCHAR U+255F
ENCODING 9567
SWIDTH 625 0
DWIDTH 10 0
BBX 7 10 3 0
BITMAP
A0
A0
A0
A0
A0
BE
A0
A0
A0
A0
ENDCHAR
STARTCHAR U+2560
ENCODING 9568
SWIDTH 625 0
DWIDTH 10 0
BBX 7 10 3 0
BITMAP
A0
A0
A0
A0
BE
80
BE
A0
A0
A0
ENDCHAR
STARTCHAR U+2561
ENCODING 9569
SWIDTH 625 0
DWIDTH 10 0
BBX 5 10 0 0
BITMAP
08
08
08
08
F8
08
F8
08
08
08
ENDCHAR
STARTCHAR U+2562
ENCODING 9570
SWIDTH 625 0
DWIDTH 10 0
BBX 6 10 0 0
BITMAP
14
14
14
14
14
F4
14
14
14
14
ENDCHAR
STARTCHAR U+2563
ENCODING 9571
SWIDTH 625 0
DWIDTH 10 0
BBX 6 10 0 0
BITMAP
14
14
14
14
F4
04
F4
14
14
14
ENDCHAR
STARTCHAR U+2564
ENCODING 9572
SWIDTH 625 0
DWIDTH 10 0
BBX 10 6 0 0
BITMAP
FFC0
0000
FFC0
0800
0800
0800
ENDCHAR
STARTCHAR U+2565
ENCODING 9573
SWIDTH 625 0
DWIDTH 10 0
BBX 10 5 0 0
BITMAP
FFC0
1400
1400
1400
1400
ENDCHAR
STARTCHAR U+2566
ENCODING 9574
SWIDTH 625 0
DWIDTH 10 0
BBX 10 6 0 0
BITMAP
FFC0
0000
F7C0
1400
1400
1400
ENDCHAR
STARTCHAR U+2567
ENCODING 9575
SWIDTH 625 0
DWIDTH 10 0
BBX 10 7 0 3
BITMAP
0800
0800
0800
0800
FFC0
0000
FFC0
ENDCHAR
STARTCHAR U+2568
ENCODING 9576
SWIDTH 625 0
DWIDTH 10 0
BBX 10 6 0 4
BITMAP
1400
1400
1400
1400
1400
FFC0
ENDCHAR
STARTCHAR U+2569
ENCODING 9577
SWIDTH 625 0
DWIDTH 10 0
BBX 10 7 0 3
BITMAP
1400
1400
1400
1400
F7C0
0000
FFC0
ENDCHAR
STARTCHAR U+256A
ENCODING 9578
SWIDTH 625 0
DWIDTH 10 0
BBX 10 10 0 0
BITMAP
0800
0800
0800
0800
FFC0
0800
FFC0
0800
0800
0800
ENDCHAR
STARTCHAR U+256B
ENCODING 9579
SWIDTH 625 0
DWIDTH 10 0
BBX 10 10 0 0
BITMAP
1400
1400
1400
1400
1400
FFC0
1400
1400
1400
1400
ENDCHAR
STARTCHAR U+256C
ENCODING 9580
SWIDTH 625 0
DWIDTH 10 0
BBX 10 10 0 0
BITMAP
1400
1400
1400
1400
F7C0
0000
F7C0
1400
1400
1400
ENDCHAR
STARTCHAR U+256D
ENCODING 9581
SWIDTH 625 0
DWIDTH 10 0
BBX 5 5 5 0
BITMAP
08
30
40
80
80
ENDCHAR
STARTCHAR U+256E
ENCODING 9582
SWIDTH 625 0
DWIDTH 10 0
BBX 4 4 0 0
BITMAP
C0
20
10
10
ENDCHAR
STARTCHAR U+256F
ENCODING 9583
SWIDTH 625 0
DWIDTH 10 0
BBX 5 5 0 5
BITMAP
08
10
10
20
C0
ENDCHAR
STARTCHAR U+2570
ENCODING 9584
SWIDTH 625 0
DWIDTH 10 0
BBX 6 6 4 4
BITMAP
80
40
40
20
18
04
ENDCHAR
STARTCHAR U+2571
ENCODING 9585
SWIDTH 625 0
DWIDTH 10 0
BBX 10 10 0 0
BITMAP
0040
0080
0100
0200
0400
0800
1000
2000
4000
8000
ENDCHAR
STARTCHAR U+2572
ENCODING 9586
SWIDTH 625 0
DWIDTH 10 0
BBX 9 9 0 0
BITMAP
8000
4000
2000
1000
0800
0400
0200
0100
0080
ENDCHAR
STARTCHAR U+2573
ENCODING 9587
SWIDTH 625 0
DWIDTH 10 0
BBX 10 10 0 0
BITMAP
0040
8080
4100
2200
1400
0800
1400
2200
4100
8080
ENDCHAR
STARTCHAR U+2574
ENCODING 9588
SWIDTH 625 0
DWIDTH 10 0
BBX 5 1 0 4
BITMAP
F8
ENDCHAR
STARTCHAR U+2575
ENCODING 9589
SWIDTH 625 0
DWIDTH 10 0
BBX 1 6 4 4
BITMAP
80
80
80
80
80
80
ENDCHAR
STARTCHAR U+2576
ENCODING 9590
SWIDTH 625 0
DWIDTH 10 0
BBX 6 1 4 4
BITMAP
FC
ENDCHAR
STARTCHAR U+2577
ENCODING 9591
SWIDTH 625 0
DWIDTH 10 0
BBX 1 5 4 0
BITMAP
80
80
80
80
80
ENDCHAR
STARTCHAR U+2578
ENCODING 9592
SWIDTH 625 0
DWIDTH 10 0
BBX 5 2 0 4
BITMAP
F8
F8
ENDCHAR
STARTCHAR U+2579
ENCODING 9593
SWIDTH 625 0
DWIDTH 10 0
BBX 2 6 4 4
BITMAP
C0
C0
C0
C0
C0
C0
ENDCHAR
STARTCHAR U+257A
ENCODING 9594
SWIDTH 625 0
DWIDTH 10 0
BBX 6 2 4 4
BITMAP
FC
FC
ENDCHAR
STARTCHAR U+257B
ENCODING 9595
SWIDTH 625 0
DWIDTH 10 0
BBX 2 5 4 0
BITMAP
C0
C0
C0
C0
C0
ENDCHAR
STARTCHAR U+257C
ENCODING 9596
SWIDTH 625 0
DWIDTH 10 0
BBX 10 2 0 4
BITMAP
0FC0
FFC0
ENDCHAR
STARTCHAR U+257D
ENCODING 9597
SWIDTH 625 0
DWIDTH 10 0
BBX 2 10 4 0
BITMAP
80
80
80
80
80
C0
C0
C0
C0
C0
ENDCHAR
STARTCHAR U+257E
ENCODING 9598
SWIDTH 625 0
DWIDTH 10 0
BBX 10 2 0 4
BITMAP
F800
FFC0
ENDCHAR
STARTCHAR U+257F
ENCODING 9599
SWIDTH 625 0
DWIDTH 10 0
BBX 2 10 4 0
BITMAP
C0
C0
C0
C0
C0
C0
80
80
80
80
ENDCHAR
STARTCHAR U+2580
ENCODING 9600
SWIDTH 625 0
DWIDTH 10 0
BBX 10 5 0 5
BITMAP
FFC0
FFC0
FFC0
FFC0
FFC0
ENDCHAR
STARTCHAR U+2581
ENCODING 9601
SWIDTH 625 0
DWIDTH 10 0
BBX 10 1 0 0
BITMAP
FFC0
ENDCHAR
STARTCHAR U+2582
ENCODING 9602
SWIDTH 625 0
DWIDTH 10 0
BBX 10 3 0 0
BITMAP
FFC0
FFC0
FFC0
ENDCHAR
STARTCHAR U+2583
ENCODING 9603
SWIDTH 625 0
DWIDTH 10 0
BBX 10 4 0 0
BITMAP
FFC0
FFC0
FFC0
FFC0
ENDCHAR
STARTCHAR U+2584
ENCODING 9604
SWIDTH 625 0
DWIDTH 10 0
BBX 10 5 0 0
BITMAP
FFC0
FFC0
FFC0
FFC0
FFC0
ENDCHAR
STARTCHAR U+2585
ENCODING 9605
SWIDTH 625 0
DWIDTH 10 0
BBX 10 6 0 0
BITMAP
FFC0
FFC0
FFC0
FFC0
FFC0
FFC0
ENDCHAR
STARTCHAR U+2586
ENCODING 9606
SWIDTH 625 0
DWIDTH 10 0
BBX 10 8 0 0
BITMAP
FFC0
FFC0
FFC0
FFC0
FFC0
FFC0
FFC0
FFC0
ENDCHAR
STARTCHAR U+2587
ENCODING 9607
SWIDTH 625 0
DWIDTH 10 0
BBX 10 9 0 0
BITMAP
FFC0
FFC0
FFC0
FFC0
FFC0
FFC0
FFC0
FFC0
FFC0
ENDCHAR
STARTCHAR U+2588
ENCODING 9608
SWIDTH 625 0
DWIDTH 10 0
BBX 10 10 0 0
BITMAP
FFC0
FFC0
FFC0
FFC0
FFC0
FFC0
FFC0
FFC0
FFC0
FFC0
ENDCHAR
STARTCHAR U+2589
ENCODING 9609
SWIDTH 625 0
DWIDTH 10 0
BBX 9 10 0 0
BITMAP
FF80
FF80
FF80
FF80
FF80
FF80
FF80
FF80
FF80
FF80
ENDCHAR
STARTCHAR U+258A
ENCODING 9610
SWIDTH 625 0
DWIDTH 10 0
BBX 8 10 0 0
BITMAP
FF
FF
FF
FF
FF
FF
FF
FF
FF
FF
ENDCHAR
STARTCHAR U+258B
ENCODING 9611
SWIDTH 625 0
DWIDTH 10 0
BBX 6 10 0 0
BITMAP
FC
FC
FC
FC
FC
FC
FC
FC
FC
FC
ENDCHAR
STARTCHAR U+258C
ENCODING 9612
SWIDTH 625 0
DWIDTH 10 0
BBX 5 10 0 0
BITMAP
F8
F8
F8
F8
F8
F8
F8
F8
F8
F8
ENDCHAR
STARTCHAR U+258D
ENCODING 9613
SWIDTH 625 0
DWIDTH 10 0
BBX 4 10 0 0
BITMAP
F0
F0
F0
F0
F0
F0
F0
F0
F0
F0
ENDCHAR
STARTCHAR U+258E
ENCODING 9614
SWIDTH 625 0
DWIDTH 10 0
BBX 3 10 0 0
BITMAP
E0
E0
E0
E0
E0
E0
E0
E0
E0
E0
ENDCHAR
STARTCHAR U+258F
ENCODING 9615
SWIDTH 625 0
DWIDTH 10 0
BBX 1 10 0 0
BITMAP
80
80
80
80
80
80
80
80
80
80
ENDCHAR
STARTCHAR U+2590
ENCODING 9616
SWIDTH 625 0
DWIDTH 10 0
BBX 5 10 5 0
BITMAP
F8
F8
F8
F8
F8
F8
F8
F8
F8
F8
ENDCHAR
STARTCHAR U+2591
ENCODING 9617
SWIDTH 625 0
DWIDTH 10 0
BBX 9 9 0 1
BITMAP
AA80
0000
AA80
0000
AA80
0000
AA80
0000
AA80
ENDCHAR
STARTCHAR U+2592
ENCODING 9618
SWIDTH 625 0
DWIDTH 10 0
BBX 10 10 0 0
BITMAP
AA80
5540
AA80
5540
AA80
5540
AA80
5540
AA80
5540
ENDCHAR
STARTCHAR U+2593
ENCODING 9619
SWIDTH 625 0
DWIDTH 10 0
BBX 10 10 0 0
BITMAP
AA80
FFC0
AA80
FFC0
AA80
FFC0
AA80
FFC0
AA80
FFC0
ENDCHAR
STARTCHAR U+2594
ENCODING 9620
SWIDTH 625 0
DWIDTH 10 0
BBX 10 1 0 9
BITMAP
FFC0
ENDCHAR
STARTCHAR U+2595
ENCODING 9621
SWIDTH 625 0
DWIDTH 10 0
BBX 1 10 9 0
BITMAP
80
80
80
80
80
80
80
80
80
80
ENDCHAR
STARTCHAR U+2596
ENCODING 9622
SWIDTH 625 0
DWIDTH 10 0
BBX 5 5 0 0
BITMAP
F8
F8
F8
F8
F8
ENDCHAR
STARTCHAR U+2597
ENCODING 9623
SWIDTH 625 0
DWIDTH 10 0
BBX 5 5 5 0
BITMAP
F8
F8
F8
F8
F8
ENDCHAR
STARTCHAR U+2598
ENCODING 9624
SWIDTH 625 0
DWIDTH 10 0
BBX 5 5 0 5
BITMAP
F8
F8
F8
F8
F8
ENDCHAR
STARTCHAR U+2599
ENCODING 9625
SWIDTH 625 0
DWIDTH 10 0
BBX 10 10 0 0
BITMAP
F800
F800
F800
F800
F800
FFC0
FFC0
FFC0
FFC0
FFC0
ENDCHAR
STARTCHAR U+259A
ENCODING 9626
SWIDTH 625 0
DWIDTH 10 0
BBX 10 10 0 0
BITMAP
F800
F800
F800
F800
F800
07C0
07C0
07C0
07C0
07C0
ENDCHAR
STARTCHAR U+259B
ENCODING 9627
SWIDTH 625 0
DWIDTH 10 0
BBX 10 10 0 0
BITMAP
FFC0
FFC0
FFC0
FFC0
FFC0
F800
F800
F800
F800
F800
ENDCHAR
STARTCHAR U+259C
ENCODING 9628
SWIDTH 625 0
DWIDTH 10 0
BBX 10 10 0 0
BITMAP
FFC0
FFC0
FFC0
FFC0
FFC0
07C0
07C0
07C0
07C0
07C0
ENDCHAR
STARTCHAR U+259D
ENCODING 9629
SWIDTH 625 0
DWIDTH 10 0
BBX 5 5 5 5
BITMAP
F8
F8
F8
F8
F8
ENDCHAR
STARTCHAR U+259E
ENCODING 9630
SWIDTH 625 0
DWIDTH 10 0
BBX 10 10 0 0
BITMAP
07C0
07C0
07C0
07C0
07C0
F800
F800
F800
F800
F800
ENDCHAR
STARTCHAR U+259F
ENCODING 9631
SWIDTH 625 0
DWIDTH 10 0
BBX 10 10 0 0
BITMAP
07C0
07C0
07C0
07C0
07C0
FFC0
FFC0
FFC0
FFC0
FFC0
ENDCHAR
STARTCHAR U+25A0
ENCODING 9632
SWIDTH 625 0
DWIDTH 10 0
BBX 9 9 0 0
BITMAP
FF80
FF80
FF80
FF80
FF80
FF80
FF80
FF80
FF80
ENDCHAR
STARTCHAR U+25A1
ENCODING 9633
SWIDTH 625 0
DWIDTH 10 0
BBX 9 9 0 0
BITMAP
FF80
8080
8080
8080
8080
8080
8080
8080
FF80
ENDCHAR
STARTCHAR U+25A2
ENCODING 9634
SWIDTH 625 0
DWIDTH 10 0
BBX 9 9 0 0
BITMAP
7F00
8080
8080
8080
8080
8080
8080
8080
7F00
ENDCHAR
STARTCHAR U+25A3
ENCODING 9635
SWIDTH 625 0
DWIDTH 10 0
BBX 9 9 0 0
BITMAP
FF80
8080
BE80
BE80
BE80
BE80
BE80
8080
FF80
ENDCHAR
STARTCHAR U+25A4
ENCODING 9636
SWIDTH 625 0
DWIDTH 10 0
BBX 9 9 0 0
BITMAP
FF80
8080
FF80
8080
FF80
8080
FF80
8080
FF80
ENDCHAR
STARTCHAR U+25A5
ENCODING 9637
SWIDTH 625 0
DWIDTH 10 0
BBX 9 9 0 0
BITMAP
FF80
AA80
AA80
AA80
AA80
AA80
AA80
AA80
FF80
ENDCHAR
STARTCHAR U+25A6
ENCODING 9638
SWIDTH 625 0
DWIDTH 10 0
BBX 9 9 0 0
BITMAP
FF80
AA80
FF80
AA80
FF80
AA80
FF80
AA80
FF80
ENDCHAR
STARTCHAR U+25A7
ENCODING 9639
SWIDTH 625 0
DWIDTH 10 0
BBX 9 9 0 0
BITMAP
FF80
C480
A280
9180
8880
C480
A280
9180
FF80
ENDCHAR
STARTCHAR U+25A8
ENCODING 9640
SWIDTH 625 0
DWIDTH 10 0
BBX 9 9 0 0
BITMAP
FF80
9180
A280
C480
8880
9180
A280
C480
FF80
ENDCHAR
STARTCHAR U+25A9
ENCODING 9641
SWIDTH 625 0
DWIDTH 10 0
BBX 9 9 0 0
BITMAP
FF80
D580
A280
D580
8880
D580
A280
D580
FF80
ENDCHAR
STARTCHAR U+25AA
ENCODING 9642
SWIDTH 625 0
DWIDTH 10 0
BBX 3 3 3 3
BITMAP
E0
E0
E0
ENDCHAR
STARTCHAR U+25AB
ENCODING 9643
SWIDTH 625 0
DWIDTH 10 0
BBX 3 3 3 3
BITMAP
E0
A0
E0
ENDCHAR
STARTCHAR U+25AC
ENCODING 9644
SWIDTH 625 0
DWIDTH 10 0
BBX 9 5 0 2
BITMAP
FF80
FF80
FF80
FF80
FF80
ENDCHAR
STARTCHAR U+25AD
ENCODING 9645
SWIDTH 625 0
DWIDTH 10 0
BBX 9 5 0 2
BITMAP
FF80
8080
8080
8080
FF80
ENDCHAR
STARTCHAR U+25AE
ENCODING 9646
SWIDTH 625 0
DWIDTH 10 0
BBX 5 9 2 0
BITMAP
F8
F8
F8
F8
F8
F8
F8
F8
F8
ENDCHAR
STARTCHAR U+25AF
ENCODING 9647
SWIDTH 625 0
DWIDTH 10 0
BBX 5 9 2 0
BITMAP
F8
88
88
88
88
88
88
88
F8
ENDCHAR
STARTCHAR U+25B0
ENCODING 9648
SWIDTH 625 0
DWIDTH 10 0
BBX 9 5 0 2
BITMAP
7F80
7F80
FF80
FF00
FF00
ENDCHAR
STARTCHAR U+25B1
ENCODING 9649
SWIDTH 625 0
DWIDTH 10 0
BBX 9 5 0 2
BITMAP
7F80
4080
8080
8100
FF00
ENDCHAR
STARTCHAR U+25B2
ENCODING 9650
SWIDTH 625 0
DWIDTH 10 0
BBX 9 9 0 0
BITMAP
0800
1C00
1C00
3E00
3E00
7F00
7F00
FF80
FF80
ENDCHAR
STARTCHAR U+25B3
ENCODING 9651
SWIDTH 625 0
DWIDTH 10 0
BBX 9 9 0 0
BITMAP
0800
1400
1400
2200
2200
4100
4100
8080
FF80
ENDCHAR
STARTCHAR U+25B4
ENCODING 9652
SWIDTH 625 0
DWIDTH 10 0
BBX 5 5 2 2
BITMAP
20
70
70
F8
F8
ENDCHAR
STARTCHAR U+25B5
ENCODING 9653
SWIDTH 625 0
DWIDTH 10 0
BBX 5 5 2 2
BITMAP
20
50
50
88
F8
ENDCHAR
STARTCHAR U+25B6
ENCODING 9654
SWIDTH 625 0
DWIDTH 10 0
BBX 9 9 0 0
BITMAP
C000
F000
FC00
FF00
FF80
FF00
FC00
F000
C000
ENDCHAR
STARTCHAR U+25B7
ENCODING 9655
SWIDTH 625 0
DWIDTH 10 0
BBX 9 9 0 0
BITMAP
C000
B000
8C00
8300
8080
8300
8C00
B000
C000
ENDCHAR
STARTCHAR U+25B8
ENCODING 9656
SWIDTH 625 0
DWIDTH 10 0
BBX 5 5 2 2
BITMAP
C0
F0
F8
F0
C0
ENDCHAR
STARTCHAR U+25B9
ENCODING 9657
SWIDTH 625 0
DWIDTH 10 0
BBX 5 5 2 2
BITMAP
C0
B0
88
B0
C0
ENDCHAR
STARTCHAR U+25BA
ENCODING 9658
SWIDTH 625 0
DWIDTH 10 0
BBX 9 5 0 2
BITMAP
E000
FC00
FF80
FC00
E000
ENDCHAR
STARTCHAR U+25BB
ENCODING 9659
SWIDTH 625 0
DWIDTH 10 0
BBX 9 5 0 2
BITMAP
E000
9C00
8380
9C00
E000
ENDCHAR
STARTCHAR U+25BC
ENCODING 9660
SWIDTH 625 0
DWIDTH 10 0
BBX 9 9 0 0
BITMAP
FF80
FF80
7F00
7F00
3E00
3E00
1C00
1C00
0800
ENDCHAR
STARTCHAR U+25BD
ENCODING 9661
SWIDTH 625 0
DWIDTH 10 0
BBX 9 9 0 0
BITMAP
FF80
8080
4100
4100
2200
2200
1400
1400
0800
ENDCHAR
STARTCHAR U+25BE
ENCODING 9662
SWIDTH 625 0
DWIDTH 10 0
BBX 5 5 2 2
BITMAP
F8
F8
70
70
20
ENDCHAR
STARTCHAR U+25BF
ENCODING 9663
SWIDTH 625 0
DWIDTH 10 0
BBX 5 5 2 2
BITMAP
F8
88
50
50
20
ENDCHAR
STARTCHAR U+25C0
ENCODING 9664
SWIDTH 625 0
DWIDTH 10 0
BBX 9 9 0 0
BITMAP
0180
0780
1F80
7F80
FF80
7F80
1F80
0780
0180
ENDCHAR
STARTCHAR U+25C1
ENCODING 9665
SWIDTH 625 0
DWIDTH 10 0
BBX 9 9 0 0
BITMAP
0180
0680
1880
6080
8080
6080
1880
0680
0180
ENDCHAR
STARTCHAR U+25C2
ENCODING 9666
SWIDTH 625 0
DWIDTH 10 0
BBX 5 5 2 2
BITMAP
18
78
F8
78
18
ENDCHAR
STARTCHAR U+25C3
ENCODING 9667
SWIDTH 625 0
DWIDTH 10 0
BBX 5 5 2 2
BITMAP
18
68
88
68
18
ENDCHAR
STARTCHAR U+25C4
ENCODING 9668
SWIDTH 625 0
DWIDTH 10 0
BBX 9 5 0 2
BITMAP
0380
1F80
FF80
1F80
0380
ENDCHAR
STARTCHAR U+25C5
ENCODING 9669
SWIDTH 625 0
DWIDTH 10 0
BBX 9 5 0 2
BITMAP
0380
1C80
E080
1C80
0380
ENDCHAR
STARTCHAR U+25C6
ENCODING 9670
SWIDTH 625 0
DWIDTH 10 0
BBX 9 9 0 0
BITMAP
0800
1C00
3E00
7F00
FF80
7F00
3E00
1C00
0800
ENDCHAR
STARTCHAR U+25C7
ENCODING 9671
SWIDTH 625 0
DWIDTH 10 0
BBX 9 9 0 0
BITMAP
0800
1400
2200
4100
8080
4100
2200
1400
0800
ENDCHAR
STARTCHAR U+25C8
ENCODING 9672
SWIDTH 625 0
DWIDTH 10 0
BBX 9 9 0 0
BITMAP
0800
1400
2A00
5D00
BE80
5D00
2A00
1400
0800
ENDCHAR
STARTCHAR U+25C9
ENCODING 9673
SWIDTH 625 0
DWIDTH 10 0
BBX 9 9 0 0
BITMAP
3E00
4100
9C80
BE80
BE80
BE80
9C80
4100
3E00
ENDCHAR
STARTCHAR U+25CA
ENCODING 9674
SWIDTH 625 0
DWIDTH 10 0
BBX 9 9 0 0
BITMAP
0800
1400
2200
4100
8080
4100
2200
1400
0800
ENDCHAR
STARTCHAR U+25CB
ENCODING 9675
SWIDTH 625 0
DWIDTH 10 0
BBX 9 9 0 0
BITMAP
3E00
4100
8080
8080
8080
8080
8080
4100
3E00
ENDCHAR
STARTCHAR U+25CC
ENCODING 9676
SWIDTH 625 0
DWIDTH 10 0
BBX 9 9 0 0
BITMAP
1400
4100
0000
8080
0000
8080
0000
4100
1400
ENDCHAR
STARTCHAR U+25CD
ENCODING 9677
SWIDTH 625 0
DWIDTH 10 0
BBX 9 9 0 0
BITMAP
3E00
6B00
AA80
AA80
AA80
AA80
AA80
6B00
3E00
ENDCHAR
STARTCHAR U+25CE
ENCODING 9678
SWIDTH 625 0
DWIDTH 10 0
BBX 9 9 0 0
BITMAP
3E00
4100
9C80
A280
A280
A280
9C80
4100
3E00
ENDCHAR
STARTCHAR U+25CF
ENCODING 9679
SWIDTH 625 0
DWIDTH 10 0
BBX 9 9 0 0
BITMAP
3E00
7F00
FF80
FF80
FF80
FF80
FF80
7F00
3E00
ENDCHAR
STARTCHAR U+25D0
ENCODING 9680
SWIDTH 625 0
DWIDTH 10 0
BBX 9 9 0 0
BITMAP
3E00
7100
F080
F080
F080
F080
F080
7100
3E00
ENDCHAR
STARTCHAR U+25D1
ENCODING 9681
SWIDTH 625 0
DWIDTH 10 0
BBX 9 9 0 0
BITMAP
3E00
4700
8780
8780
8780
8780
8780
4700
3E00
ENDCHAR
STARTCHAR U+25D2
ENCODING 9682
SWIDTH 625 0
DWIDTH 10 0
BBX 9 9 0 0
BITMAP
3E00
4100
8080
8080
8080
FF80
FF80
7F00
3E00
ENDCHAR
STARTCHAR U+25D3
ENCODING 9683
SWIDTH 625 0
DWIDTH 10 0
BBX 9 9 0 0
BITMAP
3E00
7F00
FF80
FF80
8080
8080
8080
4100
3E00
ENDCHAR
STARTCHAR U+25D4
ENCODING 9684
SWIDTH 625 0
DWIDTH 10 0
BBX 9 9 0 0
BITMAP
3E00
4F00
8F80
8F80
8F80
8080
8080
4100
3E00
ENDCHAR
STARTCHAR U+25D5
ENCODING 9685
SWIDTH 625 0
DWIDTH 10 0
BBX 9 9 0 0
BITMAP
3E00
4700
8780
8780
8780
FF80
FF80
7F00
3E00
ENDCHAR
STARTCHAR U+25D6
ENCODING 9686
SWIDTH 625 0
DWIDTH 10 0
BBX 5 9 0 0
BITMAP
38
78
F8
F8
F8
F8
F8
78
38
ENDCHAR
STARTCHAR U+25D7
ENCODING 9687
SWIDTH 625 0
DWIDTH 10 0
BBX 5 9 4 0
BITMAP
E0
F0
F8
F8
F8
F8
F8
F0
E0
ENDCHAR
STARTCHAR U+25D8
ENCODING 9688
SWIDTH 625 0
DWIDTH 10 0
BBX 9 9 0 0
BITMAP
FF80
FF80
E380
C180
C180
C180
E380
FF80
FF80
ENDCHAR
STARTCHAR U+25D9
ENCODING 9689
SWIDTH 625 0
DWIDTH 10 0
BBX 9 9 0 0
BITMAP
FF80
E380
DD80
BE80
BE80
BE80
DD80
E380
FF80
ENDCHAR
STARTCHAR U+25DA
ENCODING 9690
SWIDTH 625 0
DWIDTH 10 0
BBX 9 9 0 0
BITMAP
FF80
E380
DD80
BE80
BE80
FF80
FF80
FF80
FF80
ENDCHAR
STARTCHAR U+25DB
ENCODING 9691
SWIDTH 625 0
DWIDTH 10 0
BBX 9 9 0 0
BITMAP
FF80
FF80
FF80
FF80
BE80
BE80
DD80
E380
FF80
ENDCHAR
STARTCHAR U+25DC
ENCODING 9692
SWIDTH 625 0
DWIDTH 10 0
BBX 5 5 0 4
BITMAP
38
40
80
80
80
ENDCHAR
STARTCHAR U+25DD
ENCODING 9693
SWIDTH 625 0
DWIDTH 10 0
BBX 5 5 4 4
BITMAP
E0
10
08
08
08
ENDCHAR
STARTCHAR U+25DE
ENCODING 9694
SWIDTH 625 0
DWIDTH 10 0
BBX 5 5 4 0
BITMAP
08
08
08
10
E0
ENDCHAR
STARTCHAR U+25DF
ENCODING 9695
SWIDTH 625 0
DWIDTH 10 0
BBX 5 5 0 0
BITMAP
80
80
80
40
38
ENDCHAR
STARTCHAR U+25E0
ENCODING 9696
SWIDTH 625 0
DWIDTH 10 0
BBX 9 5 0 4
BITMAP
3E00
4100
8080
8080
8080
ENDCHAR
STARTCHAR U+25E1
ENCODING 9697
SWIDTH 625 0
DWIDTH 10 0
BBX 9 5 0 0
BITMAP
8080
8080
8080
4100
3E00
ENDCHAR
STARTCHAR U+25E2
ENCODING 9698
SWIDTH 625 0
DWIDTH 10 0
BBX 9 9 0 0
BITMAP
0080
0180
0380
0780
0F80
1F80
3F80
7F80
FF80
ENDCHAR
STARTCHAR U+25E3
ENCODING 9699
SWIDTH 625 0
DWIDTH 10 0
BBX 9 9 0 0
BITMAP
8000
C000
E000
F000
F800
FC00
FE00
FF00
FF80
ENDCHAR
STARTCHAR U+25E4
ENCODING 9700
SWIDTH 625 0
DWIDTH 10 0
BBX 9 9 0 0
BITMAP
FF80
FF00
FE00
FC00
F800
F000
E000
C000
8000
ENDCHAR
STARTCHAR U+25E5
ENCODING 9701
SWIDTH 625 0
DWIDTH 10 0
BBX 9 9 0 0
BITMAP
FF80
7F80
3F80
1F80
0F80
0780
0380
0180
0080
ENDCHAR
STARTCHAR U+25E6
ENCODING 9702
SWIDTH 312 0
DWIDTH 5 0
BBX 4 4 0 3
BITMAP
60
90
90
60
ENDCHAR
STARTCHAR U+25E7
ENCODING 9703
SWIDTH 625 0
DWIDTH 10 0
BBX 9 9 0 0
BITMAP
FF80
F080
F080
F080
F080
F080
F080
F080
FF80
ENDCHAR
STARTCHAR U+25E8
ENCODING 9704
SWIDTH 625 0
DWIDTH 10 0
BBX 9 9 0 0
BITMAP
FF80
8780
8780
8780
8780
8780
8780
8780
FF80
ENDCHAR
STARTCHAR U+25E9
ENCODING 9705
SWIDTH 625 0
DWIDTH 10 0
BBX 9 9 0 0
BITMAP
FF80
FE80
FC80
F880
F080
E080
C080
8080
FF80
ENDCHAR
STARTCHAR U+25EA
ENCODING 9706
SWIDTH 625 0
DWIDTH 10 0
BBX 9 9 0 0
BITMAP
FF80
8080
8180
8380
8780
8F80
9F80
BF80
FF80
ENDCHAR
STARTCHAR U+25EB
ENCODING 9707
SWIDTH 625 0
DWIDTH 10 0
BBX 9 9 0 0
BITMAP
FF80
8880
8880
8880
8880
8880
8880
8880
FF80
ENDCHAR
STARTCHAR U+25EC
ENCODING 9708
SWIDTH 625 0
DWIDTH 10 0
BBX 9 9 0 0
BITMAP
0800
1400
1400
2200
2200
4900
4100
8080
FF80
ENDCHAR
STARTCHAR U+25ED
ENCODING 9709
SWIDTH 625 0
DWIDTH 10 0
BBX 9 9 0 0
BITMAP
0800
1400
1400
3200
3200
7100
7100
F080
FF80
ENDCHAR
STARTCHAR U+25EE
ENCODING 9710
SWIDTH 625 0
DWIDTH 10 0
BBX 9 9 0 0
BITMAP
0800
1400
1400
2600
2600
4700
4700
8780
FF80
ENDCHAR
STARTCHAR U+25EF
ENCODING 9711
SWIDTH 625 0
DWIDTH 10 0
BBX 9 9 0 0
BITMAP
3E00
4100
8080
8080
8080
8080
8080
4100
3E00
ENDCHAR
STARTCHAR U+25F0
ENCODING 9712
SWIDTH 625 0
DWIDTH 10 0
BBX 9 9 0 0
BITMAP
FF80
8880
8880
8880
F880
8080
8080
8080
FF80
ENDCHAR
STARTCHAR U+25F1
ENCODING 9713
SWIDTH 625 0
DWIDTH 10 0
BBX 9 9 0 0
BITMAP
FF80
8080
8080
8080
F880
8880
8880
8880
FF80
ENDCHAR
STARTCHAR U+25F2
ENCODING 9714
SWIDTH 625 0
DWIDTH 10 0
BBX 9 9 0 0
BITMAP
FF80
8080
8080
8080
8F80
8880
8880
8880
FF80
ENDCHAR
STARTCHAR U+25F3
ENCODING 9715
SWIDTH 625 0
DWIDTH 10 0
BBX 9 9 0 0
BITMAP
FF80
8880
8880
8880
8F80
8080
8080
8080
FF80
ENDCHAR
STARTCHAR U+25F4
ENCODING 9716
SWIDTH 625 0
DWIDTH 10 0
BBX 9 9 0 0
BITMAP
3E00
4900
8880
8880
F880
8080
8080
4100
3E00
ENDCHAR
STARTCHAR U+25F5
ENCODING 9717
SWIDTH 625 0
DWIDTH 10 0
BBX 9 9 0 0
BITMAP
3E00
4100
8080
8080
F880
8880
8880
4900
3E00
ENDCHAR
STARTCHAR U+25F6
ENCODING 9718
SWIDTH 625 0
DWIDTH 10 0
BBX 9 9 0 0
BITMAP
3E00
4100
8080
8080
8F80
8880
8880
4900
3E00
ENDCHAR
STARTCHAR U+25F7
ENCODING 9719
SWIDTH 625 0
DWIDTH 10 0
BBX 9 9 0 0
BITMAP
3E00
4900
8880
8880
8F80
8080
8080
4100
3E00
ENDCHAR
STARTCHAR U+25F8
ENCODING 9720
SWIDTH 625 0
DWIDTH 10 0
BBX 9 9 0 0
BITMAP
FF80
8100
8200
8400
8800
9000
A000
C000
8000
ENDCHAR
STARTCHAR U+25F9
ENCODING 9721
SWIDTH 625 0
DWIDTH 10 0
BBX 9 9 0 0
BITMAP
FF80
4080
2080
1080
0880
0480
0280
0180
0080
ENDCHAR
STARTCHAR U+25FA
ENCODING 9722
SWIDTH 625 0
DWIDTH 10 0
BBX 9 9 0 0
BITMAP
8000
C000
A000
9000
8800
8400
8200
8100
FF80
ENDCHAR
STARTCHAR U+25FB
ENCODING 9723
SWIDTH 625 0
DWIDTH 10 0
BBX 7 7 1 1
BITMAP
FE
82
82
82
82
82
FE
ENDCHAR
STARTCHAR U+25FC
ENCODING 9724
SWIDTH 625 0
DWIDTH 10 0
BBX 7 7 1 1
BITMAP
FE
FE
FE
FE
FE
FE
FE
ENDCHAR
STARTCHAR U+25FD
ENCODING 9725
SWIDTH 625 0
DWIDTH 10 0
BBX 5 5 2 2
BITMAP
F8
88
88
88
F8
ENDCHAR
STARTCHAR U+25FE
ENCODING 9726
SWIDTH 625 0
DWIDTH 10 0
BBX 5 5 2 2
BITMAP
F8
F8
F8
F8
F8
ENDCHAR
STARTCHAR U+25FF
ENCODING 9727
SWIDTH 625 0
DWIDTH 10 0
BBX 9 9 0 0
BITMAP
0080
0180
0280
0480
0880
1080
2080
4080
FF80
ENDCHAR
STARTCHAR U+2600
ENCODING 9728
SWIDTH 625 0
DWIDTH 10 0
BBX 9 9 0 0
BITMAP
0800
4100
1C00
3E00
BE80
3E00
1C00
4100
0800
ENDCHAR
STARTCHAR U+2601
ENCODING 9729
SWIDTH 625 0
DWIDTH 10 0
BBX 9 9 0 0
BITMAP
1C00
2200
6300
8080
8080
8080
8480
4900
3600
ENDCHAR
STARTCHAR U+2602
ENCODING 9730
SWIDTH 625 0
DWIDTH 10 0
BBX 9 9 0 0
BITMAP
0800
3E00
7F00
FF80
0800
0800
0800
0A00
0400
ENDCHAR
STARTCHAR U+2603
ENCODING 9731
SWIDTH 625 0
DWIDTH 10 0
BBX 7 9 1 0
BITMAP
38
44
44
6C
82
82
82
44
38
ENDCHAR
STARTCHAR U+2605
ENCODING 9733
SWIDTH 625 0
DWIDTH 10 0
BBX 9 9 0 0
BITMAP
0800
0800
1C00
FF80
7F00
3E00
3600
2200
4100
ENDCHAR
STARTCHAR U+2606
ENCODING 9734
SWIDTH 625 0
DWIDTH 10 0
BBX 9 9 0 0
BITMAP
0800
0800
1400
F780
4100
2A00
3600
2200
4100
ENDCHAR
STARTCHAR U+2610
ENCODING 9744
SWIDTH 625 0
DWIDTH 10 0
BBX 9 9 0 0
BITMAP
FF80
8080
8080
8080
8080
8080
8080
8080
FF80
ENDCHAR
STARTCHAR U+2611
ENCODING 9745
SWIDTH 625 0
DWIDTH 10 0
BBX 9 9 0 0
BITMAP
FF80
8080
8180
8280
C480
A880
9080
8080
FF80
ENDCHAR
STARTCHAR U+2612
ENCODING 9746
SWIDTH 625 0
DWIDTH 10 0
BBX 9 9 0 0
BITMAP
FF80
8080
A280
9480
8880
9480
A280
8080
FF80
ENDCHAR
STARTCHAR U+262E
ENCODING 9774
SWIDTH 625 0
DWIDTH 10 0
BBX 9 9 0 0
BITMAP
3E00
4900
8880
8880
9C80
AA80
C980
4900
3E00
ENDCHAR
STARTCHAR U+2630
ENCODING 9776
SWIDTH 625 0
DWIDTH 10 0
BBX 9 7 0 1
BITMAP
FF80
0000
0000
FF80
0000
0000
FF80
ENDCHAR
STARTCHAR U+2631
ENCODING 9777
SWIDTH 625 0
DWIDTH 10 0
BBX 9 7 0 1
BITMAP
F780
0000
0000
FF80
0000
0000
FF80
ENDCHAR
STARTCHAR U+2632
ENCODING 9778
SWIDTH 625 0
DWIDTH 10 0
BBX 9 7 0 1
BITMAP
FF80
0000
0000
F780
0000
0000
FF80
ENDCHAR
STARTCHAR U+2633
ENCODING 9779
SWIDTH 625 0
DWIDTH 10 0
BBX 9 7 0 1
BITMAP
F780
0000
0000
F780
0000
0000
FF80
ENDCHAR
STARTCHAR U+2634
ENCODING 9780
SWIDTH 625 0
DWIDTH 10 0
BBX 9 7 0 1
BITMAP
FF80
0000
0000
FF80
0000
0000
F780
ENDCHAR
STARTCHAR U+2635
ENCODING 9781
SWIDTH 625 0
DWIDTH 10 0
BBX 9 7 0 1
BITMAP
F780
0000
0000
FF80
0000
0000
F780
ENDCHAR
STARTCHAR U+2636
ENCODING 9782
SWIDTH 625 0
DWIDTH 10 0
BBX 9 7 0 1
BITMAP
FF80
0000
0000
F780
0000
0000
F780
ENDCHAR
STARTCHAR U+2637
ENCODING 9783
SWIDTH 625 0
DWIDTH 10 0
BBX 9 7 0 1
BITMAP
F780
0000
0000
F780
0000
0000
F780
ENDCHAR
STARTCHAR U+2639
ENCODING 9785
SWIDTH 625 0
DWIDTH 10 0
BBX 9 9 0 0
BITMAP
FF80
8080
9480
9480
8080
9C80
A280
8080
FF80
ENDCHAR
STARTCHAR U+263A
ENCODING 9786
SWIDTH 625 0
DWIDTH 10 0
BBX 9 9 0 0
BITMAP
FF80
8080
9480
9480
8080
A280
9C80
8080
FF80
ENDCHAR
STARTCHAR U+263B
ENCODING 9787
SWIDTH 625 0
DWIDTH 10 0
BBX 9 9 0 0
BITMAP
FF80
FF80
EB80
EB80
FF80
DD80
E380
FF80
FF80
ENDCHAR
STARTCHAR U+263C
ENCODING 9788
SWIDTH 625 0
DWIDTH 10 0
BBX 9 9 0 0
BITMAP
0800
4100
1C00
2200
A280
2200
1C00
4100
0800
ENDCHAR
STARTCHAR U+2640
ENCODING 9792
SWIDTH 625 0
DWIDTH 10 0
BBX 7 9 1 0
BITMAP
38
44
44
44
38
10
FE
10
10
ENDCHAR
STARTCHAR U+2641
ENCODING 9793
SWIDTH 625 0
DWIDTH 10 0
BBX 7 9 1 0
BITMAP
10
10
FE
10
38
44
44
44
38
ENDCHAR
STARTCHAR U+2642
ENCODING 9794
SWIDTH 625 0
DWIDTH 10 0
BBX 5 9 2 0
BITMAP
20
70
A8
20
70
88
88
88
70
ENDCHAR
STARTCHAR U+2660
ENCODING 9824
SWIDTH 625 0
DWIDTH 10 0
BBX 9 9 0 0
BITMAP
0800
1C00
3E00
7F00
FF80
FF80
6B00
1C00
3E00
ENDCHAR
STARTCHAR U+2661
ENCODING 9825
SWIDTH 625 0
DWIDTH 10 0
BBX 9 8 0 0
BITMAP
6300
9480
8880
8080
4100
2200
1400
0800
ENDCHAR
STARTCHAR U+2662
ENCODING 9826
SWIDTH 625 0
DWIDTH 10 0
BBX 9 9 0 0
BITMAP
0800
1400
2200
4100
8080
4100
2200
1400
0800
ENDCHAR
STARTCHAR U+2663
ENCODING 9827
SWIDTH 625 0
DWIDTH 10 0
BBX 9 9 0 0
BITMAP
1C00
3E00
1C00
6B00
FF80
FF80
6B00
1C00
3E00
ENDCHAR
STARTCHAR U+2664
ENCODING 9828
SWIDTH 625 0
DWIDTH 10 0
BBX 9 9 0 0
BITMAP
0800
1400
2200
4100
8080
9480
6B00
1400
3E00
ENDCHAR
STARTCHAR U+2665
ENCODING 9829
SWIDTH 625 0
DWIDTH 10 0
BBX 9 8 0 0
BITMAP
6300
F780
FF80
FF80
7F00
3E00
1C00
0800
ENDCHAR
STARTCHAR U+2666
ENCODING 9830
SWIDTH 625 0
DWIDTH 10 0
BBX 9 9 0 0
BITMAP
0800
1C00
3E00
7F00
FF80
7F00
3E00
1C00
0800
ENDCHAR
STARTCHAR U+2667
ENCODING 9831
SWIDTH 625 0
DWIDTH 10 0
BBX 9 9 0 0
BITMAP
1C00
2200
1400
6300
8080
9480
6B00
1400
3E00
ENDCHAR
STARTCHAR U+2669
ENCODING 9833
SWIDTH 625 0
DWIDTH 10 0
BBX 4 9 2 0
BITMAP
10
10
10
10
10
10
70
E0
C0
ENDCHAR
STARTCHAR U+266A
ENCODING 9834
SWIDTH 625 0
DWIDTH 10 0
BBX 6 9 2 0
BITMAP
10
18
14
14
14
10
70
E0
C0
ENDCHAR
STARTCHAR U+266B
ENCODING 9835
SWIDTH 625 0
DWIDTH 10 0
BBX 9 9 0 0
BITMAP
1F80
1F80
1080
1080
1080
1080
7380
E700
C600
ENDCHAR
STARTCHAR U+266C
ENCODING 9836
SWIDTH 625 0
DWIDTH 10 0
BBX 9 9 0 0
BITMAP
1F80
1080
1F80
1080
1080
1080
7380
E700
C600
ENDCHAR
STARTCHAR U+266D
ENCODING 9837
SWIDTH 625 0
DWIDTH 10 0
BBX 5 9 2 0
BITMAP
80
80
80
B0
C8
88
90
A0
C0
ENDCHAR
STARTCHAR U+266E
ENCODING 9838
SWIDTH 625 0
DWIDTH 10 0
BBX 5 9 2 0
BITMAP
80
88
B8
C8
88
98
E8
88
08
ENDCHAR
STARTCHAR U+266F
ENCODING 9839
SWIDTH 625 0
DWIDTH 10 0
BBX 8 9 0 0
BITMAP
04
27
3C
E4
27
3C
E4
24
20
ENDCHAR
STARTCHAR U+2680
ENCODING 9856
SWIDTH 625 0
DWIDTH 10 0
BBX 9 9 0 0
BITMAP
FF80
8080
8080
8080
8880
8080
8080
8080
FF80
ENDCHAR
STARTCHAR U+2681
ENCODING 9857
SWIDTH 625 0
DWIDTH 10 0
BBX 9 9 0 0
BITMAP
FF80
8080
8280
8080
8080
8080
A080
8080
FF80
ENDCHAR
STARTCHAR U+2682
ENCODING 9858
SWIDTH 625 0
DWIDTH 10 0
BBX 9 9 0 0
BITMAP
FF80
8080
8280
8080
8880
8080
A080
8080
FF80
ENDCHAR
STARTCHAR U+2683
ENCODING 9859
SWIDTH 625 0
DWIDTH 10 0
BBX 9 9 0 0
BITMAP
FF80
8080
A280
8080
8080
8080
A280
8080
FF80
ENDCHAR
STARTCHAR U+2684
ENCODING 9860
SWIDTH 625 0
DWIDTH 10 0
BBX 9 9 0 0
BITMAP
FF80
8080
A280
8080
8880
8080
A280
8080
FF80
ENDCHAR
STARTCHAR U+2685
ENCODING 9861
SWIDTH 625 0
DWIDTH 10 0
BBX 9 9 0 0
BITMAP
FF80
8080
A280
8080
A280
8080
A280
8080
FF80
ENDCHAR
STARTCHAR U+2686
ENCODING 9862
SWIDTH 625 0
DWIDTH 10 0
BBX 9 9 0 0
BITMAP
3E00
4100
8080
8080
8280
8080
8080
4100
3E00
ENDCHAR
STARTCHAR U+2687
ENCODING 9863
SWIDTH 625 0
DWIDTH 10 0
BBX 9 9 0 0
BITMAP
3E00
4100
8080
8080
A280
8080
8080
4100
3E00
ENDCHAR
STARTCHAR U+2688
ENCODING 9864
SWIDTH 625 0
DWIDTH 10 0
BBX 9 9 0 0
BITMAP
3E00
7F00
FF80
FF80
FD80
FF80
FF80
7F00
3E00
ENDCHAR
STARTCHAR U+2689
ENCODING 9865
SWIDTH 625 0
DWIDTH 10 0
BBX 9 9 0 0
BITMAP
3E00
7F00
FF80
FF80
DD80
FF80
FF80
7F00
3E00
ENDCHAR
STARTCHAR U+26A0
ENCODING 9888
SWIDTH 625 0
DWIDTH 10 0
BBX 9 9 0 0
BITMAP
FF80
F780
F780
F780
F780
F780
FF80
F780
FF80
ENDCHAR
STARTCHAR U+26C4
ENCODING 9924
SWIDTH 625 0
DWIDTH 10 0
BBX 7 9 1 0
BITMAP
38
44
44
6C
82
82
82
44
38
ENDCHAR
STARTCHAR U+26D4
ENCODING 9940
SWIDTH 625 0
DWIDTH 10 0
BBX 9 9 0 0
BITMAP
3E00
7F00
FF80
8080
8080
FF80
FF80
7F00
3E00
ENDCHAR
STARTCHAR U+2706
ENCODING 9990
SWIDTH 625 0
DWIDTH 10 0
BBX 5 9 2 0
BITMAP
08
F8
88
88
F8
A8
D8
A8
F8
ENDCHAR
STARTCHAR U+2709
ENCODING 9993
SWIDTH 625 0
DWIDTH 10 0
BBX 9 7 0 1
BITMAP
FF80
C180
A280
9480
8880
8080
FF80
ENDCHAR
STARTCHAR U+2753
ENCODING 10067
SWIDTH 625 0
DWIDTH 10 0
BBX 9 9 0 0
BITMAP
FF80
E380
DD80
FD80
FB80
F780
FF80
F780
FF80
ENDCHAR
STARTCHAR U+2757
ENCODING 10071
SWIDTH 625 0
DWIDTH 10 0
BBX 9 9 0 0
BITMAP
FF80
F780
F780
F780
F780
F780
FF80
F780
FF80
ENDCHAR
STARTCHAR U+2776
ENCODING 10102
SWIDTH 625 0
DWIDTH 10 0
BBX 9 9 0 0
BITMAP
3E00
7F00
E780
F780
F780
F780
F780
7F00
3E00
ENDCHAR
STARTCHAR U+2777
ENCODING 10103
SWIDTH 625 0
DWIDTH 10 0
BBX 9 9 0 0
BITMAP
3E00
7F00
E780
FB80
F780
EF80
E380
7F00
3E00
ENDCHAR
STARTCHAR U+2778
ENCODING 10104
SWIDTH 625 0
DWIDTH 10 0
BBX 9 9 0 0
BITMAP
3E00
7F00
E780
FB80
E780
FB80
E780
7F00
3E00
ENDCHAR
STARTCHAR U+2779
ENCODING 10105
SWIDTH 625 0
DWIDTH 10 0
BBX 9 9 0 0
BITMAP
3E00
7F00
F380
EB80
EB80
E380
FB80
7F00
3E00
ENDCHAR
STARTCHAR U+277A
ENCODING 10106
SWIDTH 625 0
DWIDTH 10 0
BBX 9 9 0 0
BITMAP
3E00
7F00
E380
EF80
E380
FB80
E780
7F00
3E00
ENDCHAR
STARTCHAR U+277B
ENCODING 10107
SWIDTH 625 0
DWIDTH 10 0
BBX 9 9 0 0
BITMAP
3E00
7F00
F380
EF80
E380
EB80
E780
7F00
3E00
ENDCHAR
STARTCHAR U+277C
ENCODING 10108
SWIDTH 625 0
DWIDTH 10 0
BBX 9 9 0 0
BITMAP
3E00
7F00
E380
FB80
F780
F780
F780
7F00
3E00
ENDCHAR
STARTCHAR U+277D
ENCODING 10109
SWIDTH 625 0
DWIDTH 10 0
BBX 9 9 0 0
BITMAP
3E00
7F00
F380
EB80
E380
EB80
E780
7F00
3E00
ENDCHAR
STARTCHAR U+277E
ENCODING 10110
SWIDTH 625 0
DWIDTH 10 0
BBX 9 9 0 0
BITMAP
3E00
7F00
F380
EB80
E380
FB80
E780
7F00
3E00
ENDCHAR
STARTCHAR U+277F
ENCODING 10111
SWIDTH 625 0
DWIDTH 10 0
BBX 9 9 0 0
BITMAP
3E00
7F00
D980
D580
D580
D580
D380
7F00
3E00
ENDCHAR
STARTCHAR U+2780
ENCODING 10112
SWIDTH 625 0
DWIDTH 10 0
BBX 9 9 0 0
BITMAP
3E00
4100
9880
8880
8880
8880
8880
4100
3E00
ENDCHAR
STARTCHAR U+2781
ENCODING 10113
SWIDTH 625 0
DWIDTH 10 0
BBX 9 9 0 0
BITMAP
3E00
4100
9880
8480
8880
9080
9C80
4100
3E00
ENDCHAR
STARTCHAR U+2782
ENCODING 10114
SWIDTH 625 0
DWIDTH 10 0
BBX 9 9 0 0
BITMAP
3E00
4100
9880
8480
9880
8480
9880
4100
3E00
ENDCHAR
STARTCHAR U+2783
ENCODING 10115
SWIDTH 625 0
DWIDTH 10 0
BBX 9 9 0 0
BITMAP
3E00
4100
8C80
9480
9480
9C80
8480
4100
3E00
ENDCHAR
STARTCHAR U+2784
ENCODING 10116
SWIDTH 625 0
DWIDTH 10 0
BBX 9 9 0 0
BITMAP
3E00
4100
9C80
9080
9C80
8480
9880
4100
3E00
ENDCHAR
STARTCHAR U+2785
ENCODING 10117
SWIDTH 625 0
DWIDTH 10 0
BBX 9 9 0 0
BITMAP
3E00
4100
8C80
9080
9C80
9480
9880
4100
3E00
ENDCHAR
STARTCHAR U+2786
ENCODING 10118
SWIDTH 625 0
DWIDTH 10 0
BBX 9 9 0 0
BITMAP
3E00
4100
9C80
8480
8880
8880
8880
4100
3E00
ENDCHAR
STARTCHAR U+2787
ENCODING 10119
SWIDTH 625 0
DWIDTH 10 0
BBX 9 9 0 0
BITMAP
3E00
4100
8C80
9480
9C80
9480
9880
4100
3E00
ENDCHAR
STARTCHAR U+2788
ENCODING 10120
SWIDTH 625 0
DWIDTH 10 0
BBX 9 9 0 0
BITMAP
3E00
4100
8C80
9480
9C80
8480
9880
4100
3E00
ENDCHAR
STARTCHAR U+2789
ENCODING 10121
SWIDTH 625 0
DWIDTH 10 0
BBX 9 9 0 0
BITMAP
3E00
4100
A680
AA80
AA80
AA80
AC80
4100
3E00
ENDCHAR
STARTCHAR U+278A
ENCODING 10122
SWIDTH 625 0
DWIDTH 10 0
BBX 9 9 0 0
BITMAP
3E00
7F00
E780
F780
F780
F780
F780
7F00
3E00
ENDCHAR
STARTCHAR U+278B
ENCODING 10123
SWIDTH 625 0
DWIDTH 10 0
BBX 9 9 0 0
BITMAP
3E00
7F00
E780
FB80
F780
EF80
E380
7F00
3E00
ENDCHAR
STARTCHAR U+278C
ENCODING 10124
SWIDTH 625 0
DWIDTH 10 0
BBX 9 9 0 0
BITMAP
3E00
7F00
E780
FB80
E780
FB80
E780
7F00
3E00
ENDCHAR
STARTCHAR U+278D
ENCODING 10125
SWIDTH 625 0
DWIDTH 10 0
BBX 9 9 0 0
BITMAP
3E00
7F00
F380
EB80
EB80
E380
FB80
7F00
3E00
ENDCHAR
STARTCHAR U+278E
ENCODING 10126
SWIDTH 625 0
DWIDTH 10 0
BBX 9 9 0 0
BITMAP
3E00
7F00
E380
EF80
E380
FB80
E780
7F00
3E00
ENDCHAR
STARTCHAR U+278F
ENCODING 10127
SWIDTH 625 0
DWIDTH 10 0
BBX 9 9 0 0
BITMAP
3E00
7F00
F380
EF80
E380
EB80
E780
7F00
3E00
ENDCHAR
STARTCHAR U+2790
ENCODING 10128
SWIDTH 625 0
DWIDTH 10 0
BBX 9 9 0 0
BITMAP
3E00
7F00
E380
FB80
F780
F780
F780
7F00
3E00
ENDCHAR
STARTCHAR U+2791
ENCODING 10129
SWIDTH 625 0
DWIDTH 10 0
BBX 9 9 0 0
BITMAP
3E00
7F00
F380
EB80
E380
EB80
E780
7F00
3E00
ENDCHAR
STARTCHAR U+2792
ENCODING 10130
SWIDTH 625 0
DWIDTH 10 0
BBX 9 9 0 0
BITMAP
3E00
7F00
F380
EB80
E380
FB80
E780
7F00
3E00
ENDCHAR
STARTCHAR U+2793
ENCODING 10131
SWIDTH 625 0
DWIDTH 10 0
BBX 9 9 0 0
BITMAP
3E00
7F00
D980
D580
D580
D580
D380
7F00
3E00
ENDCHAR
STARTCHAR U+2800
ENCODING 10240
SWIDTH 375 0
DWIDTH 6 0
BBX 0 0 0 0
BITMAP
ENDCHAR
STARTCHAR U+2801
ENCODING 10241
SWIDTH 375 0
DWIDTH 6 0
BBX 1 1 1 7
BITMAP
80
ENDCHAR
STARTCHAR U+2802
ENCODING 10242
SWIDTH 375 0
DWIDTH 6 0
BBX 1 1 1 5
BITMAP
80
ENDCHAR
STARTCHAR U+2803
ENCODING 10243
SWIDTH 375 0
DWIDTH 6 0
BBX 1 3 1 5
BITMAP
80
00
80
ENDCHAR
STARTCHAR U+2804
ENCODING 10244
SWIDTH 375 0
DWIDTH 6 0
BBX 1 1 1 3
BITMAP
80
ENDCHAR
STARTCHAR U+2805
ENCODING 10245
SWIDTH 375 0
DWIDTH 6 0
BBX 1 5 1 3
BITMAP
80
00
00
00
80
ENDCHAR
STARTCHAR U+2806
ENCODING 10246
SWIDTH 375 0
DWIDTH 6 0
BBX 1 3 1 3
BITMAP
80
00
80
ENDCHAR
STARTCHAR U+2807
ENCODING 10247
SWIDTH 375 0
DWIDTH 6 0
BBX 1 5 1 3
BITMAP
80
00
80
00
80
ENDCHAR
STARTCHAR U+2808
ENCODING 10248
SWIDTH 375 0
DWIDTH 6 0
BBX 1 1 3 7
BITMAP
80
ENDCHAR
STARTCHAR U+2809
ENCODING 10249
SWIDTH 375 0
DWIDTH 6 0
BBX 3 1 1 7
BITMAP
A0
ENDCHAR
STARTCHAR U+280A
ENCODING 10250
SWIDTH 375 0
DWIDTH 6 0
BBX 3 3 1 5
BITMAP
20
00
80
ENDCHAR
STARTCHAR U+280B
ENCODING 10251
SWIDTH 375 0
DWIDTH 6 0
BBX 3 3 1 5
BITMAP
A0
00
80
ENDCHAR
STARTCHAR U+280C
ENCODING 10252
SWIDTH 375 0
DWIDTH 6 0
BBX 3 5 1 3
BITMAP
20
00
00
00
80
ENDCHAR
STARTCHAR U+280D
ENCODING 10253
SWIDTH 375 0
DWIDTH 6 0
BBX 3 5 1 3
BITMAP
A0
00
00
00
80
ENDCHAR
STARTCHAR U+280E
ENCODING 10254
SWIDTH 375 0
DWIDTH 6 0
BBX 3 5 1 3
BITMAP
20
00
80
00
80
ENDCHAR
STARTCHAR U+280F
ENCODING 10255
SWIDTH 375 0
DWIDTH 6 0
BBX 3 5 1 3
BITMAP
A0
00
80
00
80
ENDCHAR
STARTCHAR U+2810
ENCODING 10256
SWIDTH 375 0
DWIDTH 6 0
BBX 1 1 3 5
BITMAP
80
ENDCHAR
STARTCHAR U+2811
ENCODING 10257
SWIDTH 375 0
DWIDTH 6 0
BBX 3 3 1 5
BITMAP
80
00
20
ENDCHAR
STARTCHAR U+2812
ENCODING 10258
SWIDTH 375 0
DWIDTH 6 0
BBX 3 1 1 5
BITMAP
A0
ENDCHAR
STARTCHAR U+2813
ENCODING 10259
SWIDTH 375 0
DWIDTH 6 0
BBX 3 3 1 5
BITMAP
80
00
A0
ENDCHAR
STARTCHAR U+2814
ENCODING 10260
SWIDTH 375 0
DWIDTH 6 0
BBX 3 3 1 3
BITMAP
20
00
80
ENDCHAR
STARTCHAR U+2815
ENCODING 10261
SWIDTH 375 0
DWIDTH 6 0
BBX 3 5 1 3
BITMAP
80
00
20
00
80
ENDCHAR
STARTCHAR U+2816
ENCODING 10262
SWIDTH 375 0
DWIDTH 6 0
BBX 3 3 1 3
BITMAP
A0
00
80
ENDCHAR
STARTCHAR U+2817
ENCODING 10263
SWIDTH 375 0
DWIDTH 6 0
BBX 3 5 1 3
BITMAP
80
00
A0
00
80
ENDCHAR
STARTCHAR U+2818
ENCODING 10264
SWIDTH 375 0
DWIDTH 6 0
BBX 1 3 3 5
BITMAP
80
00
80
ENDCHAR
STARTCHAR U+2819
ENCODING 10265
SWIDTH 375 0
DWIDTH 6 0
BBX 3 3 1 5
BITMAP
A0
00
20
ENDCHAR
STARTCHAR U+281A
ENCODING 10266
SWIDTH 375 0
DWIDTH 6 0
BBX 3 3 1 5
BITMAP
20
00
A0
ENDCHAR
STARTCHAR U+281B
ENCODING 10267
SWIDTH 375 0
DWIDTH 6 0
BBX 3 3 1 5
BITMAP
A0
00
A0
ENDCHAR
STARTCHAR U+281C
ENCODING 10268
SWIDTH 375 0
DWIDTH 6 0
BBX 3 5 1 3
BITMAP
20
00
20
00
80
ENDCHAR
STARTCHAR U+281D
ENCODING 10269
SWIDTH 375 0
DWIDTH 6 0
BBX 3 5 1 3
BITMAP
A0
00
20
00
80
ENDCHAR
STARTCHAR U+281E
ENCODING 10270
SWIDTH 375 0
DWIDTH 6 0
BBX 3 5 1 3
BITMAP
20
00
A0
00
80
ENDCHAR
STARTCHAR U+281F
ENCODING 10271
SWIDTH 375 0
DWIDTH 6 0
BBX 3 5 1 3
BITMAP
A0
00
A0
00
80
ENDCHAR
STARTCHAR U+2820
ENCODING 10272
SWIDTH 375 0
DWIDTH 6 0
BBX 1 1 3 3
BITMAP
80
ENDCHAR
STARTCHAR U+2821
ENCODING 10273
SWIDTH 375 0
DWIDTH 6 0
BBX 3 5 1 3
BITMAP
80
00
00
00
20
ENDCHAR
STARTCHAR U+2822
ENCODING 10274
SWIDTH 375 0
DWIDTH 6 0
BBX 3 3 1 3
BITMAP
80
00
20
ENDCHAR
STARTCHAR U+2823
ENCODING 10275
SWIDTH 375 0
DWIDTH 6 0
BBX 3 5 1 3
BITMAP
80
00
80
00
20
ENDCHAR
STARTCHAR U+2824
ENCODING 10276
SWIDTH 375 0
DWIDTH 6 0
BBX 3 1 1 3
BITMAP
A0
ENDCHAR
STARTCHAR U+2825
ENCODING 10277
SWIDTH 375 0
DWIDTH 6 0
BBX 3 5 1 3
BITMAP
80
00
00
00
A0
ENDCHAR
STARTCHAR U+2826
ENCODING 10278
SWIDTH 375 0
DWIDTH 6 0
BBX 3 3 1 3
BITMAP
80
00
A0
ENDCHAR
STARTCHAR U+2827
ENCODING 10279
SWIDTH 375 0
DWIDTH 6 0
BBX 3 5 1 3
BITMAP
80
00
80
00
A0
ENDCHAR
STARTCHAR U+2828
ENCODING 10280
SWIDTH 375 0
DWIDTH 6 0
BBX 1 5 3 3
BITMAP
80
00
00
00
80
ENDCHAR
STARTCHAR U+2829
ENCODING 10281
SWIDTH 375 0
DWIDTH 6 0
BBX 3 5 1 3
BITMAP
A0
00
00
00
20
ENDCHAR
STARTCHAR U+282A
ENCODING 10282
SWIDTH 375 0
DWIDTH 6 0
BBX 3 5 1 3
BITMAP
20
00
80
00
20
ENDCHAR
STARTCHAR U+282B
ENCODING 10283
SWIDTH 375 0
DWIDTH 6 0
BBX 3 5 1 3
BITMAP
A0
00
80
00
20
ENDCHAR
STARTCHAR U+282C
ENCODING 10284
SWIDTH 375 0
DWIDTH 6 0
BBX 3 5 1 3
BITMAP
20
00
00
00
A0
ENDCHAR
STARTCHAR U+282D
ENCODING 10285
SWIDTH 375 0
DWIDTH 6 0
BBX 3 5 1 3
BITMAP
A0
00
00
00
A0
ENDCHAR
STARTCHAR U+282E
ENCODING 10286
SWIDTH 375 0
DWIDTH 6 0
BBX 3 5 1 3
BITMAP
20
00
80
00
A0
ENDCHAR
STARTCHAR U+282F
ENCODING 10287
SWIDTH 375 0
DWIDTH 6 0
BBX 3 5 1 3
BITMAP
A0
00
80
00
A0
ENDCHAR
STARTCHAR U+2830
ENCODING 10288
SWIDTH 375 0
DWIDTH 6 0
BBX 1 3 3 3
BITMAP
80
00
80
ENDCHAR
STARTCHAR U+2831
ENCODING 10289
SWIDTH 375 0
DWIDTH 6 0
BBX 3 5 1 3
BITMAP
80
00
20
00
20
ENDCHAR
STARTCHAR U+2832
ENCODING 10290
SWIDTH 375 0
DWIDTH 6 0
BBX 3 3 1 3
BITMAP
A0
00
20
ENDCHAR
STARTCHAR U+2833
ENCODING 10291
SWIDTH 375 0
DWIDTH 6 0
BBX 3 5 1 3
BITMAP
80
00
A0
00
20
ENDCHAR
STARTCHAR U+2834
ENCODING 10292
SWIDTH 375 0
DWIDTH 6 0
BBX 3 3 1 3
BITMAP
20
00
A0
ENDCHAR
STARTCHAR U+2835
ENCODING 10293
SWIDTH 375 0
DWIDTH 6 0
BBX 3 5 1 3
BITMAP
80
00
20
00
A0
ENDCHAR
STARTCHAR U+2836
ENCODING 10294
SWIDTH 375 0
DWIDTH 6 0
BBX 3 3 1 3
BITMAP
A0
00
A0
ENDCHAR
STARTCHAR U+2837
ENCODING 10295
SWIDTH 375 0
DWIDTH 6 0
BBX 3 5 1 3
BITMAP
80
00
A0
00
A0
ENDCHAR
STARTCHAR U+2838
ENCODING 10296
SWIDTH 375 0
DWIDTH 6 0
BBX 1 5 3 3
BITMAP
80
00
80
00
80
ENDCHAR
STARTCHAR U+2839
ENCODING 10297
SWIDTH 375 0
DWIDTH 6 0
BBX 3 5 1 3
BITMAP
A0
00
20
00
20
ENDCHAR
STARTCHAR U+283A
ENCODING 10298
SWIDTH 375 0
DWIDTH 6 0
BBX 3 5 1 3
BITMAP
20
00
A0
00
20
ENDCHAR
STARTCHAR U+283B
ENCODING 10299
SWIDTH 375 0
DWIDTH 6 0
BBX 3 5 1 3
BITMAP
A0
00
A0
00
20
ENDCHAR
STARTCHAR U+283C
ENCODING 10300
SWIDTH 375 0
DWIDTH 6 0
BBX 3 5 1 3
BITMAP
20
00
20
00
A0
ENDCHAR
STARTCHAR U+283D
ENCODING 10301
SWIDTH 375 0
DWIDTH 6 0
BBX 3 5 1 3
BITMAP
A0
00
20
00
A0
ENDCHAR
STARTCHAR U+283E
ENCODING 10302
SWIDTH 375 0
DWIDTH 6 0
BBX 3 5 1 3
BITMAP
20
00
A0
00
A0
ENDCHAR
STARTCHAR U+283F
ENCODING 10303
SWIDTH 375 0
DWIDTH 6 0
BBX 3 5 1 3
BITMAP
A0
00
A0
00
A0
ENDCHAR
STARTCHAR U+2840
ENCODING 10304
SWIDTH 375 0
DWIDTH 6 0
BBX 1 1 1 1
BITMAP
80
ENDCHAR
STARTCHAR U+2841
ENCODING 10305
SWIDTH 375 0
DWIDTH 6 0
BBX 1 7 1 1
BITMAP
80
00
00
00
00
00
80
ENDCHAR
STARTCHAR U+2842
ENCODING 10306
SWIDTH 375 0
DWIDTH 6 0
BBX 1 5 1 1
BITMAP
80
00
00
00
80
ENDCHAR
STARTCHAR U+2843
ENCODING 10307
SWIDTH 375 0
DWIDTH 6 0
BBX 1 7 1 1
BITMAP
80
00
80
00
00
00
80
ENDCHAR
STARTCHAR U+2844
ENCODING 10308
SWIDTH 375 0
DWIDTH 6 0
BBX 1 3 1 1
BITMAP
80
00
80
ENDCHAR
STARTCHAR U+2845
ENCODING 10309
SWIDTH 375 0
DWIDTH 6 0
BBX 1 7 1 1
BITMAP
80
00
00
00
80
00
80
ENDCHAR
STARTCHAR U+2846
ENCODING 10310
SWIDTH 375 0
DWIDTH 6 0
BBX 1 5 1 1
BITMAP
80
00
80
00
80
ENDCHAR
STARTCHAR U+2847
ENCODING 10311
SWIDTH 375 0
DWIDTH 6 0
BBX 1 7 1 1
BITMAP
80
00
80
00
80
00
80
ENDCHAR
STARTCHAR U+2848
ENCODING 10312
SWIDTH 375 0
DWIDTH 6 0
BBX 3 7 1 1
BITMAP
20
00
00
00
00
00
80
ENDCHAR
STARTCHAR U+2849
ENCODING 10313
SWIDTH 375 0
DWIDTH 6 0
BBX 3 7 1 1
BITMAP
A0
00
00
00
00
00
80
ENDCHAR
STARTCHAR U+284A
ENCODING 10314
SWIDTH 375 0
DWIDTH 6 0
BBX 3 7 1 1
BITMAP
20
00
80
00
00
00
80
ENDCHAR
STARTCHAR U+284B
ENCODING 10315
SWIDTH 375 0
DWIDTH 6 0
BBX 3 7 1 1
BITMAP
A0
00
80
00
00
00
80
ENDCHAR
STARTCHAR U+284C
ENCODING 10316
SWIDTH 375 0
DWIDTH 6 0
BBX 3 7 1 1
BITMAP
20
00
00
00
80
00
80
ENDCHAR
STARTCHAR U+284D
ENCODING 10317
SWIDTH 375 0
DWIDTH 6 0
BBX 3 7 1 1
BITMAP
A0
00
00
00
80
00
80
ENDCHAR
STARTCHAR U+284E
ENCODING 10318
SWIDTH 375 0
DWIDTH 6 0
BBX 3 7 1 1
BITMAP
20
00
80
00
80
00
80
ENDCHAR
STARTCHAR U+284F
ENCODING 10319
SWIDTH 375 0
DWIDTH 6 0
BBX 3 7 1 1
BITMAP
A0
00
80
00
80
00
80
ENDCHAR
STARTCHAR U+2850
ENCODING 10320
SWIDTH 375 0
DWIDTH 6 0
BBX 3 5 1 1
BITMAP
20
00
00
00
80
ENDCHAR
STARTCHAR U+2851
ENCODING 10321
SWIDTH 375 0
DWIDTH 6 0
BBX 3 7 1 1
BITMAP
80
00
20
00
00
00
80
ENDCHAR
STARTCHAR U+2852
ENCODING 10322
SWIDTH 375 0
DWIDTH 6 0
BBX 3 5 1 1
BITMAP
A0
00
00
00
80
ENDCHAR
STARTCHAR U+2853
ENCODING 10323
SWIDTH 375 0
DWIDTH 6 0
BBX 3 7 1 1
BITMAP
80
00
A0
00
00
00
80
ENDCHAR
STARTCHAR U+2854
ENCODING 10324
SWIDTH 375 0
DWIDTH 6 0
BBX 3 5 1 1
BITMAP
20
00
80
00
80
ENDCHAR
STARTCHAR U+2855
ENCODING 10325
SWIDTH 375 0
DWIDTH 6 0
BBX 3 7 1 1
BITMAP
80
00
20
00
80
00
80
ENDCHAR
STARTCHAR U+2856
ENCODING 10326
SWIDTH 375 0
DWIDTH 6 0
BBX 3 5 1 1
BITMAP
A0
00
80
00
80
ENDCHAR
STARTCHAR U+2857
ENCODING 10327
SWIDTH 375 0
DWIDTH 6 0
BBX 3 7 1 1
BITMAP
80
00
A0
00
80
00
80
ENDCHAR
STARTCHAR U+2858
ENCODING 10328
SWIDTH 375 0
DWIDTH 6 0
BBX 3 7 1 1
BITMAP
20
00
20
00
00
00
80
ENDCHAR
STARTCHAR U+2859
ENCODING 10329
SWIDTH 375 0
DWIDTH 6 0
BBX 3 7 1 1
BITMAP
A0
00
20
00
00
00
80
ENDCHAR
STARTCHAR U+285A
ENCODING 10330
SWIDTH 375 0
DWIDTH 6 0
BBX 3 7 1 1
BITMAP
20
00
A0
00
00
00
80
ENDCHAR
STARTCHAR U+285B
ENCODING 10331
SWIDTH 375 0
DWIDTH 6 0
BBX 3 7 1 1
BITMAP
A0
00
A0
00
00
00
80
ENDCHAR
STARTCHAR U+285C
ENCODING 10332
SWIDTH 375 0
DWIDTH 6 0
BBX 3 7 1 1
BITMAP
20
00
20
00
80
00
80
ENDCHAR
STARTCHAR U+285D
ENCODING 10333
SWIDTH 375 0
DWIDTH 6 0
BBX 3 7 1 1
BITMAP
A0
00
20
00
80
00
80
ENDCHAR
STARTCHAR U+285E
ENCODING 10334
SWIDTH 375 0
DWIDTH 6 0
BBX 3 7 1 1
BITMAP
20
00
A0
00
80
00
80
ENDCHAR
STARTCHAR U+285F
ENCODING 10335
SWIDTH 375 0
DWIDTH 6 0
BBX 3 7 1 1
BITMAP
A0
00
A0
00
80
00
80
ENDCHAR
STARTCHAR U+2860
ENCODING 10336
SWIDTH 375 0
DWIDTH 6 0
BBX 3 3 1 1
BITMAP
20
00
80
ENDCHAR
STARTCHAR U+2861
ENCODING 10337
SWIDTH 375 0
DWIDTH 6 0
BBX 3 7 1 1
BITMAP
80
00
00
00
20
00
80
ENDCHAR
STARTCHAR U+2862
ENCODING 10338
SWIDTH 375 0
DWIDTH 6 0
BBX 3 5 1 1
BITMAP
80
00
20
00
80
ENDCHAR
STARTCHAR U+2863
ENCODING 10339
SWIDTH 375 0
DWIDTH 6 0
BBX 3 7 1 1
BITMAP
80
00
80
00
20
00
80
ENDCHAR
STARTCHAR U+2864
ENCODING 10340
SWIDTH 375 0
DWIDTH 6 0
BBX 3 3 1 1
BITMAP
A0
00
80
ENDCHAR
STARTCHAR U+2865
ENCODING 10341
SWIDTH 375 0
DWIDTH 6 0
BBX 3 7 1 1
BITMAP
80
00
00
00
A0
00
80
ENDCHAR
STARTCHAR U+2866
ENCODING 10342
SWIDTH 375 0
DWIDTH 6 0
BBX 3 5 1 1
BITMAP
80
00
A0
00
80
ENDCHAR
STARTCHAR U+2867
ENCODING 10343
SWIDTH 375 0
DWIDTH 6 0
BBX 3 7 1 1
BITMAP
80
00
80
00
A0
00
80
ENDCHAR
STARTCHAR U+2868
ENCODING 10344
SWIDTH 375 0
DWIDTH 6 0
BBX 3 7 1 1
BITMAP
20
00
00
00
20
00
80
ENDCHAR
STARTCHAR U+2869
ENCODING 10345
SWIDTH 375 0
DWIDTH 6 0
BBX 3 7 1 1
BITMAP
A0
00
00
00
20
00
80
ENDCHAR
STARTCHAR U+286A
ENCODING 10346
SWIDTH 375 0
DWIDTH 6 0
BBX 3 7 1 1
BITMAP
20
00
80
00
20
00
80
ENDCHAR
STARTCHAR U+286B
ENCODING 10347
SWIDTH 375 0
DWIDTH 6 0
BBX 3 7 1 1
BITMAP
A0
00
80
00
20
00
80
ENDCHAR
STARTCHAR U+286C
ENCODING 10348
SWIDTH 375 0
DWIDTH 6 0
BBX 3 7 1 1
BITMAP
20
00
00
00
A0
00
80
ENDCHAR
STARTCHAR U+286D
ENCODING 10349
SWIDTH 375 0
DWIDTH 6 0
BBX 3 7 1 1
BITMAP
A0
00
00
00
A0
00
80
ENDCHAR
STARTCHAR U+286E
ENCODING 10350
SWIDTH 375 0
DWIDTH 6 0
BBX 3 7 1 1
BITMAP
20
00
80
00
A0
00
80
ENDCHAR
STARTCHAR U+286F
ENCODING 10351
SWIDTH 375 0
DWIDTH 6 0
BBX 3 7 1 1
BITMAP
A0
00
80
00
A0
00
80
ENDCHAR
STARTCHAR U+2870
ENCODING 10352
SWIDTH 375 0
DWIDTH 6 0
BBX 3 5 1 1
BITMAP
20
00
20
00
80
ENDCHAR
STARTCHAR U+2871
ENCODING 10353
SWIDTH 375 0
DWIDTH 6 0
BBX 3 7 1 1
BITMAP
80
00
20
00
20
00
80
ENDCHAR
STARTCHAR U+2872
ENCODING 10354
SWIDTH 375 0
DWIDTH 6 0
BBX 3 5 1 1
BITMAP
A0
00
20
00
80
ENDCHAR
STARTCHAR U+2873
ENCODING 10355
SWIDTH 375 0
DWIDTH 6 0
BBX 3 7 1 1
BITMAP
80
00
A0
00
20
00
80
ENDCHAR
STARTCHAR U+2874
ENCODING 10356
SWIDTH 375 0
DWIDTH 6 0
BBX 3 5 1 1
BITMAP
20
00
A0
00
80
ENDCHAR
STARTCHAR U+2875
ENCODING 10357
SWIDTH 375 0
DWIDTH 6 0
BBX 3 7 1 1
BITMAP
80
00
20
00
A0
00
80
ENDCHAR
STARTCHAR U+2876
ENCODING 10358
SWIDTH 375 0
DWIDTH 6 0
BBX 3 5 1 1
BITMAP
A0
00
A0
00
80
ENDCHAR
STARTCHAR U+2877
ENCODING 10359
SWIDTH 375 0
DWIDTH 6 0
BBX 3 7 1 1
BITMAP
80
00
A0
00
A0
00
80
ENDCHAR
STARTCHAR U+2878
ENCODING 10360
SWIDTH 375 0
DWIDTH 6 0
BBX 3 7 1 1
BITMAP
20
00
20
00
20
00
80
ENDCHAR
STARTCHAR U+2879
ENCODING 10361
SWIDTH 375 0
DWIDTH 6 0
BBX 3 7 1 1
BITMAP
A0
00
20
00
20
00
80
ENDCHAR
STARTCHAR U+287A
ENCODING 10362
SWIDTH 375 0
DWIDTH 6 0
BBX 3 7 1 1
BITMAP
20
00
A0
00
20
00
80
ENDCHAR
STARTCHAR U+287B
ENCODING 10363
SWIDTH 375 0
DWIDTH 6 0
BBX 3 7 1 1
BITMAP
A0
00
A0
00
20
00
80
ENDCHAR
STARTCHAR U+287C
ENCODING 10364
SWIDTH 375 0
DWIDTH 6 0
BBX 3 7 1 1
BITMAP
20
00
20
00
A0
00
80
ENDCHAR
STARTCHAR U+287D
ENCODING 10365
SWIDTH 375 0
DWIDTH 6 0
BBX 3 7 1 1
BITMAP
A0
00
20
00
A0
00
80
ENDCHAR
STARTCHAR U+287E
ENCODING 10366
SWIDTH 375 0
DWIDTH 6 0
BBX 3 7 1 1
BITMAP
20
00
A0
00
A0
00
80
ENDCHAR
STARTCHAR U+287F
ENCODING 10367
SWIDTH 375 0
DWIDTH 6 0
BBX 3 7 1 1
BITMAP
A0
00
A0
00
A0
00
80
ENDCHAR
STARTCHAR U+2880
ENCODING 10368
SWIDTH 375 0
DWIDTH 6 0
BBX 1 1 3 1
BITMAP
80
ENDCHAR
STARTCHAR U+2881
ENCODING 10369
SWIDTH 375 0
DWIDTH 6 0
BBX 3 7 1 1
BITMAP
80
00
00
00
00
00
20
ENDCHAR
STARTCHAR U+2882
ENCODING 10370
SWIDTH 375 0
DWIDTH 6 0
BBX 3 5 1 1
BITMAP
80
00
00
00
20
ENDCHAR
STARTCHAR U+2883
ENCODING 10371
SWIDTH 375 0
DWIDTH 6 0
BBX 3 7 1 1
BITMAP
80
00
80
00
00
00
20
ENDCHAR
STARTCHAR U+2884
ENCODING 10372
SWIDTH 375 0
DWIDTH 6 0
BBX 3 3 1 1
BITMAP
80
00
20
ENDCHAR
STARTCHAR U+2885
ENCODING 10373
SWIDTH 375 0
DWIDTH 6 0
BBX 3 7 1 1
BITMAP
80
00
00
00
80
00
20
ENDCHAR
STARTCHAR U+2886
ENCODING 10374
SWIDTH 375 0
DWIDTH 6 0
BBX 3 5 1 1
BITMAP
80
00
80
00
20
ENDCHAR
STARTCHAR U+2887
ENCODING 10375
SWIDTH 375 0
DWIDTH 6 0
BBX 3 7 1 1
BITMAP
80
00
80
00
80
00
20
ENDCHAR
STARTCHAR U+2888
ENCODING 10376
SWIDTH 375 0
DWIDTH 6 0
BBX 1 7 3 1
BITMAP
80
00
00
00
00
00
80
ENDCHAR
STARTCHAR U+2889
ENCODING 10377
SWIDTH 375 0
DWIDTH 6 0
BBX 3 7 1 1
BITMAP
A0
00
00
00
00
00
20
ENDCHAR
STARTCHAR U+288A
ENCODING 10378
SWIDTH 375 0
DWIDTH 6 0
BBX 3 7 1 1
BITMAP
20
00
80
00
00
00
20
ENDCHAR
STARTCHAR U+288B
ENCODING 10379
SWIDTH 375 0
DWIDTH 6 0
BBX 3 7 1 1
BITMAP
A0
00
80
00
00
00
20
ENDCHAR
STARTCHAR U+288C
ENCODING 10380
SWIDTH 375 0
DWIDTH 6 0
BBX 3 7 1 1
BITMAP
20
00
00
00
80
00
20
ENDCHAR
STARTCHAR U+288D
ENCODING 10381
SWIDTH 375 0
DWIDTH 6 0
BBX 3 7 1 1
BITMAP
A0
00
00
00
80
00
20
ENDCHAR
STARTCHAR U+288E
ENCODING 10382
SWIDTH 375 0
DWIDTH 6 0
BBX 3 7 1 1
BITMAP
20
00
80
00
80
00
20
ENDCHAR
STARTCHAR U+288F
ENCODING 10383
SWIDTH 375 0
DWIDTH 6 0
BBX 3 7 1 1
BITMAP
A0
00
80
00
80
00
20
ENDCHAR
STARTCHAR U+2890
ENCODING 10384
SWIDTH 375 0
DWIDTH 6 0
BBX 1 5 3 1
BITMAP
80
00
00
00
80
ENDCHAR
STARTCHAR U+2891
ENCODING 10385
SWIDTH 375 0
DWIDTH 6 0
BBX 3 7 1 1
BITMAP
80
00
20
00
00
00
20
ENDCHAR
STARTCHAR U+2892
ENCODING 10386
SWIDTH 375 0
DWIDTH 6 0
BBX 3 5 1 1
BITMAP
A0
00
00
00
20
ENDCHAR
STARTCHAR U+2893
ENCODING 10387
SWIDTH 375 0
DWIDTH 6 0
BBX 3 7 1 1
BITMAP
80
00
A0
00
00
00
20
ENDCHAR
STARTCHAR U+2894
ENCODING 10388
SWIDTH 375 0
DWIDTH 6 0
BBX 3 5 1 1
BITMAP
20
00
80
00
20
ENDCHAR
STARTCHAR U+2895
ENCODING 10389
SWIDTH 375 0
DWIDTH 6 0
BBX 3 7 1 1
BITMAP
80
00
20
00
80
00
20
ENDCHAR
STARTCHAR U+2896
ENCODING 10390
SWIDTH 375 0
DWIDTH 6 0
BBX 3 5 1 1
BITMAP
A0
00
80
00
20
ENDCHAR
STARTCHAR U+2897
ENCODING 10391
SWIDTH 375 0
DWIDTH 6 0
BBX 3 7 1 1
BITMAP
80
00
A0
00
80
00
20
ENDCHAR
STARTCHAR U+2898
ENCODING 10392
SWIDTH 375 0
DWIDTH 6 0
BBX 1 7 3 1
BITMAP
80
00
80
00
00
00
80
ENDCHAR
STARTCHAR U+2899
ENCODING 10393
SWIDTH 375 0
DWIDTH 6 0
BBX 3 7 1 1
BITMAP
A0
00
20
00
00
00
20
ENDCHAR
STARTCHAR U+289A
ENCODING 10394
SWIDTH 375 0
DWIDTH 6 0
BBX 3 7 1 1
BITMAP
20
00
A0
00
00
00
20
ENDCHAR
STARTCHAR U+289B
ENCODING 10395
SWIDTH 375 0
DWIDTH 6 0
BBX 3 7 1 1
BITMAP
A0
00
A0
00
00
00
20
ENDCHAR
STARTCHAR U+289C
ENCODING 10396
SWIDTH 375 0
DWIDTH 6 0
BBX 3 7 1 1
BITMAP
20
00
20
00
80
00
20
ENDCHAR
STARTCHAR U+289D
ENCODING 10397
SWIDTH 375 0
DWIDTH 6 0
BBX 3 7 1 1
BITMAP
A0
00
20
00
80
00
20
ENDCHAR
STARTCHAR U+289E
ENCODING 10398
SWIDTH 375 0
DWIDTH 6 0
BBX 3 7 1 1
BITMAP
20
00
A0
00
80
00
20
ENDCHAR
STARTCHAR U+289F
ENCODING 10399
SWIDTH 375 0
DWIDTH 6 0
BBX 3 7 1 1
BITMAP
A0
00
A0
00
80
00
20
ENDCHAR
STARTCHAR U+28A0
ENCODING 10400
SWIDTH 375 0
DWIDTH 6 0
BBX 1 3 3 1
BITMAP
80
00
80
ENDCHAR
STARTCHAR U+28A1
ENCODING 10401
SWIDTH 375 0
DWIDTH 6 0
BBX 3 7 1 1
BITMAP
80
00
00
00
20
00
20
ENDCHAR
STARTCHAR U+28A2
ENCODING 10402
SWIDTH 375 0
DWIDTH 6 0
BBX 3 5 1 1
BITMAP
80
00
20
00
20
ENDCHAR
STARTCHAR U+28A3
ENCODING 10403
SWIDTH 375 0
DWIDTH 6 0
BBX 3 7 1 1
BITMAP
80
00
80
00
20
00
20
ENDCHAR
STARTCHAR U+28A4
ENCODING 10404
SWIDTH 375 0
DWIDTH 6 0
BBX 3 3 1 1
BITMAP
A0
00
20
ENDCHAR
STARTCHAR U+28A5
ENCODING 10405
SWIDTH 375 0
DWIDTH 6 0
BBX 3 7 1 1
BITMAP
80
00
00
00
A0
00
20
ENDCHAR
STARTCHAR U+28A6
ENCODING 10406
SWIDTH 375 0
DWIDTH 6 0
BBX 3 5 1 1
BITMAP
80
00
A0
00
20
ENDCHAR
STARTCHAR U+28A7
ENCODING 10407
SWIDTH 375 0
DWIDTH 6 0
BBX 3 7 1 1
BITMAP
80
00
80
00
A0
00
20
ENDCHAR
STARTCHAR U+28A8
ENCODING 10408
SWIDTH 375 0
DWIDTH 6 0
BBX 1 7 3 1
BITMAP
80
00
00
00
80
00
80
ENDCHAR
STARTCHAR U+28A9
ENCODING 10409
SWIDTH 375 0
DWIDTH 6 0
BBX 3 7 1 1
BITMAP
A0
00
00
00
20
00
20
ENDCHAR
STARTCHAR U+28AA
ENCODING 10410
SWIDTH 375 0
DWIDTH 6 0
BBX 3 7 1 1
BITMAP
20
00
80
00
20
00
20
ENDCHAR
STARTCHAR U+28AB
ENCODING 10411
SWIDTH 375 0
DWIDTH 6 0
BBX 3 7 1 1
BITMAP
A0
00
80
00
20
00
20
ENDCHAR
STARTCHAR U+28AC
ENCODING 10412
SWIDTH 375 0
DWIDTH 6 0
BBX 3 7 1 1
BITMAP
20
00
00
00
A0
00
20
ENDCHAR
STARTCHAR U+28AD
ENCODING 10413
SWIDTH 375 0
DWIDTH 6 0
BBX 3 7 1 1
BITMAP
A0
00
00
00
A0
00
20
ENDCHAR
STARTCHAR U+28AE
ENCODING 10414
SWIDTH 375 0
DWIDTH 6 0
BBX 3 7 1 1
BITMAP
20
00
80
00
A0
00
20
ENDCHAR
STARTCHAR U+28AF
ENCODING 10415
SWIDTH 375 0
DWIDTH 6 0
BBX 3 7 1 1
BITMAP
A0
00
80
00
A0
00
20
ENDCHAR
STARTCHAR U+28B0
ENCODING 10416
SWIDTH 375 0
DWIDTH 6 0
BBX 1 5 3 1
BITMAP
80
00
80
00
80
ENDCHAR
STARTCHAR U+28B1
ENCODING 10417
SWIDTH 375 0
DWIDTH 6 0
BBX 3 7 1 1
BITMAP
80
00
20
00
20
00
20
ENDCHAR
STARTCHAR U+28B2
ENCODING 10418
SWIDTH 375 0
DWIDTH 6 0
BBX 3 5 1 1
BITMAP
A0
00
20
00
20
ENDCHAR
STARTCHAR U+28B3
ENCODING 10419
SWIDTH 375 0
DWIDTH 6 0
BBX 3 7 1 1
BITMAP
80
00
A0
00
20
00
20
ENDCHAR
STARTCHAR U+28B4
ENCODING 10420
SWIDTH 375 0
DWIDTH 6 0
BBX 3 5 1 1
BITMAP
20
00
A0
00
20
ENDCHAR
STARTCHAR U+28B5
ENCODING 10421
SWIDTH 375 0
DWIDTH 6 0
BBX 3 7 1 1
BITMAP
80
00
20
00
A0
00
20
ENDCHAR
STARTCHAR U+28B6
ENCODING 10422
SWIDTH 375 0
DWIDTH 6 0
BBX 3 5 1 1
BITMAP
A0
00
A0
00
20
ENDCHAR
STARTCHAR U+28B7
ENCODING 10423
SWIDTH 375 0
DWIDTH 6 0
BBX 3 7 1 1
BITMAP
80
00
A0
00
A0
00
20
ENDCHAR
STARTCHAR U+28B8
ENCODING 10424
SWIDTH 375 0
DWIDTH 6 0
BBX 1 7 3 1
BITMAP
80
00
80
00
80
00
80
ENDCHAR
STARTCHAR U+28B9
ENCODING 10425
SWIDTH 375 0
DWIDTH 6 0
BBX 3 7 1 1
BITMAP
A0
00
20
00
20
00
20
ENDCHAR
STARTCHAR U+28BA
ENCODING 10426
SWIDTH 375 0
DWIDTH 6 0
BBX 3 7 1 1
BITMAP
20
00
A0
00
20
00
20
ENDCHAR
STARTCHAR U+28BB
ENCODING 10427
SWIDTH 375 0
DWIDTH 6 0
BBX 3 7 1 1
BITMAP
A0
00
A0
00
20
00
20
ENDCHAR
STARTCHAR U+28BC
ENCODING 10428
SWIDTH 375 0
DWIDTH 6 0
BBX 3 7 1 1
BITMAP
20
00
20
00
A0
00
20
ENDCHAR
STARTCHAR U+28BD
ENCODING 10429
SWIDTH 375 0
DWIDTH 6 0
BBX 3 7 1 1
BITMAP
A0
00
20
00
A0
00
20
ENDCHAR
STARTCHAR U+28BE
ENCODING 10430
SWIDTH 375 0
DWIDTH 6 0
BBX 3 7 1 1
BITMAP
20
00
A0
00
A0
00
20
ENDCHAR
STARTCHAR U+28BF
ENCODING 10431
SWIDTH 375 0
DWIDTH 6 0
BBX 3 7 1 1
BITMAP
A0
00
A0
00
A0
00
20
ENDCHAR
STARTCHAR U+28C0
ENCODING 10432
SWIDTH 375 0
DWIDTH 6 0
BBX 3 1 1 1
BITMAP
A0
ENDCHAR
STARTCHAR U+28C1
ENCODING 10433
SWIDTH 375 0
DWIDTH 6 0
BBX 3 7 1 1
BITMAP
80
00
00
00
00
00
A0
ENDCHAR
STARTCHAR U+28C2
ENCODING 10434
SWIDTH 375 0
DWIDTH 6 0
BBX 3 5 1 1
BITMAP
80
00
00
00
A0
ENDCHAR
STARTCHAR U+28C3
ENCODING 10435
SWIDTH 375 0
DWIDTH 6 0
BBX 3 7 1 1
BITMAP
80
00
80
00
00
00
A0
ENDCHAR
STARTCHAR U+28C4
ENCODING 10436
SWIDTH 375 0
DWIDTH 6 0
BBX 3 3 1 1
BITMAP
80
00
A0
ENDCHAR
STARTCHAR U+28C5
ENCODING 10437
SWIDTH 375 0
DWIDTH 6 0
BBX 3 7 1 1
BITMAP
80
00
00
00
80
00
A0
ENDCHAR
STARTCHAR U+28C6
ENCODING 10438
SWIDTH 375 0
DWIDTH 6 0
BBX 3 5 1 1
BITMAP
80
00
80
00
A0
ENDCHAR
STARTCHAR U+28C7
ENCODING 10439
SWIDTH 375 0
DWIDTH 6 0
BBX 3 7 1 1
BITMAP
80
00
80
00
80
00
A0
ENDCHAR
STARTCHAR U+28C8
ENCODING 10440
SWIDTH 375 0
DWIDTH 6 0
BBX 3 7 1 1
BITMAP
20
00
00
00
00
00
A0
ENDCHAR
STARTCHAR U+28C9
ENCODING 10441
SWIDTH 375 0
DWIDTH 6 0
BBX 3 7 1 1
BITMAP
A0
00
00
00
00
00
A0
ENDCHAR
STARTCHAR U+28CA
ENCODING 10442
SWIDTH 375 0
DWIDTH 6 0
BBX 3 7 1 1
BITMAP
20
00
80
00
00
00
A0
ENDCHAR
STARTCHAR U+28CB
ENCODING 10443
SWIDTH 375 0
DWIDTH 6 0
BBX 3 7 1 1
BITMAP
A0
00
80
00
00
00
A0
ENDCHAR
STARTCHAR U+28CC
ENCODING 10444
SWIDTH 375 0
DWIDTH 6 0
BBX 3 7 1 1
BITMAP
20
00
00
00
80
00
A0
ENDCHAR
STARTCHAR U+28CD
ENCODING 10445
SWIDTH 375 0
DWIDTH 6 0
BBX 3 7 1 1
BITMAP
A0
00
00
00
80
00
A0
ENDCHAR
STARTCHAR U+28CE
ENCODING 10446
SWIDTH 375 0
DWIDTH 6 0
BBX 3 7 1 1
BITMAP
20
00
80
00
80
00
A0
ENDCHAR
STARTCHAR U+28CF
ENCODING 10447
SWIDTH 375 0
DWIDTH 6 0
BBX 3 7 1 1
BITMAP
A0
00
80
00
80
00
A0
ENDCHAR
STARTCHAR U+28D0
ENCODING 10448
SWIDTH 375 0
DWIDTH 6 0
BBX 3 5 1 1
BITMAP
20
00
00
00
A0
ENDCHAR
STARTCHAR U+28D1
ENCODING 10449
SWIDTH 375 0
DWIDTH 6 0
BBX 3 7 1 1
BITMAP
80
00
20
00
00
00
A0
ENDCHAR
STARTCHAR U+28D2
ENCODING 10450
SWIDTH 375 0
DWIDTH 6 0
BBX 3 5 1 1
BITMAP
A0
00
00
00
A0
ENDCHAR
STARTCHAR U+28D3
ENCODING 10451
SWIDTH 375 0
DWIDTH 6 0
BBX 3 7 1 1
BITMAP
80
00
A0
00
00
00
A0
ENDCHAR
STARTCHAR U+28D4
ENCODING 10452
SWIDTH 375 0
DWIDTH 6 0
BBX 3 5 1 1
BITMAP
20
00
80
00
A0
ENDCHAR
STARTCHAR U+28D5
ENCODING 10453
SWIDTH 375 0
DWIDTH 6 0
BBX 3 7 1 1
BITMAP
80
00
20
00
80
00
A0
ENDCHAR
STARTCHAR U+28D6
ENCODING 10454
SWIDTH 375 0
DWIDTH 6 0
BBX 3 5 1 1
BITMAP
A0
00
80
00
A0
ENDCHAR
STARTCHAR U+28D7
ENCODING 10455
SWIDTH 375 0
DWIDTH 6 0
BBX 3 7 1 1
BITMAP
80
00
A0
00
80
00
A0
ENDCHAR
STARTCHAR U+28D8
ENCODING 10456
SWIDTH 375 0
DWIDTH 6 0
BBX 3 7 1 1
BITMAP
20
00
20
00
00
00
A0
ENDCHAR
STARTCHAR U+28D9
ENCODING 10457
SWIDTH 375 0
DWIDTH 6 0
BBX 3 7 1 1
BITMAP
A0
00
20
00
00
00
A0
ENDCHAR
STARTCHAR U+28DA
ENCODING 10458
SWIDTH 375 0
DWIDTH 6 0
BBX 3 7 1 1
BITMAP
20
00
A0
00
00
00
A0
ENDCHAR
STARTCHAR U+28DB
ENCODING 10459
SWIDTH 375 0
DWIDTH 6 0
BBX 3 7 1 1
BITMAP
A0
00
A0
00
00
00
A0
ENDCHAR
STARTCHAR U+28DC
ENCODING 10460
SWIDTH 375 0
DWIDTH 6 0
BBX 3 7 1 1
BITMAP
20
00
20
00
80
00
A0
ENDCHAR
STARTCHAR U+28DD
ENCODING 10461
SWIDTH 375 0
DWIDTH 6 0
BBX 3 7 1 1
BITMAP
A0
00
20
00
80
00
A0
ENDCHAR
STARTCHAR U+28DE
ENCODING 10462
SWIDTH 375 0
DWIDTH 6 0
BBX 3 7 1 1
BITMAP
20
00
A0
00
80
00
A0
ENDCHAR
STARTCHAR U+28DF
ENCODING 10463
SWIDTH 375 0
DWIDTH 6 0
BBX 3 7 1 1
BITMAP
A0
00
A0
00
80
00
A0
ENDCHAR
STARTCHAR U+28E0
ENCODING 10464
SWIDTH 375 0
DWIDTH 6 0
BBX 3 3 1 1
BITMAP
20
00
A0
ENDCHAR
STARTCHAR U+28E1
ENCODING 10465
SWIDTH 375 0
DWIDTH 6 0
BBX 3 7 1 1
BITMAP
80
00
00
00
20
00
A0
ENDCHAR
STARTCHAR U+28E2
ENCODING 10466
SWIDTH 375 0
DWIDTH 6 0
BBX 3 5 1 1
BITMAP
80
00
20
00
A0
ENDCHAR
STARTCHAR U+28E3
ENCODING 10467
SWIDTH 375 0
DWIDTH 6 0
BBX 3 7 1 1
BITMAP
80
00
80
00
20
00
A0
ENDCHAR
STARTCHAR U+28E4
ENCODING 10468
SWIDTH 375 0
DWIDTH 6 0
BBX 3 3 1 1
BITMAP
A0
00
A0
ENDCHAR
STARTCHAR U+28E5
ENCODING 10469
SWIDTH 375 0
DWIDTH 6 0
BBX 3 7 1 1
BITMAP
80
00
00
00
A0
00
A0
ENDCHAR
STARTCHAR U+28E6
ENCODING 10470
SWIDTH 375 0
DWIDTH 6 0
BBX 3 5 1 1
BITMAP
80
00
A0
00
A0
ENDCHAR
STARTCHAR U+28E7
ENCODING 10471
SWIDTH 375 0
DWIDTH 6 0
BBX 3 7 1 1
BITMAP
80
00
80
00
A0
00
A0
ENDCHAR
STARTCHAR U+28E8
ENCODING 10472
SWIDTH 375 0
DWIDTH 6 0
BBX 3 7 1 1
BITMAP
20
00
00
00
20
00
A0
ENDCHAR
STARTCHAR U+28E9
ENCODING 10473
SWIDTH 375 0
DWIDTH 6 0
BBX 3 7 1 1
BITMAP
A0
00
00
00
20
00
A0
ENDCHAR
STARTCHAR U+28EA
ENCODING 10474
SWIDTH 375 0
DWIDTH 6 0
BBX 3 7 1 1
BITMAP
20
00
80
00
20
00
A0
ENDCHAR
STARTCHAR U+28EB
ENCODING 10475
SWIDTH 375 0
DWIDTH 6 0
BBX 3 7 1 1
BITMAP
A0
00
80
00
20
00
A0
ENDCHAR
STARTCHAR U+28EC
ENCODING 10476
SWIDTH 375 0
DWIDTH 6 0
BBX 3 7 1 1
BITMAP
20
00
00
00
A0
00
A0
ENDCHAR
STARTCHAR U+28ED
ENCODING 10477
SWIDTH 375 0
DWIDTH 6 0
BBX 3 7 1 1
BITMAP
A0
00
00
00
A0
00
A0
ENDCHAR
STARTCHAR U+28EE
ENCODING 10478
SWIDTH 375 0
DWIDTH 6 0
BBX 3 7 1 1
BITMAP
20
00
80
00
A0
00
A0
ENDCHAR
STARTCHAR U+28EF
ENCODING 10479
SWIDTH 375 0
DWIDTH 6 0
BBX 3 7 1 1
BITMAP
A0
00
80
00
A0
00
A0
ENDCHAR
STARTCHAR U+28F0
ENCODING 10480
SWIDTH 375 0
DWIDTH 6 0
BBX 3 5 1 1
BITMAP
20
00
20
00
A0
ENDCHAR
STARTCHAR U+28F1
ENCODING 10481
SWIDTH 375 0
DWIDTH 6 0
BBX 3 7 1 1
BITMAP
80
00
20
00
20
00
A0
ENDCHAR
STARTCHAR U+28F2
ENCODING 10482
SWIDTH 375 0
DWIDTH 6 0
BBX 3 5 1 1
BITMAP
A0
00
20
00
A0
ENDCHAR
STARTCHAR U+28F3
ENCODING 10483
SWIDTH 375 0
DWIDTH 6 0
BBX 3 7 1 1
BITMAP
80
00
A0
00
20
00
A0
ENDCHAR
STARTCHAR U+28F4
ENCODING 10484
SWIDTH 375 0
DWIDTH 6 0
BBX 3 5 1 1
BITMAP
20
00
A0
00
A0
ENDCHAR
STARTCHAR U+28F5
ENCODING 10485
SWIDTH 375 0
DWIDTH 6 0
BBX 3 7 1 1
BITMAP
80
00
20
00
A0
00
A0
ENDCHAR
STARTCHAR U+28F6
ENCODING 10486
SWIDTH 375 0
DWIDTH 6 0
BBX 3 5 1 1
BITMAP
A0
00
A0
00
A0
ENDCHAR
STARTCHAR U+28F7
ENCODING 10487
SWIDTH 375 0
DWIDTH 6 0
BBX 3 7 1 1
BITMAP
80
00
A0
00
A0
00
A0
ENDCHAR
STARTCHAR U+28F8
ENCODING 10488
SWIDTH 375 0
DWIDTH 6 0
BBX 3 7 1 1
BITMAP
20
00
20
00
20
00
A0
ENDCHAR
STARTCHAR U+28F9
ENCODING 10489
SWIDTH 375 0
DWIDTH 6 0
BBX 3 7 1 1
BITMAP
A0
00
20
00
20
00
A0
ENDCHAR
STARTCHAR U+28FA
ENCODING 10490
SWIDTH 375 0
DWIDTH 6 0
BBX 3 7 1 1
BITMAP
20
00
A0
00
20
00
A0
ENDCHAR
STARTCHAR U+28FB
ENCODING 10491
SWIDTH 375 0
DWIDTH 6 0
BBX 3 7 1 1
BITMAP
A0
00
A0
00
20
00
A0
ENDCHAR
STARTCHAR U+28FC
ENCODING 10492
SWIDTH 375 0
DWIDTH 6 0
BBX 3 7 1 1
BITMAP
20
00
20
00
A0
00
A0
ENDCHAR
STARTCHAR U+28FD
ENCODING 10493
SWIDTH 375 0
DWIDTH 6 0
BBX 3 7 1 1
BITMAP
A0
00
20
00
A0
00
A0
ENDCHAR
STARTCHAR U+28FE
ENCODING 10494
SWIDTH 375 0
DWIDTH 6 0
BBX 3 7 1 1
BITMAP
20
00
A0
00
A0
00
A0
ENDCHAR
STARTCHAR U+28FF
ENCODING 10495
SWIDTH 375 0
DWIDTH 6 0
BBX 3 7 1 1
BITMAP
A0
00
A0
00
A0
00
A0
ENDCHAR
STARTCHAR U+3000
ENCODING 12288
SWIDTH 625 0
DWIDTH 10 0
BBX 0 0 0 0
BITMAP
ENDCHAR
STARTCHAR U+3001
ENCODING 12289
SWIDTH 625 0
DWIDTH 10 0
BBX 2 3 0 0
BITMAP
80
40
40
ENDCHAR
STARTCHAR U+3002
ENCODING 12290
SWIDTH 625 0
DWIDTH 10 0
BBX 4 4 0 0
BITMAP
60
90
90
60
ENDCHAR
STARTCHAR U+3003
ENCODING 12291
SWIDTH 625 0
DWIDTH 10 0
BBX 5 6 2 2
BITMAP
48
48
48
48
90
90
ENDCHAR
STARTCHAR U+3004
ENCODING 12292
SWIDTH 625 0
DWIDTH 10 0
BBX 9 9 0 0
BITMAP
3E00
4100
AB80
AC80
AA80
A980
4E80
0100
3E00
ENDCHAR
STARTCHAR U+3005
ENCODING 12293
SWIDTH 625 0
DWIDTH 10 0
BBX 9 9 0 0
BITMAP
2000
3F80
2080
4100
8100
3200
0C00
0200
0100
ENDCHAR
STARTCHAR U+3006
ENCODING 12294
SWIDTH 625 0
DWIDTH 10 0
BBX 9 9 0 0
BITMAP
0080
0100
1A00
2400
4A00
5000
A000
C000
8000
ENDCHAR
STARTCHAR U+3007
ENCODING 12295
SWIDTH 625 0
DWIDTH 10 0
BBX 9 9 0 0
BITMAP
3E00
4100
8080
8080
8080
8080
8080
4100
3E00
ENDCHAR
STARTCHAR U+3008
ENCODING 12296
SWIDTH 250 0
DWIDTH 4 0
BBX 3 9 0 0
BITMAP
20
20
40
40
80
40
40
20
20
ENDCHAR
STARTCHAR U+3009
ENCODING 12297
SWIDTH 250 0
DWIDTH 4 0
BBX 3 9 0 0
BITMAP
80
80
40
40
20
40
40
80
80
ENDCHAR
STARTCHAR U+300A
ENCODING 12298
SWIDTH 375 0
DWIDTH 6 0
BBX 5 9 0 0
BITMAP
28
28
50
50
A0
50
50
28
28
ENDCHAR
STARTCHAR U+300B
ENCODING 12299
SWIDTH 375 0
DWIDTH 6 0
BBX 5 9 0 0
BITMAP
A0
A0
50
50
28
50
50
A0
A0
ENDCHAR
STARTCHAR U+300C
ENCODING 12300
SWIDTH 312 0
DWIDTH 5 0
BBX 4 6 0 3
BITMAP
F0
80
80
80
80
80
ENDCHAR
STARTCHAR U+300D
ENCODING 12301
SWIDTH 312 0
DWIDTH 5 0
BBX 4 6 0 0
BITMAP
10
10
10
10
10
F0
ENDCHAR
STARTCHAR U+300E
ENCODING 12302
SWIDTH 375 0
DWIDTH 6 0
BBX 5 7 0 2
BITMAP
F8
88
B8
A0
A0
A0
E0
ENDCHAR
STARTCHAR U+300F
ENCODING 12303
SWIDTH 375 0
DWIDTH 6 0
BBX 5 7 0 0
BITMAP
38
28
28
28
E8
88
F8
ENDCHAR
STARTCHAR U+3010
ENCODING 12304
SWIDTH 250 0
DWIDTH 4 0
BBX 3 9 0 0
BITMAP
E0
C0
80
80
80
80
80
C0
E0
ENDCHAR
STARTCHAR U+3011
ENCODING 12305
SWIDTH 250 0
DWIDTH 4 0
BBX 3 9 0 0
BITMAP
E0
60
20
20
20
20
20
60
E0
ENDCHAR
STARTCHAR U+3012
ENCODING 12306
SWIDTH 625 0
DWIDTH 10 0
BBX 7 7 1 1
BITMAP
FE
00
00
FE
10
10
10
ENDCHAR
STARTCHAR U+3013
ENCODING 12307
SWIDTH 625 0
DWIDTH 10 0
BBX 9 7 0 1
BITMAP
FF80
FF80
0000
0000
0000
FF80
FF80
ENDCHAR
STARTCHAR U+3014
ENCODING 12308
SWIDTH 312 0
DWIDTH 5 0
BBX 4 9 0 0
BITMAP
30
C0
80
80
80
80
80
C0
30
ENDCHAR
STARTCHAR U+3015
ENCODING 12309
SWIDTH 312 0
DWIDTH 5 0
BBX 4 9 0 0
BITMAP
C0
30
10
10
10
10
10
30
C0
ENDCHAR
STARTCHAR U+3016
ENCODING 12310
SWIDTH 375 0
DWIDTH 6 0
BBX 5 9 0 0
BITMAP
F8
90
A0
A0
A0
A0
A0
90
F8
ENDCHAR
STARTCHAR U+3017
ENCODING 12311
SWIDTH 375 0
DWIDTH 6 0
BBX 5 9 0 0
BITMAP
F8
48
28
28
28
28
28
48
F8
ENDCHAR
STARTCHAR U+3018
ENCODING 12312
SWIDTH 375 0
DWIDTH 6 0
BBX 5 9 0 0
BITMAP
38
C8
B0
A0
A0
A0
B0
C8
38
ENDCHAR
STARTCHAR U+3019
ENCODING 12313
SWIDTH 375 0
DWIDTH 6 0
BBX 5 9 0 0
BITMAP
E0
98
68
28
28
28
68
98
E0
ENDCHAR
STARTCHAR U+301A
ENCODING 12314
SWIDTH 375 0
DWIDTH 6 0
BBX 5 9 0 0
BITMAP
F8
A0
A0
A0
A0
A0
A0
A0
F8
ENDCHAR
STARTCHAR U+301B
ENCODING 12315
SWIDTH 375 0
DWIDTH 6 0
BBX 5 9 0 0
BITMAP
F8
28
28
28
28
28
28
28
F8
ENDCHAR
STARTCHAR U+301C
ENCODING 12316
SWIDTH 625 0
DWIDTH 10 0
BBX 9 3 0 3
BITMAP
7000
8880
0700
ENDCHAR
STARTCHAR U+3036
ENCODING 12342
SWIDTH 625 0
DWIDTH 10 0
BBX 9 9 0 0
BITMAP
3E00
4100
BE80
8080
BE80
8880
8880
4100
3E00
ENDCHAR
STARTCHAR U+303C
ENCODING 12348
SWIDTH 625 0
DWIDTH 10 0
BBX 9 9 0 0
BITMAP
FF80
8180
8280
8480
8880
9080
A080
C080
FF80
ENDCHAR
STARTCHAR U+3041
ENCODING 12353
SWIDTH 625 0
DWIDTH 10 0
BBX 8 8 0 0
BITMAP
10
7C
10
3E
55
99
91
66
ENDCHAR
STARTCHAR U+3042
ENCODING 12354
SWIDTH 625 0
DWIDTH 10 0
BBX 9 9 0 0
BITMAP
1000
7F00
1000
3E00
5500
9480
9880
9080
6300
ENDCHAR
STARTCHAR U+3043
ENCODING 12355
SWIDTH 625 0
DWIDTH 10 0
BBX 7 7 1 0
BITMAP
84
84
82
82
A2
A2
40
ENDCHAR
STARTCHAR U+3044
ENCODING 12356
SWIDTH 625 0
DWIDTH 10 0
BBX 9 8 0 0
BITMAP
8200
8100
8100
8080
8080
9080
5080
6000
ENDCHAR
STARTCHAR U+3045
ENCODING 12357
SWIDTH 625 0
DWIDTH 10 0
BBX 7 8 1 0
BITMAP
78
00
7C
82
02
02
0C
70
ENDCHAR
STARTCHAR U+3046
ENCODING 12358
SWIDTH 625 0
DWIDTH 10 0
BBX 8 9 0 0
BITMAP
3C
00
3E
C1
01
01
01
06
38
ENDCHAR
STARTCHAR U+3047
ENCODING 12359
SWIDTH 625 0
DWIDTH 10 0
BBX 7 8 1 0
BITMAP
78
00
FC
08
10
28
48
86
ENDCHAR
STARTCHAR U+3048
ENCODING 12360
SWIDTH 625 0
DWIDTH 10 0
BBX 9 9 0 0
BITMAP
3C00
0000
FE00
0400
0800
1800
2400
4400
8380
ENDCHAR
STARTCHAR U+3049
ENCODING 12361
SWIDTH 625 0
DWIDTH 10 0
BBX 9 8 0 0
BITMAP
1000
7D00
1080
3E00
5100
9100
9100
6600
ENDCHAR
STARTCHAR U+304A
ENCODING 12362
SWIDTH 625 0
DWIDTH 10 0
BBX 9 9 0 0
BITMAP
1200
FD00
1080
3E00
5100
9080
9080
9080
6700
ENDCHAR
STARTCHAR U+304B
ENCODING 12363
SWIDTH 625 0
DWIDTH 10 0
BBX 9 9 0 0
BITMAP
2000
2200
F900
2480
2480
2400
4400
4400
9800
ENDCHAR
STARTCHAR U+304C
ENCODING 12364
SWIDTH 625 0
DWIDTH 10 0
BBX 9 9 0 0
BITMAP
2180
2200
F900
2480
2480
2400
4400
4400
8800
ENDCHAR
STARTCHAR U+304D
ENCODING 12365
SWIDTH 625 0
DWIDTH 10 0
BBX 9 9 0 0
BITMAP
0800
7F00
0400
FF80
0200
3F00
4100
4000
3E00
ENDCHAR
STARTCHAR U+304E
ENCODING 12366
SWIDTH 625 0
DWIDTH 10 0
BBX 9 9 0 0
BITMAP
0A80
7E80
0400
FF80
0200
3F00
4100
4000
3E00
ENDCHAR
STARTCHAR U+304F
ENCODING 12367
SWIDTH 625 0
DWIDTH 10 0
BBX 7 9 1 0
BITMAP
02
04
18
60
80
60
18
04
02
ENDCHAR
STARTCHAR U+3050
ENCODING 12368
SWIDTH 625 0
DWIDTH 10 0
BBX 9 9 0 0
BITMAP
0200
0400
1A80
6280
8000
6000
1800
0400
0200
ENDCHAR
STARTCHAR U+3051
ENCODING 12369
SWIDTH 625 0
DWIDTH 10 0
BBX 9 9 0 0
BITMAP
8200
8200
BF80
8200
8200
8200
8200
8400
1800
ENDCHAR
STARTCHAR U+3052
ENCODING 12370
SWIDTH 625 0
DWIDTH 10 0
BBX 9 9 0 0
BITMAP
8280
8280
BF00
8200
8200
8200
8200
8400
1800
ENDCHAR
STARTCHAR U+3053
ENCODING 12371
SWIDTH 625 0
DWIDTH 10 0
BBX 8 8 0 0
BITMAP
7E
00
00
00
40
80
80
7F
ENDCHAR
STARTCHAR U+3054
ENCODING 12372
SWIDTH 625 0
DWIDTH 10 0
BBX 9 8 0 0
BITMAP
7A80
0280
0000
0000
4000
8000
8000
7F00
ENDCHAR
STARTCHAR U+3055
ENCODING 12373
SWIDTH 625 0
DWIDTH 10 0
BBX 8 9 0 0
BITMAP
08
FF
04
04
7E
82
80
80
7E
ENDCHAR
STARTCHAR U+3056
ENCODING 12374
SWIDTH 625 0
DWIDTH 10 0
BBX 9 9 0 0
BITMAP
0A80
FE80
0400
0400
7E00
8200
8000
8000
7E00
ENDCHAR
STARTCHAR U+3057
ENCODING 12375
SWIDTH 625 0
DWIDTH 10 0
BBX 7 9 1 0
BITMAP
80
80
80
80
80
82
82
84
78
ENDCHAR
STARTCHAR U+3058
ENCODING 12376
SWIDTH 625 0
DWIDTH 10 0
BBX 7 9 1 0
BITMAP
80
8A
8A
80
80
82
82
84
78
ENDCHAR
STARTCHAR U+3059
ENCODING 12377
SWIDTH 625 0
DWIDTH 10 0
BBX 9 9 0 0
BITMAP
0400
FF80
0400
3C00
4400
4400
3C00
0400
3800
ENDCHAR
STARTCHAR U+305A
ENCODING 12378
SWIDTH 625 0
DWIDTH 10 0
BBX 9 9 0 0
BITMAP
0680
FF80
0400
3C00
4400
4400
3C00
0400
3800
ENDCHAR
STARTCHAR U+305B
ENCODING 12379
SWIDTH 625 0
DWIDTH 10 0
BBX 9 9 0 0
BITMAP
4200
4200
FF80
4200
4200
4C00
4000
4000
3F00
ENDCHAR
STARTCHAR U+305C
ENCODING 12380
SWIDTH 625 0
DWIDTH 10 0
BBX 9 9 0 0
BITMAP
4280
4280
FF80
4200
4200
4C00
4000
4000
3F00
ENDCHAR
STARTCHAR U+305D
ENCODING 12381
SWIDTH 625 0
DWIDTH 10 0
BBX 9 9 0 0
BITMAP
7E00
0800
1000
FF80
0800
1000
1000
1000
0E00
ENDCHAR
STARTCHAR U+305E
ENCODING 12382
SWIDTH 625 0
DWIDTH 10 0
BBX 9 9 0 0
BITMAP
7E80
0A80
1000
FF80
0800
1000
1000
1000
0E00
ENDCHAR
STARTCHAR U+305F
ENCODING 12383
SWIDTH 625 0
DWIDTH 10 0
BBX 8 9 0 0
BITMAP
20
FE
20
2F
40
40
48
90
8F
ENDCHAR
STARTCHAR U+3060
ENCODING 12384
SWIDTH 625 0
DWIDTH 10 0
BBX 9 9 0 0
BITMAP
2280
FA80
2000
2F00
4000
4000
4800
9000
8F00
ENDCHAR
STARTCHAR U+3061
ENCODING 12385
SWIDTH 625 0
DWIDTH 10 0
BBX 8 9 0 0
BITMAP
10
FF
20
20
7E
41
01
01
3E
ENDCHAR
STARTCHAR U+3062
ENCODING 12386
SWIDTH 625 0
DWIDTH 10 0
BBX 9 9 0 0
BITMAP
1280
FE80
2000
2000
7E00
4100
0100
0100
3E00
ENDCHAR
STARTCHAR U+3063
ENCODING 12387
SWIDTH 625 0
DWIDTH 10 0
BBX 8 6 0 1
BITMAP
3E
C1
01
01
02
3C
ENDCHAR
STARTCHAR U+3064
ENCODING 12388
SWIDTH 625 0
DWIDTH 10 0
BBX 9 8 0 0
BITMAP
3E00
C100
0080
0080
0080
0080
0300
3C00
ENDCHAR
STARTCHAR U+3065
ENCODING 12389
SWIDTH 625 0
DWIDTH 10 0
BBX 9 9 0 0
BITMAP
0280
3E80
C100
0080
0080
0080
0080
0300
3C00
ENDCHAR
STARTCHAR U+3066
ENCODING 12390
SWIDTH 625 0
DWIDTH 10 0
BBX 9 8 0 0
BITMAP
FF80
0400
0800
1000
1000
1000
0800
0700
ENDCHAR
STARTCHAR U+3067
ENCODING 12391
SWIDTH 625 0
DWIDTH 10 0
BBX 9 8 0 0
BITMAP
FF00
0800
1280
2280
2000
2000
1000
0E00
ENDCHAR
STARTCHAR U+3068
ENCODING 12392
SWIDTH 625 0
DWIDTH 10 0
BBX 8 9 0 0
BITMAP
40
43
2C
30
40
80
80
40
3F
ENDCHAR
STARTCHAR U+3069
ENCODING 12393
SWIDTH 625 0
DWIDTH 10 0
BBX 9 9 0 0
BITMAP
4280
4280
2C00
3000
4000
8000
8000
4000
3F00
ENDCHAR
STARTCHAR U+306A
ENCODING 12394
SWIDTH 625 0
DWIDTH 10 0
BBX 9 9 0 0
BITMAP
2000
F700
2080
4200
4200
4E00
9300
9280
0C00
ENDCHAR
STARTCHAR U+306B
ENCODING 12395
SWIDTH 625 0
DWIDTH 10 0
BBX 9 9 0 0
BITMAP
8000
9F80
8000
8000
8000
8800
9000
9000
8F80
ENDCHAR
STARTCHAR U+306C
ENCODING 12396
SWIDTH 625 0
DWIDTH 10 0
BBX 9 9 0 0
BITMAP
2400
3E00
6500
A880
A880
9080
9680
A900
4680
ENDCHAR
STARTCHAR U+306D
ENCODING 12397
SWIDTH 625 0
DWIDTH 10 0
BBX 9 9 0 0
BITMAP
2000
EE00
3100
2080
6080
A080
A680
2900
2680
ENDCHAR
STARTCHAR U+306E
ENCODING 12398
SWIDTH 625 0
DWIDTH 10 0
BBX 9 8 0 0
BITMAP
3E00
4900
8880
8880
8880
9080
9100
6600
ENDCHAR
STARTCHAR U+306F
ENCODING 12399
SWIDTH 625 0
DWIDTH 10 0
BBX 9 9 0 0
BITMAP
8200
8200
9F80
8200
8200
8E00
9300
9280
8C00
ENDCHAR
STARTCHAR U+3070
ENCODING 12400
SWIDTH 625 0
DWIDTH 10 0
BBX 9 9 0 0
BITMAP
8280
8280
BF80
8200
8200
8E00
9300
9280
8C00
ENDCHAR
STARTCHAR U+3071
ENCODING 12401
SWIDTH 625 0
DWIDTH 10 0
BBX 9 9 0 0
BITMAP
8500
8680
BD00
8400
8400
9C00
A600
A500
9800
ENDCHAR
STARTCHAR U+3072
ENCODING 12402
SWIDTH 625 0
DWIDTH 10 0
BBX 9 9 0 0
BITMAP
F400
2400
4200
8380
8200
8200
8200
4400
3800
ENDCHAR
STARTCHAR U+3073
ENCODING 12403
SWIDTH 625 0
DWIDTH 10 0
BBX 9 9 0 0
BITMAP
F280
2280
4400
8300
8280
8200
8200
4400
3800
ENDCHAR
STARTCHAR U+3074
ENCODING 12404
SWIDTH 625 0
DWIDTH 10 0
BBX 9 9 0 0
BITMAP
F100
2280
4500
8300
8280
8200
8200
4400
3800
ENDCHAR
STARTCHAR U+3075
ENCODING 12405
SWIDTH 625 0
DWIDTH 10 0
BBX 9 9 0 0
BITMAP
3C00
0800
1000
1000
4900
4500
8480
8480
3800
ENDCHAR
STARTCHAR U+3076
ENCODING 12406
SWIDTH 625 0
DWIDTH 10 0
BBX 9 9 0 0
BITMAP
3C00
0A80
1280
1000
4900
4500
8480
8480
3800
ENDCHAR
STARTCHAR U+3077
ENCODING 12407
SWIDTH 625 0
DWIDTH 10 0
BBX 9 9 0 0
BITMAP
3D00
0A80
1100
1000
4900
4500
8480
8480
3800
ENDCHAR
STARTCHAR U+3078
ENCODING 12408
SWIDTH 625 0
DWIDTH 10 0
BBX 9 7 0 1
BITMAP
1000
2800
4400
4400
8200
8100
0080
ENDCHAR
STARTCHAR U+3079
ENCODING 12409
SWIDTH 625 0
DWIDTH 10 0
BBX 9 8 0 1
BITMAP
0280
1280
2800
4400
4400
8200
8100
0080
ENDCHAR
STARTCHAR U+307A
ENCODING 12410
SWIDTH 625 0
DWIDTH 10 0
BBX 9 8 0 1
BITMAP
0100
1280
2900
4400
4400
8200
8100
0080
ENDCHAR
STARTCHAR U+307B
ENCODING 12411
SWIDTH 625 0
DWIDTH 10 0
BBX 9 9 0 0
BITMAP
9F80
8200
9F80
8200
8200
8E00
9300
9280
8C00
ENDCHAR
STARTCHAR U+307C
ENCODING 12412
SWIDTH 625 0
DWIDTH 10 0
BBX 9 9 0 0
BITMAP
BE80
8480
BF00
8400
8400
9C00
A600
A500
9800
ENDCHAR
STARTCHAR U+307D
ENCODING 12413
SWIDTH 625 0
DWIDTH 10 0
BBX 9 9 0 0
BITMAP
BD00
8680
BD00
8400
8400
9C00
A600
A500
9800
ENDCHAR
STARTCHAR U+307E
ENCODING 12414
SWIDTH 625 0
DWIDTH 10 0
BBX 9 9 0 0
BITMAP
0400
7F00
0400
FF80
0400
3C00
4600
4500
3800
ENDCHAR
STARTCHAR U+307F
ENCODING 12415
SWIDTH 625 0
DWIDTH 10 0
BBX 9 9 0 0
BITMAP
7800
0800
0900
3D00
4B00
9180
9100
6200
0400
ENDCHAR
STARTCHAR U+3080
ENCODING 12416
SWIDTH 625 0
DWIDTH 10 0
BBX 9 9 0 0
BITMAP
2000
2100
F880
2000
6000
A100
A100
6100
3E00
ENDCHAR
STARTCHAR U+3081
ENCODING 12417
SWIDTH 625 0
DWIDTH 10 0
BBX 9 9 0 0
BITMAP
2400
3E00
6500
A480
A880
9880
9080
6100
0600
ENDCHAR
STARTCHAR U+3082
ENCODING 12418
SWIDTH 625 0
DWIDTH 10 0
BBX 8 9 0 0
BITMAP
20
FC
20
20
FC
21
21
21
1E
ENDCHAR
STARTCHAR U+3083
ENCODING 12419
SWIDTH 625 0
DWIDTH 10 0
BBX 8 8 0 0
BITMAP
48
5E
E9
21
21
16
10
10
ENDCHAR
STARTCHAR U+3084
ENCODING 12420
SWIDTH 750 0
DWIDTH 12 0
BBX 9 9 0 0
BITMAP
4800
4B00
3480
E480
2080
2700
1000
1000
1000
ENDCHAR
STARTCHAR U+3085
ENCODING 12421
SWIDTH 625 0
DWIDTH 10 0
BBX 8 8 0 0
BITMAP
88
9E
A9
C9
89
BE
08
30
ENDCHAR
STARTCHAR U+3086
ENCODING 12422
SWIDTH 625 0
DWIDTH 10 0
BBX 9 9 0 0
BITMAP
0400
9F00
A480
C480
A480
A480
9F00
0400
1800
ENDCHAR
STARTCHAR U+3087
ENCODING 12423
SWIDTH 625 0
DWIDTH 10 0
BBX 8 8 0 0
BITMAP
08
08
0F
08
78
8C
8A
71
ENDCHAR
STARTCHAR U+3088
ENCODING 12424
SWIDTH 625 0
DWIDTH 10 0
BBX 8 9 0 0
BITMAP
08
08
0F
08
08
78
8C
8A
71
ENDCHAR
STARTCHAR U+3089
ENCODING 12425
SWIDTH 625 0
DWIDTH 10 0
BBX 8 9 0 0
BITMAP
18
46
40
BC
C2
81
01
02
3C
ENDCHAR
STARTCHAR U+308A
ENCODING 12426
SWIDTH 625 0
DWIDTH 10 0
BBX 7 9 1 0
BITMAP
98
A4
C2
82
82
82
02
04
38
ENDCHAR
STARTCHAR U+308B
ENCODING 12427
SWIDTH 625 0
DWIDTH 10 0
BBX 9 9 0 0
BITMAP
7F00
0400
1800
3E00
4100
8080
1880
2500
1E00
ENDCHAR
STARTCHAR U+308C
ENCODING 12428
SWIDTH 625 0
DWIDTH 10 0
BBX 9 9 0 0
BITMAP
2000
2C00
F200
2200
2200
6200
A280
2300
2000
ENDCHAR
STARTCHAR U+308D
ENCODING 12429
SWIDTH 625 0
DWIDTH 10 0
BBX 9 9 0 0
BITMAP
7E00
0800
1000
3E00
4100
8080
0080
0100
3E00
ENDCHAR
STARTCHAR U+308E
ENCODING 12430
SWIDTH 625 0
DWIDTH 10 0
BBX 8 8 0 0
BITMAP
20
2E
F1
21
61
A1
22
24
ENDCHAR
STARTCHAR U+308F
ENCODING 12431
SWIDTH 625 0
DWIDTH 10 0
BBX 9 9 0 0
BITMAP
2000
2E00
F100
2080
6080
A080
A080
2100
2600
ENDCHAR
STARTCHAR U+3090
ENCODING 12432
SWIDTH 625 0
DWIDTH 10 0
BBX 9 9 0 0
BITMAP
7800
0800
3E00
5100
9080
9080
A680
A900
4600
ENDCHAR
STARTCHAR U+3091
ENCODING 12433
SWIDTH 625 0
DWIDTH 10 0
BBX 9 9 0 0
BITMAP
7E00
0800
7E00
9100
2900
1E00
2000
5700
8880
ENDCHAR
STARTCHAR U+3092
ENCODING 12434
SWIDTH 625 0
DWIDTH 10 0
BBX 9 9 0 0
BITMAP
0800
7F00
1000
3D80
4600
9A00
2200
2000
1F80
ENDCHAR
STARTCHAR U+3093
ENCODING 12435
SWIDTH 625 0
DWIDTH 10 0
BBX 9 9 0 0
BITMAP
1000
1000
2000
2000
5000
6880
4880
8900
8600
ENDCHAR
STARTCHAR U+3094
ENCODING 12436
SWIDTH 625 0
DWIDTH 10 0
BBX 9 9 0 0
BITMAP
3A80
0280
3E00
C100
0100
0100
0100
0600
3800
ENDCHAR
STARTCHAR U+3095
ENCODING 12437
SWIDTH 625 0
DWIDTH 10 0
BBX 8 8 1 0
BITMAP
20
22
F9
25
24
44
44
98
ENDCHAR
STARTCHAR U+3096
ENCODING 12438
SWIDTH 625 0
DWIDTH 10 0
BBX 8 8 1 0
BITMAP
84
84
BF
84
84
84
84
18
ENDCHAR
STARTCHAR U+3099
ENCODING 12441
SWIDTH 625 0
DWIDTH 10 0
BBX 3 2 6 7
BITMAP
A0
A0
ENDCHAR
STARTCHAR U+309A
ENCODING 12442
SWIDTH 625 0
DWIDTH 10 0
BBX 3 3 6 6
BITMAP
40
A0
40
ENDCHAR
STARTCHAR U+309B
ENCODING 12443
SWIDTH 625 0
DWIDTH 10 0
BBX 3 2 0 7
BITMAP
A0
A0
ENDCHAR
STARTCHAR U+309C
ENCODING 12444
SWIDTH 625 0
DWIDTH 10 0
BBX 3 3 0 6
BITMAP
40
A0
40
ENDCHAR
STARTCHAR U+309D
ENCODING 12445
SWIDTH 625 0
DWIDTH 10 0
BBX 5 6 2 2
BITMAP
80
40
20
10
78
08
ENDCHAR
STARTCHAR U+309E
ENCODING 12446
SWIDTH 625 0
DWIDTH 10 0
BBX 6 8 2 1
BITMAP
08
14
88
40
20
10
78
08
ENDCHAR
STARTCHAR U+30A0
ENCODING 12448
SWIDTH 625 0
DWIDTH 10 0
BBX 5 3 2 3
BITMAP
F8
00
F8
ENDCHAR
STARTCHAR U+30A1
ENCODING 12449
SWIDTH 625 0
DWIDTH 10 0
BBX 8 8 0 0
BITMAP
FF
01
11
12
14
10
20
40
ENDCHAR
STARTCHAR U+30A2
ENCODING 12450
SWIDTH 625 0
DWIDTH 10 0
BBX 8 9 0 0
BITMAP
FF
01
11
11
12
14
10
20
40
ENDCHAR
STARTCHAR U+30A3
ENCODING 12451
SWIDTH 625 0
DWIDTH 10 0
BBX 7 8 1 0
BITMAP
02
04
18
E8
08
08
08
08
ENDCHAR
STARTCHAR U+30A4
ENCODING 12452
SWIDTH 625 0
DWIDTH 10 0
BBX 7 9 1 0
BITMAP
02
04
08
38
C8
08
08
08
08
ENDCHAR
STARTCHAR U+30A5
ENCODING 12453
SWIDTH 625 0
DWIDTH 10 0
BBX 7 8 1 0
BITMAP
10
FE
82
82
82
04
08
30
ENDCHAR
STARTCHAR U+30A6
ENCODING 12454
SWIDTH 625 0
DWIDTH 10 0
BBX 8 9 0 0
BITMAP
10
FF
81
81
81
01
02
04
18
ENDCHAR
STARTCHAR U+30A7
ENCODING 12455
SWIDTH 625 0
DWIDTH 10 0
BBX 7 6 1 1
BITMAP
7C
10
10
10
10
FE
ENDCHAR
STARTCHAR U+30A8
ENCODING 12456
SWIDTH 625 0
DWIDTH 10 0
BBX 9 7 0 1
BITMAP
7F00
0800
0800
0800
0800
0800
FF80
ENDCHAR
STARTCHAR U+30A9
ENCODING 12457
SWIDTH 625 0
DWIDTH 10 0
BBX 7 8 1 0
BITMAP
08
08
FE
18
28
48
88
18
ENDCHAR
STARTCHAR U+30AA
ENCODING 12458
SWIDTH 625 0
DWIDTH 10 0
BBX 9 9 0 0
BITMAP
0200
0200
FF80
0A00
1200
2200
4200
8200
0C00
ENDCHAR
STARTCHAR U+30AB
ENCODING 12459
SWIDTH 625 0
DWIDTH 10 0
BBX 9 9 0 0
BITMAP
1000
1000
FF80
1080
1080
2080
2080
4080
8700
ENDCHAR
STARTCHAR U+30AC
ENCODING 12460
SWIDTH 625 0
DWIDTH 10 0
BBX 9 9 0 0
BITMAP
1280
1280
FF00
1100
1100
2100
2100
4100
8600
ENDCHAR
STARTCHAR U+30AD
ENCODING 12461
SWIDTH 625 0
DWIDTH 10 0
BBX 8 9 0 0
BITMAP
10
10
FF
08
08
FF
04
04
04
ENDCHAR
STARTCHAR U+30AE
ENCODING 12462
SWIDTH 625 0
DWIDTH 10 0
BBX 9 9 0 0
BITMAP
1280
1280
FE00
0800
0800
FF00
0400
0400
0400
ENDCHAR
STARTCHAR U+30AF
ENCODING 12463
SWIDTH 625 0
DWIDTH 10 0
BBX 8 9 0 0
BITMAP
20
3F
21
41
81
02
02
0C
70
ENDCHAR
STARTCHAR U+30B0
ENCODING 12464
SWIDTH 625 0
DWIDTH 10 0
BBX 9 9 0 0
BITMAP
2280
3E80
2100
4100
8100
0200
0200
0C00
7000
ENDCHAR
STARTCHAR U+30B1
ENCODING 12465
SWIDTH 625 0
DWIDTH 10 0
BBX 9 9 0 0
BITMAP
2000
2000
3F80
4200
8200
0200
0400
0800
3000
ENDCHAR
STARTCHAR U+30B2
ENCODING 12466
SWIDTH 625 0
DWIDTH 10 0
BBX 9 9 0 0
BITMAP
2280
2280
3F80
4200
8200
0200
0400
0800
3000
ENDCHAR
STARTCHAR U+30B3
ENCODING 12467
SWIDTH 625 0
DWIDTH 10 0
BBX 8 8 0 0
BITMAP
FF
01
01
01
01
01
01
FF
ENDCHAR
STARTCHAR U+30B4
ENCODING 12468
SWIDTH 625 0
DWIDTH 10 0
BBX 9 9 0 0
BITMAP
0280
FE80
0200
0200
0200
0200
0200
0200
FE00
ENDCHAR
STARTCHAR U+30B5
ENCODING 12469
SWIDTH 625 0
DWIDTH 10 0
BBX 9 9 0 0
BITMAP
2200
2200
FF80
2200
2200
2200
0200
0400
3800
ENDCHAR
STARTCHAR U+30B6
ENCODING 12470
SWIDTH 625 0
DWIDTH 10 0
BBX 9 9 0 0
BITMAP
2280
2280
FF80
2200
2200
2200
0200
0400
3800
ENDCHAR
STARTCHAR U+30B7
ENCODING 12471
SWIDTH 625 0
DWIDTH 10 0
BBX 9 9 0 0
BITMAP
6000
1000
0000
C080
2080
0100
0200
0C00
7000
ENDCHAR
STARTCHAR U+30B8
ENCODING 12472
SWIDTH 625 0
DWIDTH 10 0
BBX 9 9 0 0
BITMAP
6280
1280
0000
C080
2080
0100
0200
0C00
7000
ENDCHAR
STARTCHAR U+30B9
ENCODING 12473
SWIDTH 625 0
DWIDTH 10 0
BBX 9 9 0 0
BITMAP
FE00
0200
0200
0200
0400
0C00
1200
2100
C080
ENDCHAR
STARTCHAR U+30BA
ENCODING 12474
SWIDTH 625 0
DWIDTH 10 0
BBX 9 9 0 0
BITMAP
FE80
0280
0200
0200
0400
0C00
1200
2100
C080
ENDCHAR
STARTCHAR U+30BB
ENCODING 12475
SWIDTH 625 0
DWIDTH 10 0
BBX 9 9 0 0
BITMAP
2000
2000
2F80
F080
2100
2200
2000
2000
1F00
ENDCHAR
STARTCHAR U+30BC
ENCODING 12476
SWIDTH 625 0
DWIDTH 10 0
BBX 9 9 0 0
BITMAP
2280
2280
2F80
F080
2100
2200
2000
2000
1F00
ENDCHAR
STARTCHAR U+30BD
ENCODING 12477
SWIDTH 625 0
DWIDTH 10 0
BBX 9 9 0 0
BITMAP
8080
4080
4080
0100
0100
0200
0400
0800
3000
ENDCHAR
STARTCHAR U+30BE
ENCODING 12478
SWIDTH 625 0
DWIDTH 10 0
BBX 9 9 0 0
BITMAP
0280
8280
4100
4100
0200
0200
0400
0800
3000
ENDCHAR
STARTCHAR U+30BF
ENCODING 12479
SWIDTH 625 0
DWIDTH 10 0
BBX 9 9 0 0
BITMAP
2000
3F80
4080
A080
1100
0900
0600
0C00
7000
ENDCHAR
STARTCHAR U+30C0
ENCODING 12480
SWIDTH 625 0
DWIDTH 10 0
BBX 9 9 0 0
BITMAP
2280
3E80
4100
A100
1100
0A00
0600
0C00
7000
ENDCHAR
STARTCHAR U+30C1
ENCODING 12481
SWIDTH 625 0
DWIDTH 10 0
BBX 9 9 0 0
BITMAP
0100
7E00
0800
0800
FF80
0800
0800
1000
6000
ENDCHAR
STARTCHAR U+30C2
ENCODING 12482
SWIDTH 625 0
DWIDTH 10 0
BBX 9 9 0 0
BITMAP
0280
7E80
0800
0800
FF80
0800
0800
1000
6000
ENDCHAR
STARTCHAR U+30C3
ENCODING 12483
SWIDTH 625 0
DWIDTH 10 0
BBX 8 7 0 0
BITMAP
91
49
49
02
02
0C
30
ENDCHAR
STARTCHAR U+30C4
ENCODING 12484
SWIDTH 625 0
DWIDTH 10 0
BBX 9 8 0 0
BITMAP
9080
4880
4880
0100
0100
0200
0C00
3000
ENDCHAR
STARTCHAR U+30C5
ENCODING 12485
SWIDTH 625 0
DWIDTH 10 0
BBX 9 9 0 0
BITMAP
0280
9280
4800
4880
0080
0100
0200
0C00
3000
ENDCHAR
STARTCHAR U+30C6
ENCODING 12486
SWIDTH 625 0
DWIDTH 10 0
BBX 9 9 0 0
BITMAP
7F00
0000
0000
FF80
0400
0400
0400
0800
3000
ENDCHAR
STARTCHAR U+30C7
ENCODING 12487
SWIDTH 625 0
DWIDTH 10 0
BBX 9 9 0 0
BITMAP
7E80
0280
0000
FF80
0400
0400
0400
0800
3000
ENDCHAR
STARTCHAR U+30C8
ENCODING 12488
SWIDTH 625 0
DWIDTH 10 0
BBX 6 9 1 0
BITMAP
80
80
80
E0
98
84
80
80
80
ENDCHAR
STARTCHAR U+30C9
ENCODING 12489
SWIDTH 625 0
DWIDTH 10 0
BBX 7 9 1 0
BITMAP
8A
8A
80
E0
98
84
80
80
80
ENDCHAR
STARTCHAR U+30CA
ENCODING 12490
SWIDTH 625 0
DWIDTH 10 0
BBX 9 9 0 0
BITMAP
0800
0800
FF80
0800
0800
0800
0800
1000
6000
ENDCHAR
STARTCHAR U+30CB
ENCODING 12491
SWIDTH 625 0
DWIDTH 10 0
BBX 8 7 0 1
BITMAP
7E
00
00
00
00
00
FF
ENDCHAR
STARTCHAR U+30CC
ENCODING 12492
SWIDTH 625 0
DWIDTH 10 0
BBX 8 9 0 0
BITMAP
7F
01
01
32
0A
04
0A
31
C0
ENDCHAR
STARTCHAR U+30CD
ENCODING 12493
SWIDTH 625 0
DWIDTH 10 0
BBX 9 9 0 0
BITMAP
0800
7F00
0100
0200
0C00
3A00
C980
0800
0800
ENDCHAR
STARTCHAR U+30CE
ENCODING 12494
SWIDTH 625 0
DWIDTH 10 0
BBX 7 9 1 0
BITMAP
02
02
02
02
04
04
08
30
C0
ENDCHAR
STARTCHAR U+30CF
ENCODING 12495
SWIDTH 625 0
DWIDTH 10 0
BBX 9 9 0 0
BITMAP
2200
2200
2200
2200
4100
4100
4100
8080
8080
ENDCHAR
STARTCHAR U+30D0
ENCODING 12496
SWIDTH 625 0
DWIDTH 10 0
BBX 9 9 0 0
BITMAP
2280
2280
2200
2200
4100
4100
4100
8080
8080
ENDCHAR
STARTCHAR U+30D1
ENCODING 12497
SWIDTH 625 0
DWIDTH 10 0
BBX 9 9 0 0
BITMAP
2300
2280
2300
2200
4100
4100
4100
8080
8080
ENDCHAR
STARTCHAR U+30D2
ENCODING 12498
SWIDTH 625 0
DWIDTH 10 0
BBX 8 9 1 0
BITMAP
80
80
87
F8
80
80
80
80
7F
ENDCHAR
STARTCHAR U+30D3
ENCODING 12499
SWIDTH 625 0
DWIDTH 10 0
BBX 8 9 1 0
BITMAP
85
85
86
F8
80
80
80
80
7F
ENDCHAR
STARTCHAR U+30D4
ENCODING 12500
SWIDTH 625 0
DWIDTH 10 0
BBX 8 9 1 0
BITMAP
82
85
8E
F0
80
80
80
80
7F
ENDCHAR
STARTCHAR U+30D5
ENCODING 12501
SWIDTH 625 0
DWIDTH 10 0
BBX 8 8 0 0
BITMAP
FF
01
01
01
01
02
04
38
ENDCHAR
STARTCHAR U+30D6
ENCODING 12502
SWIDTH 625 0
DWIDTH 10 0
BBX 9 9 0 0
BITMAP
0280
FE80
0100
0100
0100
0100
0200
0400
1800
ENDCHAR
STARTCHAR U+30D7
ENCODING 12503
SWIDTH 625 0
DWIDTH 10 0
BBX 9 9 0 0
BITMAP
0100
FE80
0100
0100
0100
0100
0200
0400
3800
ENDCHAR
STARTCHAR U+30D8
ENCODING 12504
SWIDTH 625 0
DWIDTH 10 0
BBX 9 7 0 1
BITMAP
1000
2800
4400
4400
8200
8100
0080
ENDCHAR
STARTCHAR U+30D9
ENCODING 12505
SWIDTH 625 0
DWIDTH 10 0
BBX 9 8 0 1
BITMAP
0280
1280
2800
4400
4400
8200
8100
0080
ENDCHAR
STARTCHAR U+30DA
ENCODING 12506
SWIDTH 625 0
DWIDTH 10 0
BBX 9 8 0 1
BITMAP
0100
1280
2900
4400
4400
8200
8100
0080
ENDCHAR
STARTCHAR U+30DB
ENCODING 12507
SWIDTH 625 0
DWIDTH 10 0
BBX 9 9 0 0
BITMAP
0800
0800
FF80
0800
4900
4900
8880
8880
0800
ENDCHAR
STARTCHAR U+30DC
ENCODING 12508
SWIDTH 625 0
DWIDTH 10 0
BBX 9 9 0 0
BITMAP
0A80
0A80
FF80
0800
4900
4900
8880
8880
0800
ENDCHAR
STARTCHAR U+30DD
ENCODING 12509
SWIDTH 625 0
DWIDTH 10 0
BBX 9 9 0 0
BITMAP
0900
0A80
FF80
0800
4900
4900
8880
8880
0800
ENDCHAR
STARTCHAR U+30DE
ENCODING 12510
SWIDTH 625 0
DWIDTH 10 0
BBX 9 8 0 0
BITMAP
FF80
0080
0100
0200
6400
1800
0800
0400
ENDCHAR
STARTCHAR U+30DF
ENCODING 12511
SWIDTH 625 0
DWIDTH 10 0
BBX 8 9 0 0
BITMAP
70
0E
01
70
0E
01
F0
0E
01
ENDCHAR
STARTCHAR U+30E0
ENCODING 12512
SWIDTH 625 0
DWIDTH 10 0
BBX 9 9 0 0
BITMAP
1000
1000
1000
2000
2200
2100
4300
FC80
0080
ENDCHAR
STARTCHAR U+30E1
ENCODING 12513
SWIDTH 625 0
DWIDTH 10 0
BBX 8 9 0 0
BITMAP
02
02
22
14
0C
0C
12
21
C0
ENDCHAR
STARTCHAR U+30E2
ENCODING 12514
SWIDTH 625 0
DWIDTH 10 0
BBX 9 9 0 0
BITMAP
7F00
1000
1000
FF80
1000
1000
1000
1000
0F00
ENDCHAR
STARTCHAR U+30E3
ENCODING 12515
SWIDTH 625 0
DWIDTH 10 0
BBX 8 8 0 0
BITMAP
40
2F
F1
21
12
10
08
08
ENDCHAR
STARTCHAR U+30E4
ENCODING 12516
SWIDTH 625 0
DWIDTH 10 0
BBX 9 9 0 0
BITMAP
4000
2780
3880
E080
1100
1200
1000
0800
0800
ENDCHAR
STARTCHAR U+30E5
ENCODING 12517
SWIDTH 625 0
DWIDTH 10 0
BBX 7 6 0 0
BITMAP
7C
04
04
08
08
FE
ENDCHAR
STARTCHAR U+30E6
ENCODING 12518
SWIDTH 625 0
DWIDTH 10 0
BBX 9 8 0 0
BITMAP
7F00
0100
0100
0100
0200
0200
0200
FF80
ENDCHAR
STARTCHAR U+30E7
ENCODING 12519
SWIDTH 625 0
DWIDTH 10 0
BBX 6 7 1 0
BITMAP
FC
04
04
FC
04
04
FC
ENDCHAR
STARTCHAR U+30E8
ENCODING 12520
SWIDTH 625 0
DWIDTH 10 0
BBX 7 9 1 0
BITMAP
FE
02
02
02
FE
02
02
02
FE
ENDCHAR
STARTCHAR U+30E9
ENCODING 12521
SWIDTH 625 0
DWIDTH 10 0
BBX 8 9 0 0
BITMAP
7E
00
00
FF
01
02
02
0C
30
ENDCHAR
STARTCHAR U+30EA
ENCODING 12522
SWIDTH 625 0
DWIDTH 10 0
BBX 7 9 1 0
BITMAP
82
82
82
82
82
02
02
04
38
ENDCHAR
STARTCHAR U+30EB
ENCODING 12523
SWIDTH 625 0
DWIDTH 10 0
BBX 9 9 0 0
BITMAP
2400
2400
2400
2400
2480
2480
4480
4500
8600
ENDCHAR
STARTCHAR U+30EC
ENCODING 12524
SWIDTH 625 0
DWIDTH 10 0
BBX 7 9 1 0
BITMAP
80
80
80
80
82
82
84
98
E0
ENDCHAR
STARTCHAR U+30ED
ENCODING 12525
SWIDTH 625 0
DWIDTH 10 0
BBX 8 8 0 0
BITMAP
FF
81
81
81
81
81
81
FF
ENDCHAR
STARTCHAR U+30EE
ENCODING 12526
SWIDTH 625 0
DWIDTH 10 0
BBX 6 7 1 0
BITMAP
FC
84
84
04
04
08
70
ENDCHAR
STARTCHAR U+30EF
ENCODING 12527
SWIDTH 625 0
DWIDTH 10 0
BBX 8 9 0 0
BITMAP
FF
81
81
81
01
01
02
04
38
ENDCHAR
STARTCHAR U+30F0
ENCODING 12528
SWIDTH 625 0
DWIDTH 10 0
BBX 9 9 0 0
BITMAP
0200
7F00
2200
2200
2200
2200
FF80
0200
0200
ENDCHAR
STARTCHAR U+30F1
ENCODING 12529
SWIDTH 625 0
DWIDTH 10 0
BBX 9 8 0 0
BITMAP
7F00
0100
0900
0A00
0800
0800
0800
FF80
ENDCHAR
STARTCHAR U+30F2
ENCODING 12530
SWIDTH 625 0
DWIDTH 10 0
BBX 8 9 0 0
BITMAP
FF
01
01
FF
01
01
02
04
38
ENDCHAR
STARTCHAR U+30F3
ENCODING 12531
SWIDTH 625 0
DWIDTH 10 0
BBX 9 8 0 0
BITMAP
C000
2080
0080
0100
0100
0200
0C00
7000
ENDCHAR
STARTCHAR U+30F4
ENCODING 12532
SWIDTH 625 0
DWIDTH 10 0
BBX 9 9 0 0
BITMAP
1280
FF80
8100
8100
8100
0100
0200
0400
1800
ENDCHAR
STARTCHAR U+30F5
ENCODING 12533
SWIDTH 625 0
DWIDTH 10 0
BBX 7 8 1 0
BITMAP
20
20
FE
22
22
22
42
8C
ENDCHAR
STARTCHAR U+30F6
ENCODING 12534
SWIDTH 625 0
DWIDTH 10 0
BBX 8 8 0 0
BITMAP
20
20
3F
44
84
04
08
30
ENDCHAR
STARTCHAR U+30F7
ENCODING 12535
SWIDTH 625 0
DWIDTH 10 0
BBX 9 9 0 0
BITMAP
0280
FF80
8100
8100
8100
0100
0200
0400
1800
ENDCHAR
STARTCHAR U+30F8
ENCODING 12536
SWIDTH 625 0
DWIDTH 10 0
BBX 9 9 0 0
BITMAP
0280
7F80
2200
2200
2200
2200
FF80
0200
0200
ENDCHAR
STARTCHAR U+30F9
ENCODING 12537
SWIDTH 625 0
DWIDTH 10 0
BBX 9 9 0 0
BITMAP
0280
7F80
0100
0900
0A00
0800
0800
0800
FF80
ENDCHAR
STARTCHAR U+30FA
ENCODING 12538
SWIDTH 625 0
DWIDTH 10 0
BBX 9 10 0 0
BITMAP
0280
FF80
0100
0100
FF00
0100
0100
0200
0400
3800
ENDCHAR
STARTCHAR U+30FB
ENCODING 12539
SWIDTH 625 0
DWIDTH 10 0
BBX 2 2 3 4
BITMAP
C0
C0
ENDCHAR
STARTCHAR U+30FC
ENCODING 12540
SWIDTH 625 0
DWIDTH 10 0
BBX 8 1 0 4
BITMAP
FF
ENDCHAR
STARTCHAR U+30FD
ENCODING 12541
SWIDTH 625 0
DWIDTH 10 0
BBX 5 5 2 2
BITMAP
80
40
20
10
08
ENDCHAR
STARTCHAR U+30FE
ENCODING 12542
SWIDTH 625 0
DWIDTH 10 0
BBX 6 6 2 2
BITMAP
08
94
48
20
10
08
ENDCHAR
STARTCHAR U+3131
ENCODING 12593
SWIDTH 625 0
DWIDTH 10 0
BBX 7 7 1 1
BITMAP
FE
02
02
02
02
02
02
ENDCHAR
STARTCHAR U+3132
ENCODING 12594
SWIDTH 625 0
DWIDTH 10 0
BBX 7 7 1 1
BITMAP
EE
22
22
22
22
22
22
ENDCHAR
STARTCHAR U+3133
ENCODING 12595
SWIDTH 625 0
DWIDTH 10 0
BBX 9 7 0 1
BITMAP
F200
1200
1200
1500
1500
1880
1880
ENDCHAR
STARTCHAR U+3134
ENCODING 12596
SWIDTH 625 0
DWIDTH 10 0
BBX 7 7 1 1
BITMAP
80
80
80
80
80
80
FE
ENDCHAR
STARTCHAR U+3135
ENCODING 12597
SWIDTH 625 0
DWIDTH 10 0
BBX 9 7 0 1
BITMAP
8F80
8200
8200
8500
8500
8880
F880
ENDCHAR
STARTCHAR U+3136
ENCODING 12598
SWIDTH 625 0
DWIDTH 10 0
BBX 9 7 0 1
BITMAP
8700
8000
8F80
8700
8880
8880
F700
ENDCHAR
STARTCHAR U+3137
ENCODING 12599
SWIDTH 625 0
DWIDTH 10 0
BBX 7 7 1 1
BITMAP
FE
80
80
80
80
80
FE
ENDCHAR
STARTCHAR U+3138
ENCODING 12600
SWIDTH 625 0
DWIDTH 10 0
BBX 7 7 1 1
BITMAP
EE
88
88
88
88
88
EE
ENDCHAR
STARTCHAR U+3139
ENCODING 12601
SWIDTH 625 0
DWIDTH 10 0
BBX 7 7 1 1
BITMAP
FE
02
02
FE
80
80
FE
ENDCHAR
STARTCHAR U+313A
ENCODING 12602
SWIDTH 625 0
DWIDTH 10 0
BBX 7 7 1 1
BITMAP
EE
22
22
E2
82
82
E2
ENDCHAR
STARTCHAR U+313B
ENCODING 12603
SWIDTH 625 0
DWIDTH 10 0
BBX 7 7 1 1
BITMAP
EE
2A
2A
EA
8A
8A
EE
ENDCHAR
STARTCHAR U+313C
ENCODING 12604
SWIDTH 625 0
DWIDTH 10 0
BBX 7 7 1 1
BITMAP
EA
2A
2A
EE
8A
8A
EE
ENDCHAR
STARTCHAR U+313D
ENCODING 12605
SWIDTH 625 0
DWIDTH 10 0
BBX 9 7 0 1
BITMAP
F200
1200
1200
F500
8500
8880
F880
ENDCHAR
STARTCHAR U+313E
ENCODING 12606
SWIDTH 625 0
DWIDTH 10 0
BBX 7 7 1 1
BITMAP
EE
28
28
EE
88
88
EE
ENDCHAR
STARTCHAR U+313F
ENCODING 12607
SWIDTH 625 0
DWIDTH 10 0
BBX 9 7 0 1
BITMAP
FF80
1000
1500
F500
8500
8500
FF80
ENDCHAR
STARTCHAR U+3140
ENCODING 12608
SWIDTH 625 0
DWIDTH 10 0
BBX 9 7 0 1
BITMAP
E700
2000
2F80
E700
8880
8880
E700
ENDCHAR
STARTCHAR U+3141
ENCODING 12609
SWIDTH 625 0
DWIDTH 10 0
BBX 7 7 1 1
BITMAP
FE
82
82
82
82
82
FE
ENDCHAR
STARTCHAR U+3142
ENCODING 12610
SWIDTH 625 0
DWIDTH 10 0
BBX 7 7 1 1
BITMAP
82
82
FE
82
82
82
FE
ENDCHAR
STARTCHAR U+3143
ENCODING 12611
SWIDTH 625 0
DWIDTH 10 0
BBX 9 7 0 1
BITMAP
9480
9480
F780
9480
9480
9480
F780
ENDCHAR
STARTCHAR U+3144
ENCODING 12612
SWIDTH 625 0
DWIDTH 10 0
BBX 9 7 0 1
BITMAP
9200
9200
F200
9500
9500
9880
F880
ENDCHAR
STARTCHAR U+3145
ENCODING 12613
SWIDTH 625 0
DWIDTH 10 0
BBX 7 7 1 1
BITMAP
10
10
28
28
44
44
82
ENDCHAR
STARTCHAR U+3146
ENCODING 12614
SWIDTH 625 0
DWIDTH 10 0
BBX 9 7 0 1
BITMAP
2200
2200
2200
5500
5500
8880
8880
ENDCHAR
STARTCHAR U+3147
ENCODING 12615
SWIDTH 625 0
DWIDTH 10 0
BBX 7 7 1 1
BITMAP
38
44
82
82
82
44
38
ENDCHAR
STARTCHAR U+3148
ENCODING 12616
SWIDTH 625 0
DWIDTH 10 0
BBX 7 7 1 1
BITMAP
FE
10
28
28
44
44
82
ENDCHAR
STARTCHAR U+3149
ENCODING 12617
SWIDTH 625 0
DWIDTH 10 0
BBX 9 7 0 1
BITMAP
FF80
2200
2200
5500
5500
8880
8880
ENDCHAR
STARTCHAR U+314A
ENCODING 12618
SWIDTH 625 0
DWIDTH 10 0
BBX 7 7 1 1
BITMAP
7C
00
FE
10
28
44
82
ENDCHAR
STARTCHAR U+314B
ENCODING 12619
SWIDTH 625 0
DWIDTH 10 0
BBX 7 7 1 1
BITMAP
FE
02
02
FE
02
04
08
ENDCHAR
STARTCHAR U+314C
ENCODING 12620
SWIDTH 625 0
DWIDTH 10 0
BBX 7 7 1 1
BITMAP
FE
80
80
FE
80
80
FE
ENDCHAR
STARTCHAR U+314D
ENCODING 12621
SWIDTH 625 0
DWIDTH 10 0
BBX 7 7 1 1
BITMAP
FE
00
44
44
44
44
FE
ENDCHAR
STARTCHAR U+314E
ENCODING 12622
SWIDTH 625 0
DWIDTH 10 0
BBX 7 8 1 1
BITMAP
38
00
FE
00
38
44
44
38
ENDCHAR
STARTCHAR U+314F
ENCODING 12623
SWIDTH 625 0
DWIDTH 10 0
BBX 4 9 3 0
BITMAP
80
80
80
80
F0
80
80
80
80
ENDCHAR
STARTCHAR U+3150
ENCODING 12624
SWIDTH 625 0
DWIDTH 10 0
BBX 4 9 2 0
BITMAP
90
90
90
90
F0
90
90
90
90
ENDCHAR
STARTCHAR U+3151
ENCODING 12625
SWIDTH 625 0
DWIDTH 10 0
BBX 4 9 3 0
BITMAP
80
80
F0
80
80
F0
80
80
80
ENDCHAR
STARTCHAR U+3152
ENCODING 12626
SWIDTH 625 0
DWIDTH 10 0
BBX 4 9 2 0
BITMAP
90
90
F0
90
90
F0
90
90
90
ENDCHAR
STARTCHAR U+3153
ENCODING 12627
SWIDTH 625 0
DWIDTH 10 0
BBX 4 9 2 0
BITMAP
10
10
10
10
F0
10
10
10
10
ENDCHAR
STARTCHAR U+3154
ENCODING 12628
SWIDTH 625 0
DWIDTH 10 0
BBX 7 9 1 0
BITMAP
12
12
12
12
F2
12
12
12
12
ENDCHAR
STARTCHAR U+3155
ENCODING 12629
SWIDTH 625 0
DWIDTH 10 0
BBX 4 9 2 0
BITMAP
10
10
F0
10
10
F0
10
10
10
ENDCHAR
STARTCHAR U+3156
ENCODING 12630
SWIDTH 625 0
DWIDTH 10 0
BBX 7 9 1 0
BITMAP
12
12
F2
12
12
F2
12
12
12
ENDCHAR
STARTCHAR U+3157
ENCODING 12631
SWIDTH 625 0
DWIDTH 10 0
BBX 9 4 0 3
BITMAP
0800
0800
0800
FF80
ENDCHAR
STARTCHAR U+3158
ENCODING 12632
SWIDTH 625 0
DWIDTH 10 0
BBX 9 9 0 0
BITMAP
0100
0100
0100
2100
2180
2100
FD00
0100
0100
ENDCHAR
STARTCHAR U+3159
ENCODING 12633
SWIDTH 625 0
DWIDTH 10 0
BBX 9 9 0 0
BITMAP
0280
0280
0280
2280
2380
2280
FA80
0280
0280
ENDCHAR
STARTCHAR U+315A
ENCODING 12634
SWIDTH 625 0
DWIDTH 10 0
BBX 9 9 0 0
BITMAP
0080
0080
0080
1080
1080
1080
FE80
0080
0080
ENDCHAR
STARTCHAR U+315B
ENCODING 12635
SWIDTH 625 0
DWIDTH 10 0
BBX 9 4 0 3
BITMAP
2200
2200
2200
FF80
ENDCHAR
STARTCHAR U+315C
ENCODING 12636
SWIDTH 625 0
DWIDTH 10 0
BBX 9 4 0 3
BITMAP
FF80
0800
0800
0800
ENDCHAR
STARTCHAR U+315D
ENCODING 12637
SWIDTH 625 0
DWIDTH 10 0
BBX 9 9 0 0
BITMAP
0080
0080
0080
0080
FE80
1080
1380
1080
1080
ENDCHAR
STARTCHAR U+315E
ENCODING 12638
SWIDTH 625 0
DWIDTH 10 0
BBX 9 9 0 0
BITMAP
0280
0280
0280
0280
FA80
2280
2E80
2280
2280
ENDCHAR
STARTCHAR U+315F
ENCODING 12639
SWIDTH 625 0
DWIDTH 10 0
BBX 9 9 0 0
BITMAP
0080
0080
0080
0080
FE80
1080
1080
1080
1080
ENDCHAR
STARTCHAR U+3160
ENCODING 12640
SWIDTH 625 0
DWIDTH 10 0
BBX 9 4 0 3
BITMAP
FF80
2200
2200
2200
ENDCHAR
STARTCHAR U+3161
ENCODING 12641
SWIDTH 625 0
DWIDTH 10 0
BBX 9 1 0 4
BITMAP
FF80
ENDCHAR
STARTCHAR U+3162
ENCODING 12642
SWIDTH 625 0
DWIDTH 10 0
BBX 9 9 0 0
BITMAP
0080
0080
0080
0080
0080
0080
FE80
0080
0080
ENDCHAR
STARTCHAR U+3163
ENCODING 12643
SWIDTH 625 0
DWIDTH 10 0
BBX 1 9 4 0
BITMAP
80
80
80
80
80
80
80
80
80
ENDCHAR
STARTCHAR U+3165
ENCODING 12645
SWIDTH 625 0
DWIDTH 10 0
BBX 7 7 1 1
BITMAP
88
88
88
88
88
88
EE
ENDCHAR
STARTCHAR U+3166
ENCODING 12646
SWIDTH 625 0
DWIDTH 10 0
BBX 7 7 1 1
BITMAP
8E
88
88
88
88
88
EE
ENDCHAR
STARTCHAR U+3167
ENCODING 12647
SWIDTH 625 0
DWIDTH 10 0
BBX 9 7 0 1
BITMAP
8200
8200
8200
8500
8500
8880
F880
ENDCHAR
STARTCHAR U+3168
ENCODING 12648
SWIDTH 625 0
DWIDTH 10 0
BBX 9 7 0 1
BITMAP
8200
8200
8500
8500
8880
8880
FF80
ENDCHAR
STARTCHAR U+3169
ENCODING 12649
SWIDTH 625 0
DWIDTH 10 0
BBX 9 7 0 1
BITMAP
FD00
2500
2500
E500
8680
8680
E680
ENDCHAR
STARTCHAR U+316A
ENCODING 12650
SWIDTH 625 0
DWIDTH 10 0
BBX 7 7 1 1
BITMAP
EE
28
28
E8
88
88
EE
ENDCHAR
STARTCHAR U+316B
ENCODING 12651
SWIDTH 625 0
DWIDTH 10 0
BBX 9 7 0 1
BITMAP
D500
5500
5500
DD00
9680
9680
DE80
ENDCHAR
STARTCHAR U+316C
ENCODING 12652
SWIDTH 625 0
DWIDTH 10 0
BBX 9 7 0 1
BITMAP
F200
1200
1500
F500
8880
8880
FF80
ENDCHAR
STARTCHAR U+316D
ENCODING 12653
SWIDTH 625 0
DWIDTH 10 0
BBX 9 7 0 1
BITMAP
F780
1000
1300
F480
8480
8480
F300
ENDCHAR
STARTCHAR U+316E
ENCODING 12654
SWIDTH 625 0
DWIDTH 10 0
BBX 9 7 0 1
BITMAP
F480
9480
9780
9480
9480
9480
F780
ENDCHAR
STARTCHAR U+316F
ENCODING 12655
SWIDTH 625 0
DWIDTH 10 0
BBX 9 7 0 1
BITMAP
F200
9200
9200
9500
9500
9880
F880
ENDCHAR
STARTCHAR U+3170
ENCODING 12656
SWIDTH 625 0
DWIDTH 10 0
BBX 9 7 0 1
BITMAP
F200
9200
9500
9500
9880
9880
FF80
ENDCHAR
STARTCHAR U+3171
ENCODING 12657
SWIDTH 625 0
DWIDTH 10 0
BBX 7 9 1 0
BITMAP
FE
82
82
FE
10
7C
82
82
7C
ENDCHAR
STARTCHAR U+3172
ENCODING 12658
SWIDTH 625 0
DWIDTH 10 0
BBX 9 7 0 1
BITMAP
9780
9080
F080
9080
9080
9080
F080
ENDCHAR
STARTCHAR U+3173
ENCODING 12659
SWIDTH 625 0
DWIDTH 10 0
BBX 9 7 0 1
BITMAP
9780
9400
F400
9400
9400
9400
F780
ENDCHAR
STARTCHAR U+3174
ENCODING 12660
SWIDTH 625 0
DWIDTH 10 0
BBX 9 7 0 1
BITMAP
AB80
A880
E880
A880
B480
B480
F280
ENDCHAR
STARTCHAR U+3175
ENCODING 12661
SWIDTH 625 0
DWIDTH 10 0
BBX 9 7 0 1
BITMAP
AB80
AA00
EA00
AA00
B600
B600
F780
ENDCHAR
STARTCHAR U+3176
ENCODING 12662
SWIDTH 625 0
DWIDTH 10 0
BBX 9 7 0 1
BITMAP
9F80
9200
F200
9500
9500
9880
F880
ENDCHAR
STARTCHAR U+3177
ENCODING 12663
SWIDTH 625 0
DWIDTH 10 0
BBX 9 7 0 1
BITMAP
9780
9400
F400
9780
9400
9400
F780
ENDCHAR
STARTCHAR U+3178
ENCODING 12664
SWIDTH 625 0
DWIDTH 10 0
BBX 7 9 1 0
BITMAP
82
FE
82
FE
10
7C
82
82
7C
ENDCHAR
STARTCHAR U+3179
ENCODING 12665
SWIDTH 625 0
DWIDTH 10 0
BBX 7 9 1 0
BITMAP
AA
EE
AA
EE
10
7C
82
82
7C
ENDCHAR
STARTCHAR U+317A
ENCODING 12666
SWIDTH 625 0
DWIDTH 10 0
BBX 9 7 0 1
BITMAP
2780
2080
2080
5080
5080
8880
8880
ENDCHAR
STARTCHAR U+317B
ENCODING 12667
SWIDTH 625 0
DWIDTH 10 0
BBX 9 7 0 1
BITMAP
2400
2400
2400
5400
5400
8C00
8F80
ENDCHAR
STARTCHAR U+317C
ENCODING 12668
SWIDTH 625 0
DWIDTH 10 0
BBX 9 7 0 1
BITMAP
2780
2400
2400
5400
5400
8C00
8F80
ENDCHAR
STARTCHAR U+317D
ENCODING 12669
SWIDTH 625 0
DWIDTH 10 0
BBX 9 7 0 1
BITMAP
2480
2480
2780
5480
5480
8C80
8F80
ENDCHAR
STARTCHAR U+317E
ENCODING 12670
SWIDTH 625 0
DWIDTH 10 0
BBX 9 7 0 1
BITMAP
2F80
2200
2200
5500
5500
8880
8880
ENDCHAR
STARTCHAR U+317F
ENCODING 12671
SWIDTH 625 0
DWIDTH 10 0
BBX 7 7 1 1
BITMAP
10
28
28
44
44
82
FE
ENDCHAR
STARTCHAR U+3180
ENCODING 12672
SWIDTH 625 0
DWIDTH 10 0
BBX 9 7 0 1
BITMAP
4200
4200
6300
9480
9480
9480
6300
ENDCHAR
STARTCHAR U+3181
ENCODING 12673
SWIDTH 625 0
DWIDTH 10 0
BBX 5 7 2 1
BITMAP
20
20
70
88
88
88
70
ENDCHAR
STARTCHAR U+3182
ENCODING 12674
SWIDTH 625 0
DWIDTH 10 0
BBX 9 7 0 1
BITMAP
4200
4200
6200
9500
9500
9880
6880
ENDCHAR
STARTCHAR U+3183
ENCODING 12675
SWIDTH 625 0
DWIDTH 10 0
BBX 9 7 0 1
BITMAP
4200
4200
6500
9500
9880
9880
6F80
ENDCHAR
STARTCHAR U+3184
ENCODING 12676
SWIDTH 625 0
DWIDTH 10 0
BBX 7 9 1 0
BITMAP
FE
44
44
FE
10
7C
82
82
7C
ENDCHAR
STARTCHAR U+3185
ENCODING 12677
SWIDTH 750 0
DWIDTH 12 0
BBX 11 8 0 1
BITMAP
71C0
0000
FBE0
0000
71C0
8A20
8A20
71C0
ENDCHAR
STARTCHAR U+3186
ENCODING 12678
SWIDTH 625 0
DWIDTH 10 0
BBX 7 7 1 1
BITMAP
FE
00
38
44
44
44
38
ENDCHAR
STARTCHAR U+3187
ENCODING 12679
SWIDTH 625 0
DWIDTH 10 0
BBX 9 9 0 0
BITMAP
0100
0100
0180
4900
4900
4980
FD00
0100
0100
ENDCHAR
STARTCHAR U+3188
ENCODING 12680
SWIDTH 625 0
DWIDTH 10 0
BBX 9 9 0 0
BITMAP
0280
0280
0380
4A80
4A80
4B80
FE80
0280
0280
ENDCHAR
STARTCHAR U+3189
ENCODING 12681
SWIDTH 625 0
DWIDTH 10 0
BBX 9 9 0 0
BITMAP
0080
0080
0080
4880
4880
4880
FE80
0080
0080
ENDCHAR
STARTCHAR U+318A
ENCODING 12682
SWIDTH 625 0
DWIDTH 10 0
BBX 9 9 0 0
BITMAP
0080
0080
0080
FE80
4880
4B80
4880
4B80
4880
ENDCHAR
STARTCHAR U+318B
ENCODING 12683
SWIDTH 625 0
DWIDTH 10 0
BBX 9 9 0 0
BITMAP
0280
0280
0280
FE80
5280
5680
5280
5680
5280
ENDCHAR
STARTCHAR U+318C
ENCODING 12684
SWIDTH 625 0
DWIDTH 10 0
BBX 9 9 0 0
BITMAP
0080
0080
0080
0080
FE80
4880
4880
4880
4880
ENDCHAR
STARTCHAR U+318D
ENCODING 12685
SWIDTH 625 0
DWIDTH 10 0
BBX 2 2 3 4
BITMAP
C0
C0
ENDCHAR
STARTCHAR U+318E
ENCODING 12686
SWIDTH 625 0
DWIDTH 10 0
BBX 6 9 3 0
BITMAP
04
04
04
C4
C4
04
04
04
04
ENDCHAR
STARTCHAR U+3200
ENCODING 12800
SWIDTH 625 0
DWIDTH 10 0
BBX 9 9 0 0
BITMAP
4100
8080
BE80
8280
8280
8280
8280
8080
4100
ENDCHAR
STARTCHAR U+3201
ENCODING 12801
SWIDTH 625 0
DWIDTH 10 0
BBX 9 9 0 0
BITMAP
4100
8080
A080
A080
A080
A080
BE80
8080
4100
ENDCHAR
STARTCHAR U+3202
ENCODING 12802
SWIDTH 625 0
DWIDTH 10 0
BBX 9 9 0 0
BITMAP
4100
8080
BE80
A080
A080
A080
BE80
8080
4100
ENDCHAR
STARTCHAR U+3203
ENCODING 12803
SWIDTH 625 0
DWIDTH 10 0
BBX 9 9 0 0
BITMAP
4100
8080
BE80
8280
BE80
A080
BE80
8080
4100
ENDCHAR
STARTCHAR U+3204
ENCODING 12804
SWIDTH 625 0
DWIDTH 10 0
BBX 9 9 0 0
BITMAP
4100
8080
BE80
A280
A280
A280
BE80
8080
4100
ENDCHAR
STARTCHAR U+3205
ENCODING 12805
SWIDTH 625 0
DWIDTH 10 0
BBX 9 9 0 0
BITMAP
4100
8080
A280
BE80
A280
A280
BE80
8080
4100
ENDCHAR
STARTCHAR U+3206
ENCODING 12806
SWIDTH 625 0
DWIDTH 10 0
BBX 9 9 0 0
BITMAP
4100
8080
8880
8880
9480
9480
A280
8080
4100
ENDCHAR
STARTCHAR U+3207
ENCODING 12807
SWIDTH 625 0
DWIDTH 10 0
BBX 9 9 0 0
BITMAP
4100
8080
9C80
A280
A280
A280
9C80
8080
4100
ENDCHAR
STARTCHAR U+3208
ENCODING 12808
SWIDTH 625 0
DWIDTH 10 0
BBX 9 9 0 0
BITMAP
4100
8080
BE80
8880
8880
9480
A280
8080
4100
ENDCHAR
STARTCHAR U+3209
ENCODING 12809
SWIDTH 625 0
DWIDTH 10 0
BBX 9 9 0 0
BITMAP
4100
8880
BE80
8880
8880
9480
A280
8080
4100
ENDCHAR
STARTCHAR U+320A
ENCODING 12810
SWIDTH 625 0
DWIDTH 10 0
BBX 9 9 0 0
BITMAP
4100
8080
BE80
8280
BE80
8280
8280
8080
4100
ENDCHAR
STARTCHAR U+320B
ENCODING 12811
SWIDTH 625 0
DWIDTH 10 0
BBX 9 9 0 0
BITMAP
4100
8080
BE80
A080
BE80
A080
BE80
8080
4100
ENDCHAR
STARTCHAR U+320C
ENCODING 12812
SWIDTH 625 0
DWIDTH 10 0
BBX 9 9 0 0
BITMAP
4100
8080
BE80
9480
9480
9480
BE80
8080
4100
ENDCHAR
STARTCHAR U+320D
ENCODING 12813
SWIDTH 625 0
DWIDTH 10 0
BBX 9 9 0 0
BITMAP
4100
8880
BE80
8080
9C80
A280
9C80
8080
4100
ENDCHAR
STARTCHAR U+321C
ENCODING 12828
SWIDTH 625 0
DWIDTH 10 0
BBX 9 9 0 0
BITMAP
4100
BE80
8880
B680
8080
BE80
8880
8880
4100
ENDCHAR
STARTCHAR U+3231
ENCODING 12849
SWIDTH 625 0
DWIDTH 10 0
BBX 9 9 0 0
BITMAP
4100
A480
FE80
A480
AE80
F480
AE80
B580
4100
ENDCHAR
STARTCHAR U+3232
ENCODING 12850
SWIDTH 625 0
DWIDTH 10 0
BBX 9 9 0 0
BITMAP
5100
BE80
9080
BE80
D280
9E80
9280
9E80
5300
ENDCHAR
STARTCHAR U+3239
ENCODING 12857
SWIDTH 625 0
DWIDTH 10 0
BBX 9 9 0 0
BITMAP
4100
9480
A480
EE80
A480
A480
A480
A680
4100
ENDCHAR
STARTCHAR U+3260
ENCODING 12896
SWIDTH 625 0
DWIDTH 10 0
BBX 9 9 0 0
BITMAP
3E00
4100
BE80
8280
8280
8280
8280
4100
3E00
ENDCHAR
STARTCHAR U+3261
ENCODING 12897
SWIDTH 625 0
DWIDTH 10 0
BBX 9 9 0 0
BITMAP
3E00
4100
A080
A080
A080
A080
BE80
4100
3E00
ENDCHAR
STARTCHAR U+3262
ENCODING 12898
SWIDTH 625 0
DWIDTH 10 0
BBX 9 9 0 0
BITMAP
3E00
4100
BE80
A080
A080
A080
BE80
4100
3E00
ENDCHAR
STARTCHAR U+3263
ENCODING 12899
SWIDTH 625 0
DWIDTH 10 0
BBX 9 9 0 0
BITMAP
3E00
4100
BE80
8280
BE80
A080
BE80
4100
3E00
ENDCHAR
STARTCHAR U+3264
ENCODING 12900
SWIDTH 625 0
DWIDTH 10 0
BBX 9 9 0 0
BITMAP
3E00
4100
BE80
A280
A280
A280
BE80
4100
3E00
ENDCHAR
STARTCHAR U+3265
ENCODING 12901
SWIDTH 625 0
DWIDTH 10 0
BBX 9 9 0 0
BITMAP
3E00
4100
A280
BE80
A280
A280
BE80
4100
3E00
ENDCHAR
STARTCHAR U+3266
ENCODING 12902
SWIDTH 625 0
DWIDTH 10 0
BBX 9 9 0 0
BITMAP
3E00
4100
8880
8880
9480
A280
8080
4100
3E00
ENDCHAR
STARTCHAR U+3267
ENCODING 12903
SWIDTH 625 0
DWIDTH 10 0
BBX 9 9 0 0
BITMAP
3E00
4100
9C80
A280
A280
A280
9C80
4100
3E00
ENDCHAR
STARTCHAR U+3268
ENCODING 12904
SWIDTH 625 0
DWIDTH 10 0
BBX 9 9 0 0
BITMAP
3E00
4100
BE80
8880
8880
9480
A280
4100
3E00
ENDCHAR
STARTCHAR U+3269
ENCODING 12905
SWIDTH 625 0
DWIDTH 10 0
BBX 9 9 0 0
BITMAP
3E00
4100
8880
BE80
8880
9480
A280
4100
3E00
ENDCHAR
STARTCHAR U+326A
ENCODING 12906
SWIDTH 625 0
DWIDTH 10 0
BBX 9 9 0 0
BITMAP
3E00
4100
BE80
8280
BE80
8280
8280
4100
3E00
ENDCHAR
STARTCHAR U+326B
ENCODING 12907
SWIDTH 625 0
DWIDTH 10 0
BBX 9 9 0 0
BITMAP
3E00
4100
BE80
A080
BE80
A080
BE80
4100
3E00
ENDCHAR
STARTCHAR U+326C
ENCODING 12908
SWIDTH 625 0
DWIDTH 10 0
BBX 9 9 0 0
BITMAP
3E00
4100
BE80
9480
9480
9480
BE80
4100
3E00
ENDCHAR
STARTCHAR U+326D
ENCODING 12909
SWIDTH 625 0
DWIDTH 10 0
BBX 9 9 0 0
BITMAP
3E00
4100
8880
BE80
9C80
A280
9C80
4100
3E00
ENDCHAR
STARTCHAR U+327E
ENCODING 12926
SWIDTH 625 0
DWIDTH 10 0
BBX 9 9 0 0
BITMAP
3E00
4100
9C80
A280
9C80
BE80
8880
4100
3E00
ENDCHAR
STARTCHAR U+327F
ENCODING 12927
SWIDTH 625 0
DWIDTH 10 0
BBX 9 9 0 0
BITMAP
3E00
4100
8080
9400
D980
1480
8080
4100
3E00
ENDCHAR
STARTCHAR U+32A4
ENCODING 12964
SWIDTH 625 0
DWIDTH 10 0
BBX 9 9 0 0
BITMAP
3E00
4100
8880
8E80
8880
8880
BE80
4100
3E00
ENDCHAR
STARTCHAR U+32A5
ENCODING 12965
SWIDTH 625 0
DWIDTH 10 0
BBX 9 9 0 0
BITMAP
3E00
4100
8880
BE80
AA80
BE80
8880
4100
3E00
ENDCHAR
STARTCHAR U+32A6
ENCODING 12966
SWIDTH 625 0
DWIDTH 10 0
BBX 9 9 0 0
BITMAP
3E00
4100
BE80
8880
8C80
8A80
8880
4100
3E00
ENDCHAR
STARTCHAR U+32A7
ENCODING 12967
SWIDTH 625 0
DWIDTH 10 0
BBX 9 9 0 0
BITMAP
3E00
5100
BE80
9080
AE80
C480
9E80
4100
3E00
ENDCHAR
STARTCHAR U+32A8
ENCODING 12968
SWIDTH 625 0
DWIDTH 10 0
BBX 9 9 0 0
BITMAP
3E00
5100
BE80
9080
BE80
D280
9E80
4100
3E00
ENDCHAR
STARTCHAR U+3303
ENCODING 13059
SWIDTH 625 0
DWIDTH 10 0
BBX 9 9 0 0
BITMAP
F000
1000
6780
4000
8000
0000
5000
5400
9800
ENDCHAR
STARTCHAR U+330D
ENCODING 13069
SWIDTH 625 0
DWIDTH 10 0
BBX 9 9 0 0
BITMAP
4780
F480
5480
9780
0000
9000
9780
1000
6000
ENDCHAR
STARTCHAR U+3314
ENCODING 13076
SWIDTH 625 0
DWIDTH 10 0
BBX 9 9 0 0
BITMAP
4000
F000
2000
F800
1000
0780
0480
0480
0780
ENDCHAR
STARTCHAR U+3318
ENCODING 13080
SWIDTH 625 0
DWIDTH 10 0
BBX 8 9 0 0
BITMAP
57
70
97
21
C6
20
40
90
F8
ENDCHAR
STARTCHAR U+3322
ENCODING 13090
SWIDTH 625 0
DWIDTH 10 0
BBX 9 9 0 0
BITMAP
4600
F080
4080
3700
E000
2000
F000
2000
C000
ENDCHAR
STARTCHAR U+3323
ENCODING 13091
SWIDTH 625 0
DWIDTH 10 0
BBX 9 9 0 0
BITMAP
4600
F080
4080
3700
4000
4000
6000
5000
4000
ENDCHAR
STARTCHAR U+3326
ENCODING 13094
SWIDTH 625 0
DWIDTH 10 0
BBX 9 9 0 0
BITMAP
B000
8000
C000
A000
8A00
0A00
0A00
0A80
1300
ENDCHAR
STARTCHAR U+3327
ENCODING 13095
SWIDTH 625 0
DWIDTH 10 0
BBX 8 9 1 0
BITMAP
80
80
C0
A0
80
0D
01
01
0E
ENDCHAR
STARTCHAR U+332B
ENCODING 13099
SWIDTH 625 0
DWIDTH 10 0
BBX 9 9 0 0
BITMAP
5400
5000
5380
8800
0100
4900
F580
4300
6D00
ENDCHAR
STARTCHAR U+3336
ENCODING 13110
SWIDTH 625 0
DWIDTH 10 0
BBX 9 9 0 0
BITMAP
4700
A500
1100
0600
E000
A500
FD00
2500
C980
ENDCHAR
STARTCHAR U+333B
ENCODING 13115
SWIDTH 625 0
DWIDTH 10 0
BBX 9 9 0 1
BITMAP
0800
6000
9380
0800
C000
1800
C000
1000
E000
ENDCHAR
STARTCHAR U+3349
ENCODING 13129
SWIDTH 625 0
DWIDTH 10 0
BBX 7 9 1 0
BITMAP
C0
20
C0
20
CA
2A
0A
02
0C
ENDCHAR
STARTCHAR U+334A
ENCODING 13130
SWIDTH 625 0
DWIDTH 10 0
BBX 9 9 0 0
BITMAP
C500
2500
C100
2600
0000
A500
BD00
A500
9980
ENDCHAR
STARTCHAR U+334D
ENCODING 13133
SWIDTH 625 0
DWIDTH 10 0
BBX 9 9 0 0
BITMAP
2000
A000
4780
A000
0000
8A00
CA00
AA80
8B00
ENDCHAR
STARTCHAR U+3351
ENCODING 13137
SWIDTH 625 0
DWIDTH 10 0
BBX 9 9 0 0
BITMAP
A000
AA80
2080
4700
8000
8A00
CA00
AA80
8B00
ENDCHAR
STARTCHAR U+3357
ENCODING 13143
SWIDTH 625 0
DWIDTH 10 0
BBX 9 9 0 0
BITMAP
F000
9A80
1080
1700
6000
4000
6000
5000
4000
ENDCHAR
STARTCHAR U+337B
ENCODING 13179
SWIDTH 625 0
DWIDTH 10 0
BBX 9 9 0 0
BITMAP
E100
4F80
E900
4900
4F00
EB00
4D80
4900
5280
ENDCHAR
STARTCHAR U+337C
ENCODING 13180
SWIDTH 625 0
DWIDTH 10 0
BBX 9 9 0 0
BITMAP
FC00
AB80
EA80
BE80
AA80
FE80
2A80
2B80
5800
ENDCHAR
STARTCHAR U+337D
ENCODING 13181
SWIDTH 625 0
DWIDTH 10 0
BBX 9 9 0 0
BITMAP
2780
2100
F900
2100
2580
2500
2500
5500
8F80
ENDCHAR
STARTCHAR U+337E
ENCODING 13182
SWIDTH 625 0
DWIDTH 10 0
BBX 9 9 0 0
BITMAP
FA00
AA00
BA80
EF80
A800
BB80
EA80
2A80
4B80
ENDCHAR
STARTCHAR U+338E
ENCODING 13198
SWIDTH 625 0
DWIDTH 10 0
BBX 9 7 0 0
BITMAP
D100
AA80
AA80
AA80
A980
A880
AB00
ENDCHAR
STARTCHAR U+338F
ENCODING 13199
SWIDTH 625 0
DWIDTH 10 0
BBX 8 9 0 0
BITMAP
80
80
92
A5
C5
A5
A3
91
96
ENDCHAR
STARTCHAR U+339C
ENCODING 13212
SWIDTH 625 0
DWIDTH 10 0
BBX 9 7 0 0
BITMAP
D500
AA80
AA80
AA80
AA80
AA80
AA80
ENDCHAR
STARTCHAR U+339D
ENCODING 13213
SWIDTH 625 0
DWIDTH 10 0
BBX 9 7 0 0
BITMAP
4D00
AA80
8A80
8A80
8A80
AA80
4A80
ENDCHAR
STARTCHAR U+339E
ENCODING 13214
SWIDTH 625 0
DWIDTH 10 0
BBX 9 9 0 0
BITMAP
8000
8000
AD00
AA80
CA80
AA80
AA80
AA80
9A80
ENDCHAR
STARTCHAR U+33A1
ENCODING 13217
SWIDTH 625 0
DWIDTH 10 0
BBX 9 10 0 0
BITMAP
0300
0080
0100
D380
A800
A800
A800
A800
A800
A800
ENDCHAR
STARTCHAR U+33A5
ENCODING 13221
SWIDTH 625 0
DWIDTH 10 0
BBX 9 10 0 0
BITMAP
0300
0080
0300
D080
AB00
A800
A800
A800
A800
A800
ENDCHAR
STARTCHAR U+33C4
ENCODING 13252
SWIDTH 625 0
DWIDTH 10 0
BBX 9 7 0 0
BITMAP
6300
9480
8400
8400
8400
9480
6300
ENDCHAR
STARTCHAR U+33CD
ENCODING 13261
SWIDTH 625 0
DWIDTH 10 0
BBX 9 9 0 0
BITMAP
9480
9480
A500
A500
C600
A500
A500
9480
9C80
ENDCHAR
STARTCHAR U+4E00
ENCODING 19968
SWIDTH 625 0
DWIDTH 10 0
BBX 9 1 0 4
BITMAP
FF80
ENDCHAR
STARTCHAR U+4E01
ENCODING 19969
SWIDTH 625 0
DWIDTH 10 0
BBX 9 9 0 0
BITMAP
FF80
0800
0800
0800
0800
0800
0800
0800
3800
ENDCHAR
STARTCHAR U+4E03
ENCODING 19971
SWIDTH 625 0
DWIDTH 10 0
BBX 9 9 0 0
BITMAP
2000
2000
2300
3C00
E000
2000
2080
2080
1F00
ENDCHAR
STARTCHAR U+4E07
ENCODING 19975
SWIDTH 625 0
DWIDTH 10 0
BBX 9 9 0 0
BITMAP
FF80
2000
2000
3F00
2100
2100
2100
4100
8700
ENDCHAR
STARTCHAR U+4E08
ENCODING 19976
SWIDTH 625 0
DWIDTH 10 0
BBX 9 9 0 0
BITMAP
0800
0800
FF80
0800
4800
2800
1800
1400
E380
ENDCHAR
STARTCHAR U+4E09
ENCODING 19977
SWIDTH 625 0
DWIDTH 10 0
BBX 9 9 0 0
BITMAP
FF80
0000
0000
0000
7F00
0000
0000
0000
FF80
ENDCHAR
STARTCHAR U+4E0A
ENCODING 19978
SWIDTH 625 0
DWIDTH 10 0
BBX 9 9 0 0
BITMAP
0800
0800
0800
0F00
0800
0800
0800
0800
FF80
ENDCHAR
STARTCHAR U+4E0B
ENCODING 19979
SWIDTH 625 0
DWIDTH 10 0
BBX 9 9 0 0
BITMAP
FF80
0800
0800
0C00
0A00
0900
0800
0800
0800
ENDCHAR
STARTCHAR U+4E0D
ENCODING 19981
SWIDTH 625 0
DWIDTH 10 0
BBX 9 9 0 0
BITMAP
FF80
0400
0800
1A00
2900
C880
0800
0800
0800
ENDCHAR
STARTCHAR U+4E0E
ENCODING 19982
SWIDTH 625 0
DWIDTH 10 0
BBX 9 9 0 0
BITMAP
2000
3F00
2000
3E00
0200
FF80
0200
0200
1E00
ENDCHAR
STARTCHAR U+4E10
ENCODING 19984
SWIDTH 625 0
DWIDTH 10 0
BBX 9 9 0 0
BITMAP
FF80
0800
8F80
8800
8800
FF80
0080
0080
0780
ENDCHAR
STARTCHAR U+4E11
ENCODING 19985
SWIDTH 625 0
DWIDTH 10 0
BBX 9 9 0 0
BITMAP
7E00
1200
1200
1200
FF80
1200
1200
1200
FF80
ENDCHAR
STARTCHAR U+4E14
ENCODING 19988
SWIDTH 625 0
DWIDTH 10 0
BBX 9 9 0 0
BITMAP
7F00
4100
4100
7F00
4100
7F00
4100
4100
FF80
ENDCHAR
STARTCHAR U+4E15
ENCODING 19989
SWIDTH 625 0
DWIDTH 10 0
BBX 9 9 0 0
BITMAP
FF80
0800
1C00
2A00
4900
8880
0800
0000
FF80
ENDCHAR
STARTCHAR U+4E16
ENCODING 19990
SWIDTH 625 0
DWIDTH 10 0
BBX 9 9 0 0
BITMAP
4900
4900
FF80
4900
4900
4F00
4000
4000
7F80
ENDCHAR
STARTCHAR U+4E17
ENCODING 19991
SWIDTH 625 0
DWIDTH 10 0
BBX 9 9 0 0
BITMAP
4900
4900
4900
FF80
4900
4900
4900
4900
7F00
ENDCHAR
STARTCHAR U+4E18
ENCODING 19992
SWIDTH 625 0
DWIDTH 10 0
BBX 9 9 0 0
BITMAP
7F00
4000
4000
7F80
4400
4400
4400
4400
FF80
ENDCHAR
STARTCHAR U+4E19
ENCODING 19993
SWIDTH 625 0
DWIDTH 10 0
BBX 9 9 0 0
BITMAP
FF80
0800
FF80
8880
8880
9480
A280
8080
8180
ENDCHAR
STARTCHAR U+4E1E
ENCODING 19998
SWIDTH 625 0
DWIDTH 10 0
BBX 9 9 0 0
BITMAP
7E00
0400
EA80
2B00
2A00
4900
9880
0000
FF80
ENDCHAR
STARTCHAR U+4E21
ENCODING 20001
SWIDTH 625 0
DWIDTH 10 0
BBX 9 9 0 0
BITMAP
FF80
0800
FF80
8880
8880
AA80
AA80
BE80
8180
ENDCHAR
STARTCHAR U+4E26
ENCODING 20006
SWIDTH 625 0
DWIDTH 10 0
BBX 9 9 0 0
BITMAP
2200
FF80
1400
1400
9480
5500
3600
1400
FF80
ENDCHAR
STARTCHAR U+4E2A
ENCODING 20010
SWIDTH 625 0
DWIDTH 10 0
BBX 9 9 0 0
BITMAP
0800
1400
2200
4900
8880
0800
0800
0800
0800
ENDCHAR
STARTCHAR U+4E2D
ENCODING 20013
SWIDTH 625 0
DWIDTH 10 0
BBX 9 9 0 0
BITMAP
0800
0800
FF80
8880
8880
FF80
0800
0800
0800
ENDCHAR
STARTCHAR U+4E31
ENCODING 20017
SWIDTH 625 0
DWIDTH 10 0
BBX 9 9 0 0
BITMAP
1400
9480
9480
9480
9480
F780
1400
1400
6400
ENDCHAR
STARTCHAR U+4E32
ENCODING 20018
SWIDTH 625 0
DWIDTH 10 0
BBX 9 9 0 0
BITMAP
0800
FF80
8880
FF80
0800
FF80
8880
FF80
0800
ENDCHAR
STARTCHAR U+4E36
ENCODING 20022
SWIDTH 625 0
DWIDTH 10 0
BBX 4 4 2 3
BITMAP
80
40
20
10
ENDCHAR
STARTCHAR U+4E38
ENCODING 20024
SWIDTH 625 0
DWIDTH 10 0
BBX 9 9 0 0
BITMAP
2000
FE00
2200
A200
6200
2200
5200
4A80
8B80
ENDCHAR
STARTCHAR U+4E39
ENCODING 20025
SWIDTH 625 0
DWIDTH 10 0
BBX 9 9 0 0
BITMAP
7F00
4100
4900
4900
FF80
4100
4100
4100
8700
ENDCHAR
STARTCHAR U+4E3B
ENCODING 20027
SWIDTH 625 0
DWIDTH 10 0
BBX 9 9 0 0
BITMAP
1000
0800
FF80
0800
0800
7F00
0800
0800
FF80
ENDCHAR
STARTCHAR U+4E3C
ENCODING 20028
SWIDTH 625 0
DWIDTH 10 0
BBX 9 9 0 0
BITMAP
2200
FF80
2200
2A00
2A00
FF80
2200
4200
8200
ENDCHAR
STARTCHAR U+4E3F
ENCODING 20031
SWIDTH 625 0
DWIDTH 10 0
BBX 4 9 2 0
BITMAP
10
10
10
10
10
10
10
20
C0
ENDCHAR
STARTCHAR U+4E42
ENCODING 20034
SWIDTH 625 0
DWIDTH 10 0
BBX 9 9 0 0
BITMAP
4100
4100
4100
2200
1400
0800
1400
2200
C180
ENDCHAR
STARTCHAR U+4E43
ENCODING 20035
SWIDTH 625 0
DWIDTH 10 0
BBX 9 9 0 0
BITMAP
FE00
2200
2200
2380
2080
2080
2080
4080
8380
ENDCHAR
STARTCHAR U+4E45
ENCODING 20037
SWIDTH 625 0
DWIDTH 10 0
BBX 9 9 0 0
BITMAP
2000
3C00
4400
8400
0400
0800
1400
2200
C180
ENDCHAR
STARTCHAR U+4E4B
ENCODING 20043
SWIDTH 625 0
DWIDTH 10 0
BBX 9 9 0 0
BITMAP
0800
0800
FF00
0200
0400
0800
3000
5000
8F80
ENDCHAR
STARTCHAR U+4E4D
ENCODING 20045
SWIDTH 625 0
DWIDTH 10 0
BBX 9 9 0 0
BITMAP
4000
7F80
4800
8F00
0800
0800
0F00
0800
0800
ENDCHAR
STARTCHAR U+4E4E
ENCODING 20046
SWIDTH 625 0
DWIDTH 10 0
BBX 9 9 0 0
BITMAP
0600
7800
0800
4900
2A00
FF80
0800
0800
3800
ENDCHAR
STARTCHAR U+4E4F
ENCODING 20047
SWIDTH 625 0
DWIDTH 10 0
BBX 9 9 0 0
BITMAP
7F00
0800
FF80
0100
0200
0C00
3000
4800
8780
ENDCHAR
STARTCHAR U+4E55
ENCODING 20053
SWIDTH 625 0
DWIDTH 10 0
BBX 9 9 0 0
BITMAP
FF80
8400
BF80
8400
BF80
8400
BF80
A480
A480
ENDCHAR
STARTCHAR U+4E56
ENCODING 20054
SWIDTH 625 0
DWIDTH 10 0
BBX 9 9 0 0
BITMAP
7F00
0800
FF80
2A00
EA80
2B00
EA00
2B80
0800
ENDCHAR
STARTCHAR U+4E57
ENCODING 20055
SWIDTH 625 0
DWIDTH 10 0
BBX 9 9 0 0
BITMAP
7F00
0800
FF80
4900
FF80
4900
FF80
2A00
C980
ENDCHAR
STARTCHAR U+4E58
ENCODING 20056
SWIDTH 625 0
DWIDTH 10 0
BBX 9 9 0 0
BITMAP
7F00
0800
FF80
2A00
2A80
EB80
1C00
2A00
C980
ENDCHAR
STARTCHAR U+4E59
ENCODING 20057
SWIDTH 625 0
DWIDTH 10 0
BBX 9 9 0 0
BITMAP
7E00
0400
0800
1000
2000
4080
8080
8080
7F00
ENDCHAR
STARTCHAR U+4E5D
ENCODING 20061
SWIDTH 625 0
DWIDTH 10 0
BBX 9 9 0 0
BITMAP
1000
1000
FE00
1200
1200
1200
1280
2280
C380
ENDCHAR
STARTCHAR U+4E5E
ENCODING 20062
SWIDTH 625 0
DWIDTH 10 0
BBX 9 9 0 0
BITMAP
4000
7F80
4000
BF00
0400
1800
2080
4080
3F00
ENDCHAR
STARTCHAR U+4E5F
ENCODING 20063
SWIDTH 625 0
DWIDTH 10 0
BBX 9 9 0 0
BITMAP
4800
4B00
5D00
E900
4900
4B00
4000
4080
7F80
ENDCHAR
STARTCHAR U+4E62
ENCODING 20066
SWIDTH 625 0
DWIDTH 10 0
BBX 9 9 0 0
BITMAP
2200
AA00
AA00
AA00
AA80
AA80
AA80
FA80
0380
ENDCHAR
STARTCHAR U+4E71
ENCODING 20081
SWIDTH 625 0
DWIDTH 10 0
BBX 9 9 0 0
BITMAP
0A00
F200
2200
FA00
2200
FA80
8A80
8A80
FB80
ENDCHAR
STARTCHAR U+4E73
ENCODING 20083
SWIDTH 625 0
DWIDTH 10 0
BBX 9 9 0 0
BITMAP
F800
0200
AA00
FA00
1200
FA00
2280
2280
6380
ENDCHAR
STARTCHAR U+4E7E
ENCODING 20094
SWIDTH 625 0
DWIDTH 10 0
BBX 9 9 0 0
BITMAP
4400
F780
4800
F780
9100
F200
4400
F880
4780
ENDCHAR
STARTCHAR U+4E80
ENCODING 20096
SWIDTH 625 0
DWIDTH 10 0
BBX 8 9 0 0
BITMAP
78
88
FE
92
FE
92
FE
10
1F
ENDCHAR
STARTCHAR U+4E82
ENCODING 20098
SWIDTH 625 0
DWIDTH 10 0
BBX 9 9 0 0
BITMAP
FD00
5100
FD00
0900
FD00
A500
FD00
9500
AD80
ENDCHAR
STARTCHAR U+4E85
ENCODING 20101
SWIDTH 625 0
DWIDTH 10 0
BBX 4 9 2 0
BITMAP
10
10
10
10
10
10
10
10
E0
ENDCHAR
STARTCHAR U+4E86
ENCODING 20102
SWIDTH 625 0
DWIDTH 10 0
BBX 9 9 0 0
BITMAP
FF80
0100
0200
0C00
0800
0800
0800
0800
3800
ENDCHAR
STARTCHAR U+4E88
ENCODING 20104
SWIDTH 625 0
DWIDTH 10 0
BBX 9 9 0 0
BITMAP
7F00
0A00
0400
FF80
0880
0900
0800
0800
3800
ENDCHAR
STARTCHAR U+4E89
ENCODING 20105
SWIDTH 625 0
DWIDTH 10 0
BBX 9 9 0 0
BITMAP
3E00
4400
FF00
0900
FF80
0900
FF00
0800
1800
ENDCHAR
STARTCHAR U+4E8A
ENCODING 20106
SWIDTH 625 0
DWIDTH 10 0
BBX 9 9 0 0
BITMAP
0800
FF80
2A00
7F00
0900
FF80
0900
7F00
0800
ENDCHAR
STARTCHAR U+4E8B
ENCODING 20107
SWIDTH 625 0
DWIDTH 10 0
BBX 9 9 0 0
BITMAP
0800
FF80
4900
7F00
0900
FF80
0900
7F00
0800
ENDCHAR
STARTCHAR U+4E8C
ENCODING 20108
SWIDTH 625 0
DWIDTH 10 0
BBX 9 9 0 0
BITMAP
7F00
0000
0000
0000
0000
0000
0000
0000
FF80
ENDCHAR
STARTCHAR U+4E8E
ENCODING 20110
SWIDTH 625 0
DWIDTH 10 0
BBX 9 9 0 0
BITMAP
7F00
0800
0800
0800
FF80
0800
0800
0800
3800
ENDCHAR
STARTCHAR U+4E91
ENCODING 20113
SWIDTH 625 0
DWIDTH 10 0
BBX 9 9 0 0
BITMAP
7F00
0000
0000
FF80
1000
1000
2200
4100
FF80
ENDCHAR
STARTCHAR U+4E92
ENCODING 20114
SWIDTH 625 0
DWIDTH 10 0
BBX 9 9 0 0
BITMAP
FF80
2000
3E00
2200
2200
2200
3E00
0200
FF80
ENDCHAR
STARTCHAR U+4E94
ENCODING 20116
SWIDTH 625 0
DWIDTH 10 0
BBX 9 9 0 0
BITMAP
FF00
1000
1000
7E00
2200
2200
2200
2200
FF80
ENDCHAR
STARTCHAR U+4E95
ENCODING 20117
SWIDTH 625 0
DWIDTH 10 0
BBX 9 9 0 0
BITMAP
2200
FF80
2200
2200
2200
FF80
2200
2200
4200
ENDCHAR
STARTCHAR U+4E98
ENCODING 20120
SWIDTH 625 0
DWIDTH 10 0
BBX 9 9 0 0
BITMAP
FF80
0000
7F00
4100
7F00
4100
7F00
0000
FF80
ENDCHAR
STARTCHAR U+4E99
ENCODING 20121
SWIDTH 625 0
DWIDTH 10 0
BBX 9 9 0 0
BITMAP
FF80
4000
7F00
4100
5900
4500
1900
0500
FF80
ENDCHAR
STARTCHAR U+4E9B
ENCODING 20123
SWIDTH 625 0
DWIDTH 10 0
BBX 9 9 0 0
BITMAP
2400
B700
A400
A480
F780
0000
7F00
0000
FF80
ENDCHAR
STARTCHAR U+4E9C
ENCODING 20124
SWIDTH 625 0
DWIDTH 10 0
BBX 9 9 0 0
BITMAP
FF80
1400
FF80
9480
9480
9480
FF80
1400
FF80
ENDCHAR
STARTCHAR U+4E9E
ENCODING 20126
SWIDTH 625 0
DWIDTH 10 0
BBX 9 9 0 0
BITMAP
FF80
1400
1400
F780
8080
F780
1400
1400
FF80
ENDCHAR
STARTCHAR U+4E9F
ENCODING 20127
SWIDTH 625 0
DWIDTH 10 0
BBX 9 9 0 0
BITMAP
FF80
1000
FB80
A880
AA80
E900
1A80
0000
FF80
ENDCHAR
STARTCHAR U+4EA0
ENCODING 20128
SWIDTH 625 0
DWIDTH 10 0
BBX 9 3 0 5
BITMAP
0800
0800
FF80
ENDCHAR
STARTCHAR U+4EA1
ENCODING 20129
SWIDTH 625 0
DWIDTH 10 0
BBX 9 9 0 0
BITMAP
0800
0800
FF80
4000
4000
4000
4000
4000
7F80
ENDCHAR
STARTCHAR U+4EA2
ENCODING 20130
SWIDTH 625 0
DWIDTH 10 0
BBX 9 9 0 0
BITMAP
0800
FF80
0000
3E00
2200
2200
2280
2280
C380
ENDCHAR
STARTCHAR U+4EA4
ENCODING 20132
SWIDTH 625 0
DWIDTH 10 0
BBX 9 9 0 0
BITMAP
0800
FF80
2200
4100
A280
1400
0800
1400
E380
ENDCHAR
STARTCHAR U+4EA5
ENCODING 20133
SWIDTH 625 0
DWIDTH 10 0
BBX 9 9 0 0
BITMAP
0800
FF80
2000
4900
2900
1200
2600
4900
1080
ENDCHAR
STARTCHAR U+4EA6
ENCODING 20134
SWIDTH 625 0
DWIDTH 10 0
BBX 9 9 0 0
BITMAP
0800
FF80
1400
1400
5500
5480
9480
2400
4C00
ENDCHAR
STARTCHAR U+4EA8
ENCODING 20136
SWIDTH 625 0
DWIDTH 10 0
BBX 9 9 0 0
BITMAP
0800
FF80
4100
7F00
0000
FF00
0400
0800
3800
ENDCHAR
STARTCHAR U+4EAB
ENCODING 20139
SWIDTH 625 0
DWIDTH 10 0
BBX 9 9 0 0
BITMAP
0800
FF80
4100
7F00
0200
FF80
0800
0800
3800
ENDCHAR
STARTCHAR U+4EAC
ENCODING 20140
SWIDTH 625 0
DWIDTH 10 0
BBX 9 9 0 0
BITMAP
0800
FF80
0000
7F00
4100
7F00
0800
4900
9880
ENDCHAR
STARTCHAR U+4EAD
ENCODING 20141
SWIDTH 625 0
DWIDTH 10 0
BBX 9 9 0 0
BITMAP
0800
FF80
2200
FF80
8080
BE80
0800
0800
1800
ENDCHAR
STARTCHAR U+4EAE
ENCODING 20142
SWIDTH 625 0
DWIDTH 10 0
BBX 9 9 0 0
BITMAP
0800
FF80
2200
3E00
0000
FF80
9480
2400
C780
ENDCHAR
STARTCHAR U+4EB0
ENCODING 20144
SWIDTH 625 0
DWIDTH 10 0
BBX 9 9 0 0
BITMAP
0800
FF80
4100
7F00
4100
7F00
0800
4900
9880
ENDCHAR
STARTCHAR U+4EB3
ENCODING 20147
SWIDTH 625 0
DWIDTH 10 0
BBX 9 9 0 0
BITMAP
FF80
2200
FF80
8080
BE80
1000
FF80
1000
1F00
ENDCHAR
STARTCHAR U+4EB6
ENCODING 20150
SWIDTH 625 0
DWIDTH 10 0
BBX 9 9 0 0
BITMAP
0800
FF80
5500
5500
7F00
2200
3E00
2200
FF80
ENDCHAR
STARTCHAR U+4EBA
ENCODING 20154
SWIDTH 625 0
DWIDTH 10 0
BBX 9 9 0 0
BITMAP
0800
0800
0800
0800
0800
1400
2200
4100
8080
ENDCHAR
STARTCHAR U+4EC0
ENCODING 20160
SWIDTH 625 0
DWIDTH 10 0
BBX 9 9 0 0
BITMAP
2200
4200
C200
4F80
4200
4200
4200
4200
4200
ENDCHAR
STARTCHAR U+4EC1
ENCODING 20161
SWIDTH 625 0
DWIDTH 10 0
BBX 9 9 0 0
BITMAP
2000
4F00
C000
4000
4000
4000
4000
5F80
4000
ENDCHAR
STARTCHAR U+4EC2
ENCODING 20162
SWIDTH 625 0
DWIDTH 10 0
BBX 9 9 0 0
BITMAP
2400
4F80
C480
4480
4480
4480
4480
4480
4980
ENDCHAR
STARTCHAR U+4EC4
ENCODING 20164
SWIDTH 625 0
DWIDTH 10 0
BBX 9 9 0 0
BITMAP
7F80
4000
4400
4400
4400
4400
4A00
5100
A080
ENDCHAR
STARTCHAR U+4EC6
ENCODING 20166
SWIDTH 625 0
DWIDTH 10 0
BBX 9 9 0 0
BITMAP
2400
4400
C400
4600
4500
4480
4400
4400
4400
ENDCHAR
STARTCHAR U+4EC7
ENCODING 20167
SWIDTH 625 0
DWIDTH 10 0
BBX 9 9 0 0
BITMAP
2400
5F00
C500
4500
4500
4500
4500
4900
5180
ENDCHAR
STARTCHAR U+4ECA
ENCODING 20170
SWIDTH 625 0
DWIDTH 10 0
BBX 9 9 0 0
BITMAP
0800
3600
C180
3E00
0000
7F00
0100
0200
1C00
ENDCHAR
STARTCHAR U+4ECB
ENCODING 20171
SWIDTH 625 0
DWIDTH 10 0
BBX 9 9 0 0
BITMAP
0800
1400
2200
C180
2200
2200
2200
2200
4200
ENDCHAR
STARTCHAR U+4ECD
ENCODING 20173
SWIDTH 625 0
DWIDTH 10 0
BBX 9 9 0 0
BITMAP
5F00
4900
C900
4980
4880
4880
4880
4880
5300
ENDCHAR
STARTCHAR U+4ECE
ENCODING 20174
SWIDTH 625 0
DWIDTH 10 0
BBX 9 9 0 0
BITMAP
2200
2200
2200
2200
2200
5500
5500
8880
8880
ENDCHAR
STARTCHAR U+4ECF
ENCODING 20175
SWIDTH 625 0
DWIDTH 10 0
BBX 9 9 0 0
BITMAP
2400
4400
C400
4800
4900
4900
4900
5180
5E80
ENDCHAR
STARTCHAR U+4ED4
ENCODING 20180
SWIDTH 625 0
DWIDTH 10 0
BBX 9 9 0 0
BITMAP
2F80
4100
C200
4200
5F80
4200
4200
4200
4E00
ENDCHAR
STARTCHAR U+4ED5
ENCODING 20181
SWIDTH 625 0
DWIDTH 10 0
BBX 9 9 0 0
BITMAP
2200
4200
C200
5F80
4200
4200
4200
4200
4F80
ENDCHAR
STARTCHAR U+4ED6
ENCODING 20182
SWIDTH 625 0
DWIDTH 10 0
BBX 9 9 0 0
BITMAP
2A00
4A00
CB80
5E80
4A80
4A80
4A00
4880
4F80
ENDCHAR
STARTCHAR U+4ED7
ENCODING 20183
SWIDTH 625 0
DWIDTH 10 0
BBX 9 9 0 0
BITMAP
4200
4200
DF80
4200
4A00
4600
4200
4500
4880
ENDCHAR
STARTCHAR U+4ED8
ENCODING 20184
SWIDTH 625 0
DWIDTH 10 0
BBX 9 9 0 0
BITMAP
2100
4100
DF80
4100
5100
4900
4100
4100
4300
ENDCHAR
STARTCHAR U+4ED9
ENCODING 20185
SWIDTH 625 0
DWIDTH 10 0
BBX 9 9 0 0
BITMAP
2200
2200
6A80
AA80
2A80
2A80
2A80
2A80
2F80
ENDCHAR
STARTCHAR U+4EDE
ENCODING 20190
SWIDTH 625 0
DWIDTH 10 0
BBX 9 9 0 0
BITMAP
2F80
4280
CA80
4A80
4A80
4A80
5280
4480
4980
ENDCHAR
STARTCHAR U+4EDF
ENCODING 20191
SWIDTH 625 0
DWIDTH 10 0
BBX 9 9 0 0
BITMAP
2180
4E00
C200
4200
5F80
4200
4200
4200
4200
ENDCHAR
STARTCHAR U+4EE3
ENCODING 20195
SWIDTH 625 0
DWIDTH 10 0
BBX 9 9 0 0
BITMAP
2480
4400
DF80
4400
4400
4400
4280
4280
4180
ENDCHAR
STARTCHAR U+4EE4
ENCODING 20196
SWIDTH 625 0
DWIDTH 10 0
BBX 9 9 0 0
BITMAP
1C00
2200
DD80
0000
FF00
1100
1100
1300
1000
ENDCHAR
STARTCHAR U+4EE5
ENCODING 20197
SWIDTH 625 0
DWIDTH 10 0
BBX 9 9 0 0
BITMAP
5100
5100
4900
4900
4100
4200
6500
4880
9080
ENDCHAR
STARTCHAR U+4EED
ENCODING 20205
SWIDTH 625 0
DWIDTH 10 0
BBX 9 9 0 0
BITMAP
5F00
4900
C900
5900
4D00
4B00
4980
4900
5300
ENDCHAR
STARTCHAR U+4EEE
ENCODING 20206
SWIDTH 625 0
DWIDTH 10 0
BBX 9 9 0 0
BITMAP
5F80
5000
DF80
5480
5480
5300
5200
5500
4880
ENDCHAR
STARTCHAR U+4EF0
ENCODING 20208
SWIDTH 625 0
DWIDTH 10 0
BBX 9 9 0 0
BITMAP
4B80
5280
D280
5280
5280
5280
5A80
4280
4200
ENDCHAR
STARTCHAR U+4EF2
ENCODING 20210
SWIDTH 625 0
DWIDTH 10 0
BBX 9 9 0 0
BITMAP
2200
4F80
CA80
4A80
4A80
4A80
4F80
4200
4200
ENDCHAR
STARTCHAR U+4EF6
ENCODING 20214
SWIDTH 625 0
DWIDTH 10 0
BBX 9 9 0 0
BITMAP
2200
4A00
CF80
5200
4200
5F80
4200
4200
4200
ENDCHAR
STARTCHAR U+4EF7
ENCODING 20215
SWIDTH 625 0
DWIDTH 10 0
BBX 9 9 0 0
BITMAP
2600
4900
D080
4900
4900
4900
4900
4900
5100
ENDCHAR
STARTCHAR U+4EFB
ENCODING 20219
SWIDTH 625 0
DWIDTH 10 0
BBX 9 9 0 0
BITMAP
2F80
4200
C200
4200
5F80
4200
4200
4200
4F80
ENDCHAR
STARTCHAR U+4F01
ENCODING 20225
SWIDTH 625 0
DWIDTH 10 0
BBX 9 9 0 0
BITMAP
0800
1400
2200
C980
0800
2F00
2800
2800
FF80
ENDCHAR
STARTCHAR U+4F09
ENCODING 20233
SWIDTH 625 0
DWIDTH 10 0
BBX 9 9 0 0
BITMAP
4400
5F80
C000
4F00
4900
4900
4900
4900
5180
ENDCHAR
STARTCHAR U+4F0A
ENCODING 20234
SWIDTH 625 0
DWIDTH 10 0
BBX 9 9 0 0
BITMAP
5F00
4500
DF80
4500
5F00
4400
4400
4400
4800
ENDCHAR
STARTCHAR U+4F0D
ENCODING 20237
SWIDTH 625 0
DWIDTH 10 0
BBX 9 9 0 0
BITMAP
3F00
4800
C800
5F00
4900
4900
4900
4900
7F80
ENDCHAR
STARTCHAR U+4F0E
ENCODING 20238
SWIDTH 625 0
DWIDTH 10 0
BBX 9 9 0 0
BITMAP
2400
5F80
C400
4400
5F80
5080
4900
4600
5980
ENDCHAR
STARTCHAR U+4F0F
ENCODING 20239
SWIDTH 625 0
DWIDTH 10 0
BBX 9 9 0 0
BITMAP
2500
4480
DF80
4400
4A00
4A00
5100
5100
6080
ENDCHAR
STARTCHAR U+4F10
ENCODING 20240
SWIDTH 625 0
DWIDTH 10 0
BBX 9 9 0 0
BITMAP
2500
4480
DF80
4400
4500
4500
4600
4E80
5180
ENDCHAR
STARTCHAR U+4F11
ENCODING 20241
SWIDTH 625 0
DWIDTH 10 0
BBX 9 9 0 0
BITMAP
2400
4400
DF80
4400
4E00
4E00
5500
6480
4400
ENDCHAR
STARTCHAR U+4F1A
ENCODING 20250
SWIDTH 625 0
DWIDTH 10 0
BBX 9 9 0 0
BITMAP
0800
1400
2200
DD80
0000
7F00
1400
2200
FF00
ENDCHAR
STARTCHAR U+4F1C
ENCODING 20252
SWIDTH 625 0
DWIDTH 10 0
BBX 9 9 0 0
BITMAP
4400
5F00
C500
4900
5580
4400
5F80
4400
4400
ENDCHAR
STARTCHAR U+4F1D
ENCODING 20253
SWIDTH 625 0
DWIDTH 10 0
BBX 9 9 0 0
BITMAP
2F00
4000
C000
5F80
4400
4400
4900
4880
5F80
ENDCHAR
STARTCHAR U+4F2F
ENCODING 20271
SWIDTH 625 0
DWIDTH 10 0
BBX 9 9 0 0
BITMAP
4400
4400
DF80
5080
5080
5F80
5080
5080
5F80
ENDCHAR
STARTCHAR U+4F30
ENCODING 20272
SWIDTH 625 0
DWIDTH 10 0
BBX 9 9 0 0
BITMAP
2200
5F80
C200
4200
4F80
4880
4880
4880
4F80
ENDCHAR
STARTCHAR U+4F34
ENCODING 20276
SWIDTH 625 0
DWIDTH 10 0
BBX 9 9 0 0
BITMAP
2480
5500
C400
5F80
4400
5F80
4400
4400
4400
ENDCHAR
STARTCHAR U+4F36
ENCODING 20278
SWIDTH 625 0
DWIDTH 10 0
BBX 9 9 0 0
BITMAP
4600
4900
DF80
4000
5F80
4480
4480
4580
4400
ENDCHAR
STARTCHAR U+4F38
ENCODING 20280
SWIDTH 625 0
DWIDTH 10 0
BBX 9 9 0 0
BITMAP
2200
4F80
CA80
4F80
4A80
4A80
4F80
4200
4200
ENDCHAR
STARTCHAR U+4F3A
ENCODING 20282
SWIDTH 625 0
DWIDTH 10 0
BBX 9 9 0 0
BITMAP
5F80
4080
DE80
4080
5E80
5280
5E80
4080
4180
ENDCHAR
STARTCHAR U+4F3C
ENCODING 20284
SWIDTH 625 0
DWIDTH 10 0
BBX 9 9 0 0
BITMAP
5100
5900
D500
5500
5100
5500
5900
5280
6480
ENDCHAR
STARTCHAR U+4F3D
ENCODING 20285
SWIDTH 625 0
DWIDTH 10 0
BBX 9 9 0 0
BITMAP
2B80
4A80
DE80
4A80
4A80
4A80
4A80
4A80
5780
ENDCHAR
STARTCHAR U+4F43
ENCODING 20291
SWIDTH 625 0
DWIDTH 10 0
BBX 9 9 0 0
BITMAP
2F80
4A80
CA80
4A80
4F80
4A80
4A80
4A80
4F80
ENDCHAR
STARTCHAR U+4F46
ENCODING 20294
SWIDTH 625 0
DWIDTH 10 0
BBX 9 9 0 0
BITMAP
2F80
4880
C880
4F80
4880
4880
4F80
4000
5F80
ENDCHAR
STARTCHAR U+4F47
ENCODING 20295
SWIDTH 625 0
DWIDTH 10 0
BBX 9 9 0 0
BITMAP
4200
5F80
D080
4000
5F80
4200
4200
4200
4600
ENDCHAR
ENDFONT
